<svg width="96" height="131" viewBox="0 0 96 131" fill="none" xmlns="http://www.w3.org/2000/svg">
<g clip-path="url(#clip0_801_12331)">
<path d="M45.7254 99.6089C69.9742 99.6089 89.6317 79.9347 89.6317 55.6653C89.6317 31.3959 69.9742 11.7217 45.7254 11.7217C21.4766 11.7217 1.81909 31.3959 1.81909 55.6653C1.81909 79.9347 21.4766 99.6089 45.7254 99.6089Z" fill="#F96262"/>
<path opacity="0.5" d="M38.0927 22.463C38.5453 20.9501 37.9736 19.4423 36.8156 19.0953C35.6576 18.7482 34.3519 19.6932 33.8992 21.2061C33.4466 22.7189 34.0183 24.2267 35.1763 24.5738C36.3343 24.9208 37.64 23.9758 38.0927 22.463Z" fill="#FFB8C2"/>
<path opacity="0.5" d="M61.9093 19.7569C62.362 18.2441 61.7902 16.7363 60.6322 16.3892C59.4743 16.0421 58.1686 16.9872 57.7159 18.5C57.2632 20.0129 57.835 21.5206 58.9929 21.8677C60.1509 22.2148 61.4566 21.2698 61.9093 19.7569Z" fill="#FFB8C2"/>
<path opacity="0.5" d="M47.8309 18.1153C48.2836 16.6025 47.7119 15.0947 46.5539 14.7476C45.3959 14.4005 44.0902 15.3456 43.6375 16.8584C43.1848 18.3713 43.7566 19.879 44.9146 20.2261C46.0726 20.5732 47.3783 19.6282 47.8309 18.1153Z" fill="#FFB8C2"/>
<path opacity="0.5" d="M26.2313 25.2725C26.684 23.7597 26.1123 22.2519 24.9543 21.9048C23.7963 21.5577 22.4906 22.5028 22.0379 24.0156C21.5852 25.5285 22.157 27.0362 23.315 27.3833C24.473 27.7304 25.7787 26.7854 26.2313 25.2725Z" fill="#FFB8C2"/>
<path opacity="0.5" d="M15.5443 25.8721C15.997 24.3593 15.4252 22.8515 14.2673 22.5044C13.1093 22.1574 11.8036 23.1024 11.3509 24.6152C10.8982 26.1281 11.47 27.6359 12.628 27.9829C13.7859 28.33 15.0916 27.385 15.5443 25.8721Z" fill="#FFB8C2"/>
<path opacity="0.5" d="M54.286 27.4005C54.7387 25.8876 54.1669 24.3798 53.009 24.0328C51.851 23.6857 50.5453 24.6307 50.0926 26.1436C49.6399 27.6564 50.2117 29.1642 51.3697 29.5113C52.5276 29.8583 53.8333 28.9133 54.286 27.4005Z" fill="#FFB8C2"/>
<path opacity="0.5" d="M57.3309 15.1446C57.7836 13.6318 57.2119 12.124 56.0539 11.7769C54.8959 11.4298 53.5902 12.3749 53.1375 13.8877C52.6848 15.4005 53.2566 16.9083 54.4146 17.2554C55.5726 17.6025 56.8783 16.6575 57.3309 15.1446Z" fill="#FFB8C2"/>
<path opacity="0.5" d="M72.8222 20.2296C73.2748 18.7167 72.7031 17.2089 71.5451 16.8619C70.3871 16.5148 69.0814 17.4598 68.6287 18.9727C68.1761 20.4855 68.7478 21.9933 69.9058 22.3404C71.0638 22.6875 72.3695 21.7424 72.8222 20.2296Z" fill="#FFB8C2"/>
<path opacity="0.5" d="M28.7025 17.1778C29.1552 15.665 28.5834 14.1572 27.4255 13.8101C26.2675 13.463 24.9618 14.4081 24.5091 15.9209C24.0564 17.4338 24.6282 18.9415 25.7862 19.2886C26.9441 19.6357 28.2498 18.6907 28.7025 17.1778Z" fill="#FFB8C2"/>
<path opacity="0.5" d="M43.4699 11.2012C43.9225 9.6884 43.3508 8.18062 42.1928 7.83354C41.0348 7.48646 39.7291 8.43149 39.2764 9.94434C38.8238 11.4572 39.3955 12.965 40.5535 13.312C41.7115 13.6591 43.0172 12.7141 43.4699 11.2012Z" fill="#FFB8C2"/>
<path opacity="0.5" d="M38.087 44.3555C38.5397 42.8427 37.968 41.3349 36.81 40.9878C35.652 40.6408 34.3463 41.5858 33.8936 43.0986C33.4409 44.6115 34.0127 46.1193 35.1707 46.4663C36.3287 46.8134 37.6344 45.8684 38.087 44.3555Z" fill="#FFB8C2"/>
<path opacity="0.5" d="M61.9047 41.6505C62.3574 40.1376 61.7856 38.6298 60.6276 38.2828C59.4696 37.9357 58.1639 38.8807 57.7113 40.3936C57.2586 41.9064 57.8303 43.4142 58.9883 43.7613C60.1463 44.1083 61.452 43.1633 61.9047 41.6505Z" fill="#FFB8C2"/>
<path opacity="0.5" d="M48.0249 40.0122C48.4812 38.5004 47.9131 36.9913 46.7559 36.6414C45.5988 36.2915 44.2908 37.2334 43.8345 38.7452C43.3782 40.2569 43.9463 41.766 45.1035 42.1159C46.2606 42.4658 47.5686 41.5239 48.0249 40.0122Z" fill="#FFB8C2"/>
<path opacity="0.5" d="M26.2418 47.17C26.6945 45.6571 26.1228 44.1494 24.9648 43.8023C23.8068 43.4552 22.5011 44.4002 22.0484 45.9131C21.5957 47.4259 22.1675 48.9337 23.3255 49.2808C24.4835 49.6279 25.7891 48.6828 26.2418 47.17Z" fill="#FFB8C2"/>
<path opacity="0.5" d="M11.087 38.7735C11.5397 37.2607 10.968 35.7529 9.80999 35.4058C8.652 35.0587 7.3463 36.0038 6.89362 37.5166C6.44094 39.0295 7.01271 40.5372 8.17069 40.8843C9.32867 41.2314 10.6344 40.2864 11.087 38.7735Z" fill="#FFB8C2"/>
<path opacity="0.5" d="M4.66884 52.1417C5.12152 50.6288 4.54976 49.1211 3.39177 48.774C2.23379 48.4269 0.928092 49.3719 0.475412 50.8848C0.0227314 52.3976 0.594492 53.9054 1.75247 54.2525C2.91045 54.5996 4.21615 53.6545 4.66884 52.1417Z" fill="#FFB8C2"/>
<path opacity="0.5" d="M9.69276 79.0772C10.1454 77.5644 9.57369 76.0566 8.4157 75.7095C7.25772 75.3624 5.95202 76.3075 5.49934 77.8203C5.04666 79.3332 5.61842 80.8409 6.7764 81.188C7.93439 81.5351 9.24008 80.5901 9.69276 79.0772Z" fill="#FFB8C2"/>
<path opacity="0.5" d="M42.5182 98.5343C42.9709 97.0214 42.3991 95.5136 41.2411 95.1666C40.0832 94.8195 38.7775 95.7645 38.3248 97.2773C37.8721 98.7902 38.4439 100.298 39.6018 100.645C40.7598 100.992 42.0655 100.047 42.5182 98.5343Z" fill="#FFB8C2"/>
<path opacity="0.5" d="M82.4132 76.8067C82.8659 75.2939 82.2941 73.7861 81.1362 73.439C79.9782 73.0919 78.6725 74.037 78.2198 75.5498C77.7671 77.0627 78.3389 78.5704 79.4969 78.9175C80.6548 79.2646 81.9605 78.3196 82.4132 76.8067Z" fill="#FFB8C2"/>
<path opacity="0.5" d="M66.9589 74.2032C67.4116 72.6904 66.8398 71.1826 65.6818 70.8355C64.5238 70.4884 63.2181 71.4334 62.7655 72.9463C62.3128 74.4591 62.8845 75.9669 64.0425 76.314C65.2005 76.6611 66.5062 75.716 66.9589 74.2032Z" fill="#FFB8C2"/>
<path opacity="0.5" d="M82.1835 61.8878C82.6362 60.3749 82.0644 58.8671 80.9064 58.5201C79.7484 58.173 78.4427 59.118 77.9901 60.6309C77.5374 62.1437 78.1091 63.6515 79.2671 63.9986C80.4251 64.3457 81.7308 63.4006 82.1835 61.8878Z" fill="#FFB8C2"/>
<path opacity="0.5" d="M15.5565 47.7716C16.0092 46.2587 15.4375 44.7509 14.2795 44.4039C13.1215 44.0568 11.8158 45.0018 11.3631 46.5147C10.9104 48.0275 11.4822 49.5353 12.6402 49.8824C13.7982 50.2294 15.1038 49.2844 15.5565 47.7716Z" fill="#FFB8C2"/>
<path opacity="0.5" d="M21.4135 36.7794C21.8661 35.2665 21.2944 33.7588 20.1364 33.4117C18.9784 33.0646 17.6727 34.0096 17.22 35.5225C16.7674 37.0353 17.3391 38.5431 18.4971 38.8902C19.6551 39.2373 20.9608 38.2922 21.4135 36.7794Z" fill="#FFB8C2"/>
<path opacity="0.5" d="M54.2811 49.294C54.7338 47.7812 54.1621 46.2734 53.0041 45.9263C51.8461 45.5792 50.5404 46.5243 50.0877 48.0371C49.635 49.55 50.2068 51.0577 51.3648 51.4048C52.5228 51.7519 53.8285 50.8069 54.2811 49.294Z" fill="#FFB8C2"/>
<path opacity="0.5" d="M57.3402 37.043C57.7929 35.5302 57.2211 34.0224 56.0632 33.6753C54.9052 33.3283 53.5995 34.2733 53.1468 35.7861C52.6941 37.299 53.2659 38.8068 54.4239 39.1538C55.5818 39.5009 56.8875 38.5559 57.3402 37.043Z" fill="#FFB8C2"/>
<path opacity="0.5" d="M73.1081 42.0864C73.5644 40.5746 72.9963 39.0655 71.8392 38.7156C70.682 38.3658 69.3741 39.3077 68.9178 40.8194C68.4615 42.3311 69.0296 43.8403 70.1867 44.1901C71.3439 44.54 72.6518 43.5981 73.1081 42.0864Z" fill="#FFB8C2"/>
<path opacity="0.5" d="M28.6986 39.0723C29.1513 37.5595 28.5795 36.0517 27.4216 35.7046C26.2636 35.3575 24.9579 36.3026 24.5052 37.8154C24.0525 39.3283 24.6243 40.8361 25.7823 41.1831C26.9402 41.5302 28.2459 40.5852 28.6986 39.0723Z" fill="#FFB8C2"/>
<path opacity="0.5" d="M43.4652 33.0948C43.9179 31.582 43.3461 30.0742 42.1882 29.7271C41.0302 29.38 39.7245 30.325 39.2718 31.8379C38.8191 33.3507 39.3909 34.8585 40.5489 35.2056C41.7068 35.5527 43.0125 34.6076 43.4652 33.0948Z" fill="#FFB8C2"/>
<path opacity="0.5" d="M38.0814 66.2501C38.5341 64.7372 37.9624 63.2295 36.8044 62.8824C35.6464 62.5353 34.3407 63.4803 33.888 64.9932C33.4353 66.506 34.0071 68.0138 35.1651 68.3609C36.3231 68.708 37.6287 67.7629 38.0814 66.2501Z" fill="#FFB8C2"/>
<path opacity="0.5" d="M16.517 57.754C16.9697 56.2411 16.3979 54.7334 15.2399 54.3863C14.0819 54.0392 12.7762 54.9842 12.3236 56.4971C11.8709 58.0099 12.4426 59.5177 13.6006 59.8648C14.7586 60.2119 16.0643 59.2668 16.517 57.754Z" fill="#FFB8C2"/>
<path opacity="0.5" d="M6.82069 63.1026C7.27337 61.5898 6.70161 60.082 5.54363 59.7349C4.38565 59.3878 3.07995 60.3329 2.62727 61.8457C2.17459 63.3586 2.74635 64.8663 3.90433 65.2134C5.06231 65.5605 6.36801 64.6155 6.82069 63.1026Z" fill="#FFB8C2"/>
<path opacity="0.5" d="M20.4076 81.6651C20.8603 80.1523 20.2885 78.6445 19.1305 78.2974C17.9726 77.9503 16.6669 78.8954 16.2142 80.4082C15.7615 81.9211 16.3333 83.4288 17.4912 83.7759C18.6492 84.123 19.9549 83.178 20.4076 81.6651Z" fill="#FFB8C2"/>
<path opacity="0.5" d="M61.9159 63.5489C62.3686 62.0361 61.7968 60.5283 60.6388 60.1812C59.4809 59.8341 58.1752 60.7792 57.7225 62.292C57.2698 63.8048 57.8416 65.3126 58.9995 65.6597C60.1575 66.0068 61.4632 65.0618 61.9159 63.5489Z" fill="#FFB8C2"/>
<path opacity="0.5" d="M47.8217 61.9024C48.2743 60.3896 47.7026 58.8818 46.5446 58.5347C45.3866 58.1876 44.0809 59.1327 43.6282 60.6455C43.1756 62.1584 43.7473 63.6661 44.9053 64.0132C46.0633 64.3603 47.369 63.4153 47.8217 61.9024Z" fill="#FFB8C2"/>
<path opacity="0.5" d="M26.2379 69.0645C26.6906 67.5517 26.1188 66.0439 24.9609 65.6968C23.8029 65.3497 22.4972 66.2948 22.0445 67.8076C21.5918 69.3205 22.1636 70.8282 23.3216 71.1753C24.4795 71.5224 25.7852 70.5774 26.2379 69.0645Z" fill="#FFB8C2"/>
<path opacity="0.5" d="M15.5512 69.6632C16.0038 68.1503 15.4321 66.6425 14.2741 66.2955C13.1161 65.9484 11.8104 66.8934 11.3577 68.4063C10.9051 69.9191 11.4768 71.4269 12.6348 71.774C13.7928 72.121 15.0985 71.176 15.5512 69.6632Z" fill="#FFB8C2"/>
<path opacity="0.5" d="M54.2767 71.1876C54.7294 69.6747 54.1577 68.167 52.9997 67.8199C51.8417 67.4728 50.536 68.4178 50.0833 69.9307C49.6306 71.4435 50.2024 72.9513 51.3604 73.2984C52.5184 73.6455 53.8241 72.7004 54.2767 71.1876Z" fill="#FFB8C2"/>
<path opacity="0.5" d="M57.3363 58.9376C57.789 57.4247 57.2172 55.917 56.0593 55.5699C54.9013 55.2228 53.5956 56.1678 53.1429 57.6807C52.6902 59.1935 53.262 60.7013 54.42 61.0484C55.5779 61.3955 56.8836 60.4504 57.3363 58.9376Z" fill="#FFB8C2"/>
<path opacity="0.5" d="M66.5409 53.4796C66.9936 51.9667 66.4218 50.4589 65.2638 50.1119C64.1059 49.7648 62.8002 50.7098 62.3475 52.2227C61.8948 53.7355 62.4666 55.2433 63.6245 55.5904C64.7825 55.9375 66.0882 54.9924 66.5409 53.4796Z" fill="#FFB8C2"/>
<path opacity="0.5" d="M76.2645 52.1387C76.7172 50.6259 76.1455 49.1181 74.9875 48.771C73.8295 48.424 72.5238 49.369 72.0711 50.8818C71.6184 52.3947 72.1902 53.9025 73.3482 54.2495C74.5062 54.5966 75.8119 53.6516 76.2645 52.1387Z" fill="#FFB8C2"/>
<path opacity="0.5" d="M85.6337 44.3204C86.0864 42.8075 85.5146 41.2998 84.3566 40.9527C83.1986 40.6056 81.8929 41.5506 81.4403 43.0635C80.9876 44.5763 81.5593 46.0841 82.7173 46.4312C83.8753 46.7783 85.181 45.8332 85.6337 44.3204Z" fill="#FFB8C2"/>
<path opacity="0.5" d="M66.7069 31.4649C67.1596 29.9521 66.5878 28.4443 65.4299 28.0972C64.2719 27.7501 62.9662 28.6952 62.5135 30.208C62.0608 31.7209 62.6326 33.2286 63.7906 33.5757C64.9485 33.9228 66.2542 32.9778 66.7069 31.4649Z" fill="#FFB8C2"/>
<path opacity="0.5" d="M76.6044 32.8448C77.0571 31.332 76.4853 29.8242 75.3273 29.4771C74.1693 29.13 72.8636 30.0751 72.411 31.5879C71.9583 33.1007 72.53 34.6085 73.688 34.9556C74.846 35.3027 76.1517 34.3577 76.6044 32.8448Z" fill="#FFB8C2"/>
<path opacity="0.5" d="M82.8632 32.1534C83.3159 30.6405 82.7441 29.1328 81.5861 28.7857C80.4281 28.4386 79.1224 29.3836 78.6697 30.8965C78.2171 32.4093 78.7888 33.9171 79.9468 34.2642C81.1048 34.6113 82.4105 33.6662 82.8632 32.1534Z" fill="#FFB8C2"/>
<path opacity="0.5" d="M72.8278 64.0216C73.2805 62.5087 72.7087 61.0009 71.5507 60.6539C70.3927 60.3068 69.087 61.2518 68.6343 62.7647C68.1817 64.2775 68.7534 65.7853 69.9114 66.1324C71.0694 66.4794 72.3751 65.5344 72.8278 64.0216Z" fill="#FFB8C2"/>
<path opacity="0.5" d="M28.6928 60.9669C29.1454 59.454 28.5737 57.9463 27.4157 57.5992C26.2577 57.2521 24.952 58.1971 24.4993 59.71C24.0467 61.2228 24.6184 62.7306 25.7764 63.0777C26.9344 63.4248 28.2401 62.4797 28.6928 60.9669Z" fill="#FFB8C2"/>
<path opacity="0.5" d="M43.4752 54.9942C43.9279 53.4814 43.3562 51.9736 42.1982 51.6265C41.0402 51.2794 39.7345 52.2245 39.2818 53.7373C38.8291 55.2502 39.4009 56.7579 40.5589 57.105C41.7169 57.4521 43.0226 56.5071 43.4752 54.9942Z" fill="#FFB8C2"/>
<path opacity="0.5" d="M38.355 88.3217C38.8113 86.81 38.2431 85.3009 37.086 84.951C35.9289 84.6011 34.6209 85.543 34.1646 87.0547C33.7083 88.5665 34.2764 90.0756 35.4336 90.4255C36.5907 90.7754 37.8986 89.8335 38.355 88.3217Z" fill="#FFB8C2"/>
<path opacity="0.5" d="M64.1625 83.3575C64.6152 81.8447 64.0434 80.3369 62.8854 79.9898C61.7274 79.6427 60.4217 80.5877 59.9691 82.1006C59.5164 83.6134 60.0881 85.1212 61.2461 85.4683C62.4041 85.8154 63.7098 84.8703 64.1625 83.3575Z" fill="#FFB8C2"/>
<path opacity="0.5" d="M47.8319 83.8018C48.2846 82.289 47.7128 80.7812 46.5549 80.4341C45.3969 80.087 44.0912 81.0321 43.6385 82.5449C43.1858 84.0578 43.7576 85.5655 44.9156 85.9126C46.0735 86.2597 47.3792 85.3147 47.8319 83.8018Z" fill="#FFB8C2"/>
<path opacity="0.5" d="M26.2333 90.9581C26.686 89.4452 26.1142 87.9375 24.9562 87.5904C23.7982 87.2433 22.4925 88.1883 22.0399 89.7012C21.5872 91.214 22.1589 92.7218 23.3169 93.0689C24.4749 93.416 25.7806 92.4709 26.2333 90.9581Z" fill="#FFB8C2"/>
<path opacity="0.5" d="M15.5519 91.5421C16.0046 90.0292 15.4328 88.5214 14.2748 88.1744C13.1168 87.8273 11.8111 88.7723 11.3585 90.2852C10.9058 91.798 11.4775 93.3058 12.6355 93.6529C13.7935 93.9999 15.0992 93.0549 15.5519 91.5421Z" fill="#FFB8C2"/>
<path opacity="0.5" d="M54.612 93.2377C55.0683 91.726 54.5002 90.2169 53.3431 89.867C52.1859 89.5171 50.878 90.459 50.4217 91.9708C49.9654 93.4825 50.5335 94.9916 51.6906 95.3415C52.8478 95.6914 54.1557 94.7495 54.612 93.2377Z" fill="#FFB8C2"/>
<path opacity="0.5" d="M57.3309 80.8292C57.7836 79.3163 57.2119 77.8086 56.0539 77.4615C54.8959 77.1144 53.5902 78.0594 53.1375 79.5723C52.6848 81.0851 53.2566 82.5929 54.4146 82.94C55.5726 83.2871 56.8783 82.342 57.3309 80.8292Z" fill="#FFB8C2"/>
<path opacity="0.5" d="M72.8239 85.9171C73.2765 84.4042 72.7048 82.8964 71.5468 82.5494C70.3888 82.2023 69.0831 83.1473 68.6304 84.6602C68.1778 86.173 68.7495 87.6808 69.9075 88.0279C71.0655 88.3749 72.3712 87.4299 72.8239 85.9171Z" fill="#FFB8C2"/>
<path opacity="0.5" d="M28.7035 82.8643C29.1562 81.3515 28.5844 79.8437 27.4264 79.4966C26.2685 79.1495 24.9628 80.0946 24.5101 81.6074C24.0574 83.1203 24.6292 84.628 25.7871 84.9751C26.9451 85.3222 28.2508 84.3772 28.7035 82.8643Z" fill="#FFB8C2"/>
<path opacity="0.5" d="M34.2514 76.043C34.704 74.5302 34.1323 73.0224 32.9743 72.6753C31.8163 72.3283 30.5106 73.2733 30.0579 74.7861C29.6053 76.299 30.177 77.8068 31.335 78.1538C32.493 78.5009 33.7987 77.5559 34.2514 76.043Z" fill="#FFB8C2"/>
<path opacity="0.5" d="M34.6056 51.5977C35.0583 50.0849 34.4865 48.5771 33.3285 48.23C32.1706 47.8829 30.8649 48.828 30.4122 50.3408C29.9595 51.8537 30.5313 53.3614 31.6892 53.7085C32.8472 54.0556 34.1529 53.1106 34.6056 51.5977Z" fill="#FFB8C2"/>
<path opacity="0.5" d="M36.1564 31.6007C36.6091 30.0878 36.0373 28.58 34.8793 28.233C33.7213 27.8859 32.4156 28.8309 31.963 30.3438C31.5103 31.8566 32.082 33.3644 33.24 33.7115C34.398 34.0585 35.7037 33.1135 36.1564 31.6007Z" fill="#FFB8C2"/>
<path opacity="0.5" d="M43.4706 76.8878C43.9233 75.3749 43.3515 73.8671 42.1935 73.5201C41.0355 73.173 39.7298 74.118 39.2772 75.6309C38.8245 77.1437 39.3962 78.6515 40.5542 78.9986C41.7122 79.3457 43.0179 78.4006 43.4706 76.8878Z" fill="#FFB8C2"/>
<path d="M80.1255 95.4111V95.06C80.1255 92.7524 80.1255 90.4449 80.1088 88.1206C80.1088 87.9534 80.042 87.8029 79.925 87.6859C79.3236 87.0505 78.672 86.4485 78.0706 85.8131C77.8199 85.5623 77.5694 85.4954 77.2185 85.5623V88.2544H73.2923V84.9268H76.6003V68.9246L76.5502 68.8744C76.1827 69.259 75.8151 69.6436 75.4308 70.0449C74.2947 71.1987 73.142 72.3357 72.0059 73.4728C71.8388 73.6232 71.7386 73.8573 71.7553 74.0914C71.7553 79.8603 71.7553 85.6291 71.7553 91.3813V91.6823H69.7504V93.6888H67.0271V91.1137H69.1657V83.7396C69.0654 83.8232 68.9986 83.8734 68.9485 83.9403C67.261 85.6124 65.5903 87.3013 63.9029 88.9901C63.8027 89.1072 63.7358 89.2577 63.7358 89.4082C63.7191 90.495 63.7358 91.5986 63.7358 92.6855V93.0534H61.5138V95.4111H59.3252V92.4849H60.9123V82.1009C60.6617 82.3685 60.361 82.519 60.3777 82.9705C60.4111 84.1409 60.3944 85.3114 60.3944 86.4819C60.3944 86.5488 60.3777 86.6324 60.3777 86.7327H59.1247V88.3046H57.454V94.9429H55.4491V94.575C55.4491 89.776 55.4491 84.9937 55.4491 80.1947C55.4658 80.0108 55.399 79.8436 55.2653 79.7265C54.9479 79.4255 54.6639 79.1246 54.3464 78.8236C54.2462 78.7567 54.1292 78.6898 53.9956 78.6396V80.6629H52.9932V90.6957H51.3559V86.8164H48.6827V90.495H46.5442V86.1977H48.0646V85.7964C48.0646 83.0875 48.0646 80.3619 48.0646 77.6531C48.0813 77.4691 48.0144 77.3019 47.8808 77.1849C47.1958 76.516 46.5275 75.8472 45.8592 75.1616C45.7757 75.078 45.6921 74.9944 45.5585 74.8773V94.6252H43.8711V79.9606C43.7374 80.0944 43.6706 80.1446 43.6038 80.2114C43.1025 80.7131 42.6013 81.2314 42.1001 81.7164C41.9665 81.8334 41.8996 82.0006 41.8996 82.1846C41.8996 85.0439 41.8996 87.8865 41.8996 90.7459V91.0803H40.3793V94.9262H36.2693V90.495H39.7778V74.4593H38.7253V71.6167H37.4388C37.4388 70.8642 37.4054 70.1452 37.4555 69.4429C37.4889 68.8911 37.3219 68.5065 36.8374 68.2223C36.8207 68.3059 36.8207 68.3728 36.8207 68.4564C36.8207 68.958 36.8207 69.4596 36.8207 69.978C36.8207 70.1118 36.7705 70.2455 36.6703 70.3459C36.0521 70.7806 35.9018 71.3659 35.9686 72.1016C36.0187 72.7203 35.9853 73.339 35.9686 73.9577C35.9686 73.9744 35.9519 73.9911 35.9352 74.0413H34.7824V87.7026H32.9947V90.0603H30.9398V87.1341H32.3599V78.7065C32.2763 78.7734 32.2095 78.8403 32.1427 78.8905C31.5412 79.4924 30.9398 80.0944 30.3383 80.6964C30.2046 80.8134 30.1211 80.9973 30.1378 81.1813C30.1378 85.5455 30.1378 89.9265 30.1378 94.2908V94.6587H27.8823V86.2646H25.7605C25.7605 86.1475 25.7438 86.0639 25.7438 85.9636C25.7438 84.559 25.7438 83.1544 25.7438 81.7498C25.7438 81.616 25.7104 81.4823 25.6269 81.3819C24.5576 80.295 23.4884 79.2249 22.4191 78.1547C22.3857 78.1213 22.3523 78.0878 22.3022 78.0711V90.4616H24.5409C24.5576 90.5954 24.5576 90.6957 24.5576 90.7793C24.5576 91.8495 24.5576 92.9196 24.5576 93.9731C24.5576 94.2072 24.4908 94.2741 24.2569 94.2741C23.4215 94.2573 22.5695 94.2741 21.7007 94.2741V91.097H20.5145V94.8927H17.0394V90.495H19.9131V90.1439C19.9131 82.4855 19.9131 74.8105 19.8963 67.1521C19.8796 66.9849 19.8128 66.8177 19.7126 66.6839C19.4954 66.3996 19.2448 66.1488 19.0276 65.898L18.9273 65.9649C18.9273 66.3996 18.944 66.8344 18.9273 67.2691C18.9106 67.4029 18.8605 67.5367 18.777 67.637C18.5097 67.938 18.1087 68.1888 17.9583 68.54C17.808 68.8911 17.9249 69.3259 17.9249 69.7272C17.9249 71.0482 17.9249 72.3859 17.9249 73.757H17.1564V88.9232H15.6527V91.5485H12.8961V88.338H15.0513V78.9573C15.0012 78.9741 14.9677 79.0075 14.9176 79.0409C13.6479 80.295 12.3948 81.5659 11.1251 82.8367C11.0249 82.9537 10.9747 83.1042 10.9747 83.2547C10.9747 87.0337 10.9747 90.796 10.9747 94.575V94.9262H5.54492V94.3577H10.3232C10.3232 94.2239 10.3399 94.1236 10.3399 94.0065C10.3399 90.3446 10.3399 86.6826 10.3399 83.0206C10.3232 82.8367 10.4067 82.6528 10.5404 82.5357C12.1609 80.9137 13.7815 79.2918 15.4021 77.6698C15.4522 77.6196 15.5191 77.5527 15.636 77.4691V88.3213H16.5382V73.1885H17.3234V72.8206C17.3234 71.3826 17.3234 69.9446 17.3234 68.4898C17.3569 68.3393 17.407 68.1888 17.5072 68.055C17.5573 67.9714 17.6242 67.9046 17.7077 67.8544C18.259 67.4698 18.4094 66.9514 18.3593 66.2993C18.3092 65.7141 18.3426 65.1121 18.3426 64.5101L18.4261 64.46C18.777 64.8278 19.1111 65.179 19.462 65.5468C19.746 65.8311 20.03 66.1321 20.314 66.3996C20.4477 66.5167 20.5312 66.7006 20.5145 66.8846C20.5145 71.4495 20.5145 76.0144 20.5145 80.596C20.5145 83.7898 20.5145 86.9836 20.5145 90.1773C20.5145 90.2609 20.5312 90.3613 20.5312 90.4616H21.7007V76.6164C21.8177 76.7167 21.8678 76.7501 21.9179 76.8003C23.3547 78.2216 24.7748 79.6596 26.1949 81.0809C26.2952 81.1813 26.3453 81.3318 26.3453 81.4655C26.362 82.7531 26.3453 84.0239 26.3453 85.3114V85.6291H28.4671V94.04H29.5531V93.7055C29.5531 89.4416 29.5531 85.1609 29.5531 80.897C29.5364 80.6964 29.6199 80.5124 29.7703 80.3787C30.756 79.3921 31.7417 78.4055 32.7274 77.419C32.7942 77.3521 32.8611 77.2852 32.9613 77.2016V87.0505H34.1475V73.4393H35.3337C35.3337 72.8541 35.3839 72.3023 35.317 71.7505C35.2502 71.0649 35.4173 70.5298 35.9853 70.1285C36.1023 70.0114 36.1691 69.8609 36.1691 69.6937C36.1858 68.8075 36.1691 67.938 36.1691 67.0518V66.7842L36.2526 66.7173C36.3529 66.8511 36.4531 66.9682 36.5701 67.1019C36.9877 67.52 37.4054 67.9213 37.8064 68.356C37.9066 68.4731 37.9735 68.6236 37.9902 68.7908C38.0069 69.5265 38.0069 70.2455 38.0069 70.998H39.2599V73.8406H40.3459V90.4616H41.2815V90.1272C41.2815 87.4016 41.2815 84.6593 41.2815 81.9337C41.2815 81.7498 41.3483 81.5826 41.482 81.4655C42.451 80.4957 43.4033 79.5259 44.4224 78.5059V94.0065H44.9236V73.4226C45.0406 73.5396 45.1074 73.5898 45.1742 73.6734C46.2602 74.7603 47.3462 75.8472 48.4321 76.9173C48.5658 77.0511 48.6493 77.2183 48.6326 77.4023C48.6326 80.2114 48.6326 83.0206 48.6326 85.8298V86.1642H51.9072V90.0937H52.3249V80.0777H53.3607V78.0878C53.7116 78.0878 54.0457 78.0878 54.3631 78.0878C54.43 78.0878 54.5135 78.1714 54.5636 78.2216C54.998 78.6564 55.4491 79.0911 55.8668 79.5426C55.9503 79.6596 56.0004 79.7934 56.0004 79.9439C56.0004 84.6426 56.0004 89.358 56.0004 94.0734V94.3577H56.7857V87.7193H58.4731V86.1475H59.7261C59.7261 86.0137 59.7428 85.9134 59.7428 85.7964C59.7428 84.7429 59.7428 83.6895 59.7428 82.6193C59.7428 82.4855 59.7763 82.3685 59.8598 82.2682C60.361 81.7331 60.8789 81.2314 61.447 80.6629V92.4682H63.0843V79.8937H66.8601C66.8601 79.9606 66.8768 80.0609 66.8768 80.1445C66.8768 81.6829 66.8768 83.2213 66.8768 84.7429C66.8601 84.8767 66.81 85.0105 66.7097 85.0941C65.8577 85.9636 64.9889 86.8164 64.1368 87.6859C64.07 87.7695 64.0199 87.8364 63.953 87.9367L64.0199 87.9868C65.8911 86.0973 67.7623 84.2246 69.6502 82.335L69.717 82.3685V82.6527C69.717 85.3616 69.717 88.0872 69.717 90.796C69.717 91.0468 69.7671 91.1472 70.0344 91.1305C70.3853 91.097 70.7361 91.1305 71.1371 91.1305C71.1371 91.0134 71.1538 90.8964 71.1538 90.796C71.1538 85.1108 71.1538 79.4088 71.1538 73.7236C71.1538 73.5898 71.2039 73.456 71.2875 73.3557C73.1921 71.4327 75.0967 69.5265 77.018 67.6203C77.0514 67.5869 77.1015 67.5534 77.1851 67.4698V84.9603C77.2352 84.977 77.2853 84.977 77.3354 84.977C77.8367 84.8767 78.1875 85.1108 78.5217 85.4787C79.1565 86.1642 79.8248 86.8164 80.4931 87.4685C80.6267 87.5855 80.7103 87.7695 80.6936 87.9534C80.6936 90.1272 80.6936 92.3009 80.6936 94.4747V94.8593H85.8895V95.4445L80.1255 95.4111ZM63.7358 87.2678C64.5879 86.3983 65.4066 85.5957 66.1918 84.7764C66.2586 84.6927 66.3087 84.5757 66.3087 84.4587C66.3255 83.2213 66.3087 81.9839 66.3087 80.7465C66.3087 80.6462 66.292 80.5459 66.292 80.4455H63.7191L63.7358 87.2678ZM36.8541 91.1137V94.3409H39.7611V91.1137H36.8541ZM17.6242 91.1137V94.3409H19.8796V91.1137H17.6242ZM76.6337 85.5623H73.9105V87.6691H76.6337V85.5623ZM22.3022 93.6888H23.9395V91.1305H22.3022V93.6888ZM15.0179 88.9567H13.4641V90.9465H15.0179V88.9567ZM48.0311 89.8931V86.7829H47.1123V89.8931H48.0311ZM67.6119 91.699V93.0868H69.149V91.6823L67.6119 91.699ZM60.8956 93.1036H59.8932V94.8259H60.8956V93.1036ZM31.5412 87.7193V89.4583H32.3599V87.7193H31.5412Z" fill="white"/>
<path d="M87.2427 38.1079C77.5693 15.1663 51.1553 4.41449 28.2331 14.0794C24.8248 15.5174 21.6004 17.3735 18.6265 19.6142C17.7577 18.7614 16.9391 18.0424 16.204 18.4437C15.4689 18.845 15.7028 19.9319 15.803 20.4001C15.9032 20.8348 16.0035 21.2528 16.1037 21.6542C15.3352 22.323 14.5834 23.0253 13.865 23.761C10.9746 26.6538 8.48528 29.9145 6.48042 33.4761C4.92666 33.6601 4.3252 34.0279 3.99106 34.3456C3.69033 34.6299 3.53997 35.0312 3.55667 35.4325C3.6068 36.2686 4.14142 36.603 4.80971 36.7535C4.60922 37.205 4.40874 37.6397 4.20825 38.0912C-2.9424 54.9965 0.883534 74.5604 13.865 87.5361C14.4831 88.1548 15.118 88.7568 15.7696 89.342C15.9701 89.5092 16.1538 89.6932 16.3543 89.8604L16.488 89.9774C16.6384 90.1112 16.8054 90.245 16.9725 90.3787C17.2732 90.6296 17.5572 90.8637 17.858 91.0978C19.8962 92.703 22.0682 94.1243 24.3403 95.3617C24.5742 95.6125 24.8917 95.7797 25.2425 95.8299C26.2115 96.3148 27.1806 96.783 28.183 97.201C33.3956 99.4083 38.9925 100.612 44.6729 100.729C45.0238 100.746 45.3746 100.746 45.7255 100.746C49.9524 100.746 54.1459 100.161 58.2057 98.9902C58.473 98.9066 58.7403 98.8397 59.0076 98.7561L59.442 98.6224L59.7427 98.522C59.9766 98.4384 60.2105 98.3715 60.4444 98.2879C61.3967 97.9535 62.3491 97.6024 63.2847 97.201C86.1901 87.5027 96.9161 61.0496 87.2427 38.1079ZM28.4837 16.4873C29.9539 21.2528 33.3288 22.925 35.3503 23.9283C35.5341 24.0119 35.6845 24.0955 35.8348 24.1791C36.3026 24.4132 36.7203 24.7476 37.0712 25.1656C36.7704 25.1489 36.453 25.1656 36.1523 25.1991C30.9397 21.8381 27.3309 22.0555 25.0922 22.1892C24.8248 22.206 24.5742 22.2227 24.357 22.2227C23.0038 22.2561 21.5335 21.7043 20.4977 21.1191C22.9871 19.2965 25.6602 17.7414 28.4837 16.4873ZM16.9558 24.0119C17.8747 25.985 19.111 27.3227 20.7316 28.0751L20.8318 28.1253C23.0873 29.1787 24.8081 29.9981 26.0278 31.5866C25.56 32.5732 25.5098 33.6266 25.727 34.3791C25.1924 34.9309 24.6745 35.5161 24.1566 36.1515C21.0992 35.1148 16.4045 33.844 11.4257 33.4928C10.6071 33.4427 9.87197 33.4092 9.2371 33.3925C11.3422 29.9145 13.9485 26.7542 16.9558 24.0119ZM2.95522 55.6653C2.95522 49.7125 4.19155 43.8266 6.59737 38.3922C8.46857 40.8502 9.9555 44.4119 7.43273 48.2076C6.16299 48.8765 5.76201 49.562 5.99591 50.4483C6.07945 50.7492 6.27994 51.0001 6.56396 51.1338C6.86469 51.2843 7.19883 51.3512 7.51626 51.3345C7.66663 51.3345 7.81699 51.3178 7.96736 51.301C9.50441 52.0201 10.9245 52.9899 12.1608 54.1437C13.6645 55.5483 14.1657 58.6417 14.3328 60.1299C14.0989 60.7988 13.9819 61.5679 14.5667 61.9525C14.717 62.0528 14.9175 62.1197 15.1013 62.1197C15.4856 62.1197 15.9199 61.9024 16.3042 61.501C17.0226 61.4342 17.741 61.4007 18.4594 61.4007C19.1778 61.4174 20.3473 61.9358 21.6004 62.9892C21.9345 63.541 22.3355 64.0594 22.7699 64.5443C23.388 65.2299 24.0563 65.8653 24.758 66.4506L24.7914 66.484V66.4673C28.1997 69.2765 32.7273 71.1325 36.8373 72.2194C38.0402 74.5604 38.2908 76.8512 37.6225 79.0083C36.6869 82.0014 34.1307 84.1083 32.0423 85.0781C29.0852 86.4492 24.0396 87.4191 20.6982 88.0712C19.796 88.2384 19.0108 88.3889 18.4093 88.5227C8.96978 80.6971 2.95522 68.8751 2.95522 55.6653ZM60.6282 95.7965C60.9122 89.5427 59.8764 83.8574 59.4086 81.7004C58.7904 78.8243 57.8715 75.0119 57.3035 72.6374C58.473 72.4368 59.6425 72.1692 60.7786 71.8181C62.6665 71.2496 64.3539 70.4302 65.5902 69.845C66.3421 69.4938 66.9769 69.1761 67.2944 69.0925L67.4614 69.0591C68.9985 68.7079 71.0201 68.2063 72.4234 67.7381C72.4903 67.805 72.5571 67.8384 72.6406 67.8886C72.7409 67.922 72.8411 67.9555 72.9414 67.9555C73.075 67.9555 73.2087 67.922 73.3256 67.8719L73.3758 67.8384C74.8126 67.0024 75.5978 65.5643 75.9821 64.561C78.3211 63.7584 79.123 61.6683 79.8915 59.0597C80.7603 56.1837 80.7603 51.7024 79.8915 48.8597C79.1898 46.4686 77.7196 44.3784 75.6981 42.9069C75.6646 42.0876 75.4474 41.0342 75.1634 39.8135L75.13 39.6296C74.9128 38.6597 74.6121 38.1581 74.1443 37.9909C73.6264 37.7902 73.1753 38.1247 72.9581 38.2751C72.5905 38.5427 71.6883 39.2115 71.0869 39.6463L70.7026 39.9138C70.4854 40.0643 70.3016 40.2148 70.1179 40.3653C69.2658 40.0978 68.5808 39.9138 68.1464 39.8135C68.0128 38.7433 67.5617 36.1515 66.2919 33.6099C64.6212 30.2824 59.4921 27.1555 53.8284 26.0351L53.4107 25.9515C52.6923 24.6807 51.7066 23.7443 50.0192 23.3263C46.2601 19.1125 41.2145 18.5106 38.0569 18.126C37.706 18.0758 37.3552 18.0424 37.0545 17.9922C34.7155 17.6745 32.5101 16.1696 31.4576 15.2833C36.0353 13.6614 40.8637 12.8253 45.7255 12.8253C69.3159 12.8253 88.4957 32.0381 88.4957 55.6319C88.4957 74.0253 76.8843 89.7266 60.6282 95.7965Z" fill="#2D0106"/>
<path d="M59.9432 96.0969C59.893 96.9162 59.8262 97.7523 59.726 98.5884L59.4419 98.6887C59.2916 98.7389 59.1579 98.7723 59.0076 98.8225C58.7402 98.9061 58.4729 98.9897 58.2056 99.0566C54.1458 100.227 49.9523 100.812 45.7254 100.812C45.3745 100.812 45.0237 100.812 44.6729 100.796C45.575 99.5582 46.1932 98.7054 46.1932 98.7054C46.2433 98.6553 46.3101 98.5884 46.3603 98.5048C47.3293 97.3176 49.1504 93.9733 49.7852 92.4517C50.4368 90.8297 52.5586 88.0205 55.5325 88.0205C56.585 88.0205 57.4538 88.2212 58.1221 88.589C58.5064 88.7897 58.8405 89.0572 59.1245 89.3749C59.3083 89.5756 59.4587 89.793 59.5756 90.0438C59.7427 90.3782 59.8763 90.7461 59.9265 91.1307C60.0267 92.7861 60.0267 94.4415 59.9432 96.0969Z" fill="#1B597F"/>
<path d="M59.9432 91.1142C59.8763 90.7296 59.7594 90.3785 59.5923 90.0273C59.4754 89.7932 59.325 89.5591 59.1412 89.3585C58.8572 89.0408 58.5231 88.7732 58.1388 88.5726C57.4538 88.2214 56.6017 88.0041 55.5492 88.0041C52.5586 88.0041 50.4535 90.8132 49.8019 92.4352C49.1838 93.9736 47.346 97.3011 46.377 98.4883C46.3102 98.5552 46.26 98.6221 46.2099 98.689C46.2099 98.689 45.5917 99.5418 44.6896 100.779C39.0258 100.662 33.429 99.4582 28.1996 97.251C27.1972 96.8329 26.2115 96.3647 25.2592 95.8798C25.1924 95.8631 25.1255 95.8631 25.0754 95.8464C24.8081 95.7628 24.5575 95.629 24.3737 95.4116C22.0848 94.1742 19.9296 92.7529 17.8913 91.1477C17.5906 90.9136 17.2899 90.6627 17.0059 90.4286C16.8388 90.2949 16.6884 90.1611 16.5214 90.0273L16.3877 89.9103C16.9056 89.7264 17.3734 89.5759 17.741 89.4755C18.0584 89.3919 18.5095 89.2749 19.0943 89.1746C19.8461 89.0241 20.7984 88.8401 21.8342 88.6395C22.1517 88.5726 22.5025 88.5057 22.8366 88.4388H22.8534C26.0277 87.8034 29.8369 86.9339 32.3096 85.7969C33.429 85.2785 34.4648 84.5929 35.367 83.7569C36.3026 82.9041 37.0878 81.9008 37.6726 80.7805C38.391 79.3926 38.7418 77.8375 38.6583 76.2824C38.5748 74.9782 38.2573 73.7073 37.706 72.5369C37.6057 72.3028 37.4888 72.0687 37.3551 71.8346L37.2883 71.7008C37.2048 71.5336 37.1045 71.3831 37.021 71.2159L38.0568 71.1824L38.5915 71.1657L56.1172 70.6641C56.1172 70.6641 56.1841 70.965 56.3177 71.4667C56.3678 71.6673 56.418 71.8847 56.4848 72.1355C56.4848 72.169 56.5015 72.2024 56.5015 72.2359C56.5516 72.4198 56.585 72.6037 56.6352 72.8044C56.9526 74.1254 57.387 75.9146 57.8047 77.7372V77.7539C57.9383 78.3391 58.072 78.9244 58.2056 79.4929C58.3894 80.329 58.5732 81.1483 58.7403 81.9008C59.3918 84.9273 59.7928 88.0208 59.9432 91.1142Z" fill="#123854"/>
<g opacity="0.4">
<path d="M27.264 88.1543C25.6434 88.7897 23.9727 89.3415 22.2853 89.8097C21.8008 89.9435 21.216 90.094 20.5478 90.2946C19.7458 90.5287 18.8436 90.813 17.8746 91.1641C17.5739 90.93 17.2732 90.6792 16.9891 90.4451C16.8221 90.3113 16.6717 90.1776 16.5046 90.0438C17.4904 89.7428 18.3925 89.492 19.1945 89.2746C20.2136 89.0071 21.0824 88.8064 21.8342 88.6559C22.2018 88.5723 22.5359 88.5054 22.8366 88.4553H22.8533C24.0563 88.2379 24.6744 88.1877 24.6744 88.1877H27.264V88.1543Z" fill="white"/>
</g>
<g opacity="0.4">
<path d="M38.7584 77.7369L39.3264 77.0514L40.6129 76.834C40.6129 76.834 41.2979 82.0678 35.5673 86.0474C35.0995 85.412 34.5315 84.6261 34.5315 84.6261C34.5315 84.6261 38.9756 80.195 38.7584 77.7369Z" fill="white"/>
</g>
<g opacity="0.4">
<path d="M59.5756 96.2303C59.5422 97.0999 59.492 97.9359 59.4419 98.6884C59.2916 98.7385 59.1579 98.772 59.0075 98.8222C58.7402 98.9058 58.4729 98.9894 58.2056 99.0563C58.2724 98.2704 58.3225 97.4677 58.3392 96.6149C58.3894 94.9094 58.3727 93.0867 58.2891 91.0635C58.2557 90.2107 58.1889 89.3746 58.1221 88.572C57.4371 81.5323 55.2651 76.8838 55.2651 76.8838L56.9526 77.1179L57.7879 77.7199V77.7366C57.8213 77.8369 57.9717 78.4221 58.1889 79.4756C58.4896 80.9303 58.924 83.2546 59.2916 86.3146C59.4252 87.4517 59.5087 88.7225 59.5589 90.0435C59.6591 92.1002 59.6424 94.274 59.5756 96.2303Z" fill="white"/>
</g>
<path d="M56.1171 70.6641L38.5914 71.1657C39.0257 71.3162 39.4434 71.4333 39.8444 71.567L40.095 71.6506L40.4793 71.7677L40.5962 71.8011L55.5992 71.3664C55.6159 71.4333 55.6326 71.5002 55.6493 71.5838C55.8832 71.5503 56.1004 71.5169 56.3343 71.4834C56.184 70.9651 56.1171 70.6641 56.1171 70.6641ZM59.4251 81.7503C58.807 78.8743 57.9048 75.0618 57.32 72.7041L57.1864 72.1356L57.1697 72.0352C57.1029 71.7844 57.0527 71.567 57.0026 71.3664C56.869 70.8313 56.8021 70.5303 56.7854 70.5136L56.6518 69.9785L36.7369 70.547L35.8347 70.5805V70.5972L36.3526 71.4834L36.4194 71.6005C36.5698 71.8513 36.7035 72.1021 36.8204 72.3362C38.0233 74.6772 38.2739 76.968 37.6056 79.1251C36.67 82.1182 34.1138 84.2251 32.0255 85.1949C29.0683 86.5661 24.0227 87.5359 20.6813 88.188C19.7791 88.3552 18.9939 88.5057 18.3924 88.6395C18.0583 88.7064 17.7576 88.79 17.5404 88.8402C17.106 88.9572 16.5212 89.1411 15.7861 89.4254C15.9866 89.5926 16.1704 89.7766 16.3709 89.9438L16.5045 90.0608C16.6549 90.1946 16.822 90.3284 16.989 90.4621C17.3566 90.3284 17.674 90.2447 17.9246 90.1779C18.3256 90.0608 18.9939 89.927 19.7958 89.7598L20.9486 89.5424C22.753 89.1913 25.0419 88.7565 27.2639 88.2047C29.2354 87.7198 31.14 87.1346 32.6102 86.449C33.4121 86.0811 34.164 85.6297 34.8657 85.0946C36.8037 83.6398 38.2572 81.6834 38.9255 79.5431C39.1761 78.7405 39.3098 77.9211 39.3432 77.0851C39.3599 76.7841 39.3432 76.4831 39.3265 76.1821C39.2429 74.9949 38.9756 73.8411 38.5245 72.7375C38.4243 72.4867 38.3073 72.2192 38.1737 71.9516L38.157 71.9015H38.3073L40.4124 71.8346H40.6129L55.6159 71.3998C55.6326 71.4667 55.6493 71.5336 55.666 71.6172L55.8331 72.2861C55.8832 72.4867 55.9334 72.7208 56.0002 72.9549C56.2341 73.8913 56.5181 75.0952 56.8188 76.3661L57.0193 77.1854C57.4036 78.8408 57.8046 80.5966 58.122 82.0847C58.6232 84.5093 58.9908 86.9506 59.1745 89.4254C59.375 91.7497 59.4084 94.0739 59.2748 96.3982C59.2247 97.2175 59.1578 98.0536 59.0576 98.8897C59.208 98.8395 59.3416 98.8061 59.492 98.7559L59.776 98.6556C60.0099 98.572 60.2438 98.5051 60.4944 98.4215C60.5779 97.5854 60.6448 96.7326 60.6782 95.9133C60.9288 89.6093 59.8929 83.9241 59.4251 81.7503Z" fill="#2D0106"/>
<g opacity="0.2">
<path d="M43.47 77.5699C42.7015 77.3693 42.0666 78.0047 41.8661 78.6401C41.6155 79.4594 41.7492 80.3791 42.4509 80.5463C43.1526 80.7135 43.8376 80.4627 44.1717 79.5598C44.5059 78.6735 44.2385 77.7706 43.47 77.5699Z" fill="#2D0106"/>
</g>
<g opacity="0.2">
<path d="M39.5438 87.0337C39.3099 87.3179 39.0593 87.9366 39.5438 88.6724C40.0283 89.3914 40.9973 89.5252 41.3314 89.0737C41.6823 88.6055 41.4985 87.8196 40.897 87.3179C40.3123 86.7829 39.7944 86.7327 39.5438 87.0337Z" fill="#2D0106"/>
</g>
<g opacity="0.2">
<path d="M27.4143 94.3914C27.3976 94.4918 27.3642 94.6088 27.3141 94.7092C26.9632 95.5118 26.1279 95.9967 25.2424 95.8964C25.1756 95.8796 25.1087 95.8796 25.0586 95.8629C24.7913 95.7793 24.5407 95.6455 24.3569 95.4282C23.8891 94.9265 23.7221 94.2075 23.9225 93.5554C24.0061 93.2711 24.123 93.0036 24.3068 92.7528C24.7412 92.1508 25.4429 91.6826 26.2782 91.8331C27.3308 92.017 27.6148 93.455 27.4143 94.3914Z" fill="#2D0106"/>
</g>
<path d="M24.3903 22.9579C22.1516 23.0248 19.7123 21.6369 18.9271 20.9179C18.1418 20.1989 15.9031 17.5569 16.4878 20.3326C17.0726 23.1084 18.2254 26.2018 21.0322 27.5228C23.839 28.8438 25.9441 29.8136 27.2639 32.3553L37.3049 26.8539C30.7891 22.0382 26.6291 22.891 24.3903 22.9579Z" fill="#FF9971"/>
<g opacity="0.4">
<path d="M16.822 19.1953L17.1562 20.1651C17.1562 20.1651 18.309 23.3088 22.1349 23.9442C25.9608 24.5963 28.6005 23.7101 31.0732 25.0478C33.5459 26.3855 33.8466 26.7032 33.8466 26.7032L35.651 25.6832C35.651 25.6832 30.8226 22.8071 27.147 22.8406C23.4715 22.874 20.4976 22.0881 18.6765 20.6333L16.822 19.1953Z" fill="white"/>
</g>
<g opacity="0.2">
<path d="M18.4595 22.54C18.9607 23.9279 19.7459 25.5833 22.4191 26.5532C25.0922 27.5063 26.7462 28.8105 28.0159 30.3656L30.3884 28.4761C30.3884 28.4761 29.1854 27.4227 26.2784 26.2522C23.4215 25.1151 20.6648 25.5332 18.4595 22.54Z" fill="#2D0106"/>
</g>
<path d="M38.4576 26.8377L38.3908 26.7876L37.7559 26.3194L37.7225 26.2859C37.5721 26.1856 37.4385 26.0853 37.2881 25.985L37.1712 25.9014C36.837 25.6673 36.5029 25.4499 36.1854 25.2325C30.9728 21.8715 27.3641 22.0889 25.1253 22.2227C24.858 22.2394 24.6074 22.2561 24.3902 22.2561C23.0369 22.2896 21.5667 21.7377 20.5309 21.1525C20.1299 20.9351 19.7623 20.6843 19.4115 20.3833C19.2945 20.283 19.1609 20.1325 18.9938 19.9653L18.6764 19.6476C17.8076 18.7948 16.989 18.0925 16.2538 18.4771C15.5187 18.8617 15.7526 19.9653 15.8529 20.4335C15.9531 20.8682 16.0534 21.2863 16.1536 21.6876C16.3708 22.4902 16.6548 23.2761 17.0057 24.0286C17.9079 26.0017 19.1609 27.3394 20.7815 28.0918L20.8817 28.142C23.1372 29.1955 24.858 30.0148 26.0776 31.6033C26.2447 31.8207 26.3951 32.0548 26.5287 32.2889C26.5621 32.3558 26.6123 32.4227 26.6457 32.4896C26.6624 32.523 26.6958 32.5732 26.7125 32.6233L27.0299 33.242L28.4166 32.4896L34.1472 29.3627L37.3717 27.6069L38.0399 27.2391L38.6414 26.9046L38.4576 26.8377ZM28.3832 30.9512L27.5312 31.4194C27.4476 31.2856 27.3641 31.1686 27.2806 31.0348C27.1469 30.8341 27.0132 30.6669 26.8629 30.483C26.5621 30.1151 26.2113 29.7807 25.8437 29.463C25.66 29.3125 25.4762 29.1787 25.2924 29.0282C24.1897 28.2256 22.8866 27.6069 21.4163 26.9214L21.3161 26.8712C20.8483 26.6538 20.4306 26.3863 20.0464 26.0518C19.8292 25.8679 19.6287 25.6673 19.4282 25.4499C18.8435 24.7476 18.3757 23.9617 18.0248 23.1256C17.7074 22.3564 17.4568 21.5538 17.273 20.7512C17.2229 20.5673 17.1894 20.3833 17.1393 20.1827V20.1659C17.273 20.283 17.4066 20.4168 17.5403 20.5338C17.7074 20.701 17.8744 20.8515 17.9747 20.9686C18.1585 21.1525 18.3088 21.303 18.4425 21.42C18.7098 21.6541 19.0105 21.8715 19.3112 22.0722C19.8125 22.3899 20.3471 22.6741 20.9151 22.9082C21.149 23.0086 21.3996 23.1089 21.6502 23.1925C22.5357 23.5102 23.4713 23.6607 24.4069 23.6607C24.6408 23.6607 24.9081 23.644 25.1922 23.6273L25.3258 23.6105C25.6934 23.5938 26.0943 23.5604 26.5454 23.5604C28.4166 23.5437 30.9728 23.8279 34.3143 25.7341C34.5314 25.8512 34.7486 25.985 34.9658 26.1187L35.0828 26.1856L35.2164 26.2692C35.4336 26.403 35.6508 26.5368 35.868 26.6873L36.0184 26.7876L28.3832 30.9679V30.9512Z" fill="#2D0106"/>
<path d="M36.9709 18.7441C33.6128 18.2759 30.6556 15.6339 30.3215 15.1824C29.9873 14.731 28.4837 13.5939 29.0685 16.0352C30.522 21.1854 34.2978 22.6402 36.1857 23.61C38.7586 24.931 38.6918 27.6231 38.6918 27.6231L50.6875 25.3156C46.6611 19.3962 40.3291 19.1956 36.9709 18.7441Z" fill="#FF9971"/>
<g opacity="0.4">
<path d="M29.4192 14.7314C29.4192 14.7314 29.9705 16.6377 30.0039 16.7046C31.1901 17.5908 32.2427 18.8114 35.818 19.6475C39.3933 20.4836 41.8326 20.5337 44.4055 21.838C46.9951 23.159 47.4295 23.878 47.4295 23.878L49.0334 23.6272C49.0334 23.6272 46.4103 20.8849 43.0021 19.9485C39.6105 19.0121 36.6701 19.0455 34.6819 18.1259C32.7105 17.1895 29.4192 14.7314 29.4192 14.7314Z" fill="white"/>
</g>
<g opacity="0.2">
<path d="M31.0732 17.791C31.9587 19.3795 33.2953 20.6671 34.9159 21.4864C37.0544 22.59 39.5103 23.4261 39.8111 26.252C40.2622 26.1015 42.4675 24.2454 42.4675 24.2454C42.4675 24.2454 41.5319 22.4061 37.3217 21.3359C33.0948 20.2825 31.0732 17.791 31.0732 17.791Z" fill="#2D0106"/>
</g>
<path d="M51.79 25.7509L51.2387 24.9483C51.105 24.7476 50.9881 24.5637 50.8377 24.3965C50.5704 24.0453 50.3031 23.7109 50.0191 23.3932C46.26 19.1794 41.2144 18.5774 38.0568 18.1929C37.7059 18.1427 37.3551 18.1092 37.0543 18.0591C34.7154 17.7414 32.51 16.2365 31.4575 15.3502C31.2403 15.183 31.0398 14.9824 30.856 14.7817C30.5553 14.3637 29.6364 13.561 28.8511 13.9289C27.9323 14.3469 28.2497 15.7014 28.3833 16.203V16.2197C28.4168 16.3201 28.4502 16.4371 28.4836 16.5374C29.9538 21.303 33.3287 22.9751 35.3502 23.9784C35.534 24.062 35.6844 24.1456 35.8514 24.2292C36.5865 24.5971 37.188 25.1991 37.5556 25.9348C37.5723 25.9683 37.589 25.985 37.589 26.0184C37.6391 26.1187 37.6725 26.2191 37.7226 26.3194C37.7728 26.4365 37.8062 26.5535 37.8396 26.6873C37.873 26.7876 37.8897 26.9047 37.9064 26.9883C37.9231 27.0719 37.9398 27.1722 37.9565 27.2558C37.9732 27.3729 37.9732 27.4899 37.9899 27.6237V27.7909V27.9079V27.9915L37.9732 28.4597L40.8302 27.9079L44.3888 27.2224L46.5273 26.8043L47.914 26.5368H47.9474L49.6181 26.2191L51.6397 25.8345L51.8067 25.801L51.79 25.7509ZM38.9088 25.5502C38.4243 24.4466 37.5723 23.5604 36.503 23.0253C36.3359 22.9417 36.1689 22.8581 35.9851 22.7745L35.8849 22.7243C35.6844 22.624 35.4672 22.5237 35.25 22.4066C34.2308 21.905 33.2952 21.2696 32.4599 20.5004C32.2928 20.3499 32.1425 20.1994 31.9921 20.0155C31.1233 19.0624 30.4383 17.9253 30.0039 16.7047V16.6879C30.0039 16.6879 30.0039 16.6879 30.0039 16.6712C29.9204 16.4538 29.8536 16.2365 29.7867 16.0024C29.77 15.9522 29.7533 15.9188 29.7533 15.8686C29.7366 15.7683 29.7032 15.6847 29.7032 15.601C29.6865 15.5509 29.6865 15.5007 29.6865 15.4673C29.7366 15.5007 29.77 15.5509 29.8035 15.601C29.887 15.7181 29.9872 15.8184 30.0875 15.9188C31.0231 16.805 32.0923 17.5742 33.2451 18.1761L33.2618 18.1929C34.3478 18.7781 35.6008 19.263 36.9207 19.4469L37.2214 19.4804C37.4553 19.5138 37.6892 19.5473 37.9565 19.564L38.3074 19.6142C39.9781 19.8148 41.9997 20.0991 44.0379 20.885C44.4389 21.0355 44.8232 21.2027 45.2241 21.4033C46.1931 21.8715 47.0786 22.4735 47.8973 23.1591C48.0978 23.343 48.315 23.5269 48.5154 23.7276L48.6658 23.8781C48.8997 24.1122 49.1336 24.363 49.3508 24.6473C49.4176 24.7309 49.4844 24.8145 49.5513 24.8981L46.5273 25.4833H46.5106L41.4316 26.4699L40.5796 26.6371H40.5628L40.4626 26.6538L39.9948 26.7374L39.9614 26.7542L39.3599 26.8712C39.3432 26.7709 39.3265 26.6538 39.2931 26.5368V26.5033V26.4532L39.2764 26.403C39.126 26.102 39.0258 25.8178 38.9088 25.5502Z" fill="#2D0106"/>
<path d="M24.9751 29.8138L25.6267 29.9978C25.8773 29.145 26.6959 27.8575 27.8988 26.7204C28.6674 25.9847 30.5219 24.5801 30.5219 24.5801C30.5219 24.5801 28.4669 25.0984 27.2473 26.386C26.1446 27.5899 25.2591 28.8106 24.9751 29.8138Z" fill="#2D0106"/>
<path d="M23.3545 25.9345C23.3545 25.9345 25.61 23.7105 27.431 23.1922L27.2305 22.54C25.6434 23.025 23.7388 24.8476 23.3545 25.9345Z" fill="#2D0106"/>
<path d="M19.3782 26.7372L20.0464 26.6201C20.0464 26.6034 19.6956 24.3795 22.1181 22.8411L21.7506 22.2559C18.9605 24.045 19.3615 26.6201 19.3782 26.7372Z" fill="#2D0106"/>
<path d="M39.3933 23.8273C40.379 23.1083 41.4316 22.4896 42.551 22.0214C43.6202 21.5699 44.773 21.3358 45.9258 21.3526V20.667C44.6728 20.667 43.4364 20.9178 42.2836 21.4027C41.0807 21.8709 40.0783 22.7237 39.3933 23.8273Z" fill="#2D0106"/>
<path d="M35.1665 23.2762L35.8515 23.2929C35.9183 20.2162 38.8421 19.3467 38.959 19.3133L38.7752 18.6611C38.7251 18.6611 35.2333 19.6811 35.1665 23.2762Z" fill="#2D0106"/>
<path d="M31.7749 21.1684L32.4432 21.0012C32.3931 19.6468 33.2618 18.1084 33.2618 18.1084C33.2618 18.1084 31.7749 19.3959 31.7749 21.1684Z" fill="#2D0106"/>
<path d="M47.0286 23.844C43.069 24.0614 40.5295 25.9676 39.4102 27.2385H53.2604C52.3081 24.9811 50.9882 23.6434 47.0286 23.844Z" fill="#F7941E"/>
<g opacity="0.4">
<path d="M47.0286 23.844C43.069 24.0614 40.5295 25.9676 39.4102 27.2385H53.2604C52.3081 24.9811 50.9882 23.6434 47.0286 23.844Z" fill="white"/>
</g>
<path d="M40.5294 26.5862L40.6296 26.5695L40.8468 26.536L41.3146 26.4691L41.3814 26.419L40.5294 26.5862ZM40.5294 26.5862L40.6296 26.5695L40.8468 26.536L41.3146 26.4691L41.3814 26.419L40.5294 26.5862ZM40.5294 26.5862L40.6296 26.5695L40.8468 26.536L41.3146 26.4691L41.3814 26.419L40.5294 26.5862ZM40.5294 26.5862L40.6296 26.5695L40.8468 26.536L41.3146 26.4691L41.3814 26.419L40.5294 26.5862ZM40.5294 26.5862L40.6296 26.5695L40.8468 26.536L41.3146 26.4691L41.3814 26.419L40.5294 26.5862ZM40.5294 26.5862L40.6296 26.5695L40.8468 26.536L41.3146 26.4691L41.3814 26.419L40.5294 26.5862ZM40.5294 26.5862L40.6296 26.5695L40.8468 26.536L41.3146 26.4691L41.3814 26.419L40.5294 26.5862ZM40.5294 26.5862L40.6296 26.5695L40.8468 26.536L41.3146 26.4691L41.3814 26.419L40.5294 26.5862ZM40.5294 26.5862L40.6296 26.5695L40.8468 26.536L41.3146 26.4691L41.3814 26.419L40.5294 26.5862ZM54.1457 27.556L54.0454 27.3052L53.8951 26.9708C53.8617 26.9039 53.845 26.8537 53.8115 26.7868C53.6946 26.5193 53.5609 26.2518 53.4273 26.0177C52.7089 24.7468 51.7232 23.8272 50.019 23.3924C49.6515 23.3088 49.2672 23.2419 48.8829 23.2085C48.7827 23.1918 48.6657 23.1918 48.5488 23.175C48.3149 23.1583 48.0643 23.1583 47.8137 23.1416C47.5631 23.1416 47.2623 23.1416 46.9783 23.1583C46.8781 23.1583 46.7611 23.175 46.6609 23.175C45.2074 23.2754 43.7706 23.6265 42.4507 24.2285C41.4817 24.6632 40.5962 25.2318 39.7776 25.9173C39.7608 25.9341 39.7608 25.9341 39.7441 25.9508C39.5437 26.118 39.3766 26.2852 39.2262 26.419C39.2095 26.4357 39.2095 26.4357 39.1928 26.4524L39.1761 26.4691C39.0591 26.5862 38.9589 26.6865 38.8921 26.7701L38.7417 26.9373L38.6415 27.0544L37.9899 27.7734L37.8896 27.8905H54.3128L54.1457 27.556ZM41.1977 26.5528C41.2144 26.5528 41.2144 26.536 41.2311 26.536C41.2478 26.536 41.2812 26.5026 41.2979 26.4859L41.3647 26.4357C41.7991 26.1347 42.2502 25.8672 42.718 25.6331C44.0713 24.9809 45.5582 24.5964 47.0619 24.5295C47.797 24.4793 48.5488 24.5127 49.2839 24.6131C49.6682 24.6632 50.0357 24.7803 50.3866 24.9141C50.821 25.098 51.2219 25.3655 51.5561 25.7167C51.5895 25.7501 51.6229 25.8003 51.6563 25.8337C51.8401 26.0344 51.9905 26.2518 52.1241 26.4859L52.1575 26.536L41.1977 26.5528ZM40.5294 26.5862L40.6296 26.5695L40.8468 26.536L41.3146 26.4691L41.3814 26.419L40.5294 26.5862ZM40.5294 26.5862L40.6296 26.5695L40.8468 26.536L41.3146 26.4691L41.3814 26.419L40.5294 26.5862ZM40.5294 26.5862L40.6296 26.5695L40.8468 26.536L41.3146 26.4691L41.3814 26.419L40.5294 26.5862ZM40.5294 26.5862L40.6296 26.5695L40.8468 26.536L41.3146 26.4691L41.3814 26.419L40.5294 26.5862ZM40.5294 26.5862L40.6296 26.5695L40.8468 26.536L41.3146 26.4691L41.3814 26.419L40.5294 26.5862ZM40.5294 26.5862L40.6296 26.5695L40.8468 26.536L41.3146 26.4691L41.3814 26.419L40.5294 26.5862ZM40.5294 26.5862L40.6296 26.5695L40.8468 26.536L41.3146 26.4691L41.3814 26.419L40.5294 26.5862ZM40.5294 26.5862L40.6296 26.5695L40.8468 26.536L41.3146 26.4691L41.3814 26.419L40.5294 26.5862ZM40.5294 26.5862L40.6296 26.5695L40.8468 26.536L41.3146 26.4691L41.3814 26.419L40.5294 26.5862Z" fill="#2D0106"/>
<path d="M5.56152 36.2179C7.33248 37.9569 12.1608 43.3746 7.49955 49.3274C7.54967 49.829 8.06759 50.6484 8.06759 50.6484C9.75501 51.4008 11.2921 52.4375 12.6453 53.6916C14.8841 55.7985 15.1013 60.9821 15.1013 60.9821C15.1013 60.9821 17.2064 60.7313 18.4761 60.7647C19.7459 60.7982 21.734 61.9352 23.4883 63.9752C23.1374 62.4369 19.0943 52.1031 24.2735 39.8965C24.3905 39.6457 10.9078 34.0441 5.56152 36.2179Z" fill="#FF9971"/>
<g opacity="0.2">
<path d="M8.60205 36.6191C8.60205 36.6191 13.3469 42.505 10.2059 47.6552C9.68801 48.3909 10.6403 50.0129 10.6403 50.0129C10.6403 50.0129 15.5188 51.869 16.2539 57.5542C16.2539 58.3234 17.791 59.2598 17.791 59.2598C17.791 59.2598 19.5619 58.8752 20.9653 60.5473C20.3639 58.6746 18.3924 47.8559 22.0179 40.9667C19.7958 39.7627 8.60205 36.6191 8.60205 36.6191Z" fill="#2D0106"/>
</g>
<path d="M24.7579 39.3948C24.6744 39.3112 24.3569 39.144 23.8557 38.8932C23.6719 38.8096 23.4547 38.7093 23.2208 38.6089C23.0204 38.5253 22.8032 38.425 22.5693 38.3414C20.3806 37.4552 18.1419 36.7194 15.853 36.1175C13.2801 35.4486 10.5736 34.9637 8.28468 35.0306C7.51615 35.0473 6.74762 35.1476 6.01251 35.3316C5.81202 35.3817 5.62825 35.4486 5.44447 35.5155H5.42776L5.2941 35.5657L4.45875 35.9168L4.3418 35.967L4.92655 36.5522L5.07691 36.7027L5.24398 36.8699C5.72849 37.3548 6.17958 37.8732 6.59726 38.425C8.46846 40.883 9.93868 44.4447 7.43262 48.2404C7.28225 48.4578 7.13189 48.6752 6.96482 48.8925L6.79774 49.1099L6.81445 49.3775C6.81445 49.4276 6.83116 49.4611 6.83116 49.5112C6.91469 49.9125 7.08177 50.3139 7.28225 50.6817C7.36579 50.8489 7.44932 50.966 7.48274 51.0162L7.59969 51.2001L7.80017 51.2837C7.80017 51.2837 7.867 51.3004 7.96724 51.3506C9.5043 52.0696 10.9244 53.0394 12.1607 54.1932C13.6644 55.6145 14.1656 58.6912 14.3327 60.1794C14.3828 60.6811 14.3995 60.9988 14.3995 61.0155L14.4329 61.7512L15.168 61.6509C15.1847 61.6509 15.6525 61.584 16.2874 61.5339C17.0058 61.467 17.7242 61.4335 18.4426 61.4335C19.161 61.4503 20.3305 61.9686 21.5835 63.0221C22.0848 63.4401 22.5359 63.9083 22.9535 64.3932L24.7412 66.4834L24.7746 66.5168V66.5001L24.524 65.363L24.24 64.1424L24.1564 63.7745C24.123 63.6073 24.0395 63.3565 23.9393 63.0221C23.8223 62.6375 23.6886 62.1525 23.5216 61.584C22.9201 59.3935 22.5526 57.1696 22.3855 54.9122C22.0681 50.2971 22.753 45.6486 24.4071 41.3178C24.5574 40.9165 24.7245 40.5152 24.8916 40.1139C25.0252 39.8965 24.9584 39.5955 24.7579 39.3948ZM22.7698 41.9365C22.6194 42.3712 22.4857 42.806 22.3521 43.2407C22.0514 44.2775 21.784 45.3142 21.5835 46.3676C21.3831 47.3876 21.2327 48.4244 21.1325 49.4611C21.1158 49.5948 21.099 49.7453 21.099 49.8791V49.8958C21.0489 50.5145 21.0155 51.1165 20.9988 51.7352C20.9654 52.705 20.9821 53.6748 21.0322 54.6614C21.0823 55.4807 21.1492 56.2499 21.2327 56.9857C21.3998 58.2899 21.617 59.4604 21.8342 60.4637C21.9344 60.9152 22.0346 61.3332 22.1349 61.7178C21.8843 61.5171 21.6337 61.3332 21.3831 61.1827C21.0656 60.9821 20.7315 60.7814 20.3973 60.6142C19.8126 60.3132 19.161 60.1293 18.4927 60.0791C18.3925 60.0791 18.2755 60.0791 18.1586 60.0791C18.0082 60.0791 17.8412 60.0791 17.6741 60.0791C17.3399 60.0958 16.9891 60.1125 16.6549 60.1293C16.3208 60.1627 15.97 60.1794 15.7026 60.2129C15.6692 59.9119 15.6358 59.544 15.569 59.1427C15.5189 58.825 15.452 58.4739 15.3852 58.106C15.0344 56.4171 14.3661 54.3771 13.0796 53.1732C12.1273 52.287 11.0748 51.5011 9.95539 50.8322C9.63795 50.6483 9.35393 50.4978 9.12003 50.364C8.88613 50.247 8.66894 50.1299 8.51858 50.0798C8.46846 50.0129 8.43504 49.9293 8.40163 49.8624C8.3348 49.7286 8.28468 49.6116 8.21785 49.4778C8.25126 49.4276 8.30138 49.3607 8.3348 49.3106C8.5687 48.9929 8.78589 48.6417 8.98638 48.3073C9.15345 48.023 9.28711 47.7221 9.42076 47.4211C10.8409 44.0935 10.089 40.465 7.23213 37.0371L7.18201 36.987C7.06506 36.8365 6.9314 36.7027 6.81445 36.5522C7.04835 36.5021 7.28225 36.4686 7.53286 36.4519C7.69993 36.4352 7.88371 36.4184 8.06749 36.4017C10.089 36.3014 12.6118 36.7194 15.0344 37.3214H15.0511C17.3566 37.9066 19.6121 38.6424 21.8342 39.5119C22.0681 39.5955 22.2852 39.6791 22.4857 39.7627C22.7196 39.863 22.9368 39.9466 23.1206 40.0303C23.2376 40.0804 23.3378 40.1306 23.438 40.164C23.3211 40.4483 23.2208 40.7158 23.1206 41.0001C23.0371 41.2342 22.9535 41.4683 22.87 41.7024L22.7698 41.9365Z" fill="#2D0106"/>
<path d="M6.68079 50.3143C6.81445 50.7992 7.81688 50.8493 9.40406 50.3143C10.9912 49.7792 17.9247 48.7759 20.7315 48.7759L20.9654 45.4316C15.9532 46.1507 13.3469 46.8362 9.92197 47.9733C6.49701 49.1103 6.54714 49.8293 6.68079 50.3143Z" fill="#123854"/>
<path d="M21.2996 44.6959L20.8652 44.7628L20.7316 44.7795L20.5979 44.7962H20.5812L19.8795 44.8966C15.7696 45.532 13.3136 46.1507 10.5235 47.0536C10.2562 47.1372 9.98889 47.2375 9.70487 47.3212L9.45426 47.4048C9.12012 47.5218 8.81939 47.6221 8.55208 47.7392C8.18452 47.8897 7.81696 48.0402 7.46611 48.2241C6.19637 48.893 5.7954 49.5785 6.0293 50.4648C6.11284 50.7657 6.31332 51.0166 6.59734 51.1503C6.89807 51.3008 7.21551 51.3677 7.54965 51.351C7.70001 51.351 7.85038 51.3343 8.00074 51.3176C8.3683 51.2674 8.73586 51.2005 9.08671 51.1002C9.25378 51.05 9.43755 50.9998 9.62133 50.933C9.72158 50.8995 9.83853 50.8661 9.98889 50.8326C10.3899 50.7323 10.9579 50.6153 11.6262 50.4982C13.7313 50.1136 16.8889 49.6789 19.1444 49.5116C19.3783 49.4949 19.6122 49.4782 19.8294 49.4615H19.8795H19.9463C20.1468 49.4448 20.3306 49.4448 20.5144 49.4448H21.3497L21.5335 46.9867L21.5836 46.3513L21.7173 44.6123L21.2996 44.6959ZM19.2948 48.1572C16.6049 48.3412 12.5117 48.9097 10.323 49.3779C9.93877 49.4615 9.5545 49.5451 9.17024 49.6621C8.88622 49.7625 8.63561 49.8294 8.41842 49.8795C8.18452 49.9297 7.95062 49.9798 7.71672 49.9966C7.58306 50.0133 7.46611 50.0133 7.33246 49.9966C7.39929 49.8962 7.49953 49.8126 7.59977 49.7457C7.83367 49.5785 8.08428 49.4448 8.35159 49.3277C8.91964 49.0769 9.50438 48.8428 10.0891 48.6589L10.1225 48.6421C13.0797 47.6556 15.4688 47.0035 19.5621 46.3513C19.7793 46.3179 19.9798 46.2844 20.2137 46.251L20.1802 46.7694L20.1301 47.4549L20.0967 47.99V48.1071H20.0633H19.9965C19.7793 48.1238 19.5454 48.1405 19.2948 48.1572Z" fill="#2D0106"/>
<path d="M15.402 59.544C14.1991 61.8683 15.2517 61.7345 15.8698 61.0322C16.488 60.3299 19.2113 57.5208 20.7483 56.5008L20.4977 53.123C18.8938 54.5444 16.6049 57.2198 15.402 59.544Z" fill="#123854"/>
<path d="M21.0322 51.7021L20.9821 51.7356L20.9654 51.7523L20.3973 52.2539L19.9964 52.6051L19.9128 52.7054C19.846 52.7556 19.7959 52.8058 19.729 52.8726L19.6622 52.9395C19.4617 53.1235 19.2612 53.3241 19.0608 53.5248C18.0082 54.6117 17.0392 55.7654 16.1704 57.0028C15.9031 57.3707 15.6525 57.7553 15.4186 58.1399C15.2348 58.4408 15.0511 58.7418 14.884 59.0428L14.7837 59.2435C14.6167 59.5444 14.4663 59.8789 14.3494 60.1966C14.1155 60.8654 13.9985 61.6346 14.5833 62.0192C14.7336 62.1195 14.9341 62.1864 15.1179 62.1864C15.5021 62.1864 15.9365 61.969 16.3208 61.5677L16.3876 61.5008C16.5213 61.3503 16.7385 61.1162 17.0058 60.832C17.2063 60.6146 17.4569 60.3638 17.7075 60.113C17.9748 59.8454 18.2755 59.5444 18.5763 59.2602C18.9438 58.909 19.3114 58.5579 19.6789 58.2402C19.8794 58.0562 20.0799 57.889 20.2637 57.7385L20.2804 57.7218L20.3639 57.6549C20.5477 57.5044 20.7148 57.3707 20.8818 57.2536C20.9487 57.2035 21.0322 57.1533 21.099 57.1031L21.1324 57.0864L21.2327 57.0195L21.4332 56.8858L21.0322 51.7021ZM20.0131 56.1835L19.9295 56.2503C19.7625 56.3841 19.5787 56.5346 19.3782 56.6851C18.6431 57.2871 17.8244 58.0562 17.106 58.7753C16.6883 59.1933 16.3041 59.5779 15.9867 59.8956C15.9867 59.8789 16.0034 59.8789 16.0034 59.8621C16.2373 59.4107 16.5046 58.9592 16.8053 58.491C17.5237 57.4041 18.3256 56.3507 19.2111 55.3808C19.3949 55.1802 19.562 54.9795 19.7458 54.7956L19.846 54.6953L19.9128 54.6284L20.0131 56.1835Z" fill="#2D0106"/>
<path d="M73.4258 42.405C71.5379 41.5522 69.5665 40.8833 67.5449 40.4319C67.5449 40.4319 67.2943 37.1378 65.7071 33.9607C64.1199 30.8004 59.0243 27.8073 53.7114 26.7538C48.3985 25.7004 42.4675 26.1853 39.8111 26.7037C38.1404 25.7004 36.1021 25.6168 34.3478 26.4529C32.3764 27.3725 28.6006 29.7135 27.3308 30.9843C26.0611 32.2552 26.1781 34.0109 26.5456 34.5961C25.0587 36.1011 23.7388 37.7565 22.6361 39.5624C19.3783 44.746 17.9916 58.1899 23.2877 64.1761C28.5839 70.1624 39.1261 72.6037 44.1382 72.7876H48.5489C52.9596 72.7876 57.5373 72.1522 60.6114 71.2325C63.6688 70.3129 66.1749 68.7243 67.1606 68.4902C68.1464 68.2561 71.7718 67.4368 73.1585 66.7679C74.5452 66.1158 74.896 64.1594 74.896 64.1594C77.6694 63.7247 78.4547 61.7014 79.29 58.8922C80.1254 56.0663 80.0752 51.7355 79.29 49.0935C78.4714 46.4515 76.667 43.8597 73.4258 42.405Z" fill="#1B597F"/>
<g opacity="0.4">
<path d="M33.6962 55.815C33.6962 55.815 33.4957 56.5674 33.9969 57.4704C32.9945 56.7681 32.226 55.4805 32.7606 53.9589C33.2952 52.4373 35.133 51.1664 37.0209 52.4373C35.5841 52.4205 33.7463 53.5409 33.6962 55.815Z" fill="white"/>
</g>
<g opacity="0.4">
<path d="M60.7954 37.5889L59.9266 35.9502C59.8932 37.2712 59.9767 39.3279 63.3181 40.9164C66.6596 42.505 68.1799 41.7358 71.6216 43.2741C75.0465 44.8125 76.3497 46.5515 77.302 48.6082C78.2543 50.665 79.2902 54.0427 78.6219 58.6912C79.6243 57.4872 80.4596 51.6515 79.2734 49.0931C78.0872 46.5348 76.901 44.9295 75.1635 43.6754C73.4427 42.4213 70.3184 41.1672 66.9937 40.3479C63.669 39.5286 60.7954 37.5889 60.7954 37.5889Z" fill="white"/>
</g>
<g opacity="0.4">
<path d="M28.2499 33.2246C28.2499 33.2246 27.8489 32.121 30.6724 30.3652C33.4959 28.6095 36.0855 26.9541 37.3385 27.6397C36.6536 28.041 33.8468 29.6128 33.8468 29.6128C33.8468 29.6128 39.2766 27.9741 47.3962 28.2082C55.4992 28.4423 62.299 30.8334 64.521 35.3482C65.891 36.0839 66.5426 35.9334 66.5426 35.9334C66.5426 35.9334 64.5879 29.8134 56.9861 27.9239C49.3844 26.0344 41.4986 26.302 39.8112 26.7033C38.3577 26.2016 36.7872 24.9308 32.1259 27.6229C27.4479 30.3151 26.3118 31.2347 26.5959 33.8767C27.1639 33.7429 27.7319 33.5256 28.2499 33.2246Z" fill="white"/>
</g>
<g opacity="0.4">
<path d="M5.56142 34.3951C5.56142 34.3951 4.65923 35.0807 4.94325 35.4318C6.84787 35.181 14.6668 35.181 26.2783 38.4249L26.0945 37.7561C26.0945 37.7561 28.1829 34.2613 30.6722 31.4521C29.0015 32.6059 24.5908 37.1374 24.5908 37.1374C24.5908 37.1374 15.7361 33.2413 5.56142 34.3951Z" fill="white"/>
</g>
<g opacity="0.4">
<path d="M20.3307 57.922L21.4167 59.2597C21.4167 59.2597 19.746 49.5948 22.7532 43.4079L21.283 42.7725C21.283 42.7892 18.4094 51.8521 20.3307 57.922Z" fill="white"/>
</g>
<g opacity="0.2">
<path d="M21.6837 51.7021C21.4498 56.869 22.1682 62.0192 27.4978 66.0323C32.8274 70.0454 44.1381 72.7877 44.1381 72.7877L37.3383 71.7176L38.2906 76.3661C41.1308 75.7976 44.0211 75.5467 46.9115 75.6471C52.1909 75.8143 57.036 76.3661 57.036 76.3661L55.9333 72.353C55.9333 72.353 60.1769 71.751 62.4157 70.5972C64.6544 69.4435 72.44 67.069 72.44 67.069L73.125 67.3867C73.125 67.3867 75.063 66.233 74.8792 64.1762L71.3707 63.9087C71.3707 63.9087 77.3686 65.5641 78.3543 55.732C77.6526 56.9526 75.0797 59.9123 68.6976 60.5812C63.4348 61.133 58.5898 59.8287 55.3152 58.0061C52.0406 56.1835 50.2529 56.4343 45.1405 56.9526C40.0449 57.471 34.1974 54.1267 37.0042 52.4546C37.0042 52.4546 34.4313 52.2874 33.9802 54.1267C33.7129 55.2303 33.7129 56.3841 33.9802 57.4877C33.9802 57.4877 34.3978 54.829 36.0686 56.3005C37.7393 57.772 44.4388 58.19 44.4388 58.19L49.6013 58.7585C49.6013 58.7585 50.8209 58.7585 51.0381 59.2769C51.2553 59.7953 52.7423 60.6648 54.5299 61.133C56.3176 61.6012 57.6207 62.2031 57.3367 62.7215L58.4227 66.5674C58.4227 66.5674 53.0764 68.5238 45.458 68.5907C37.8395 68.6576 30.338 66.2497 26.2114 61.4005C22.1515 56.5513 21.8842 53.1067 21.6837 51.7021Z" fill="#2D0106"/>
</g>
<path d="M73.7099 41.7865C71.9222 40.9838 70.0677 40.3484 68.1798 39.8802C68.0462 38.8101 67.5951 36.2183 66.3253 33.6766C64.6546 30.3491 59.5255 27.2222 53.8618 26.1019C48.3652 25.015 42.5177 25.5334 39.9448 26.0015C38.1237 24.9983 35.9351 24.9481 34.0639 25.8343C32.1258 26.7373 28.2498 29.095 26.8464 30.4996C25.6268 31.7202 25.443 33.3924 25.7437 34.4291C24.357 35.8838 23.1207 37.4724 22.0514 39.1947C18.8771 44.2612 17.0393 58.1734 22.7865 64.6278C26.3786 68.6743 32.2428 71.1658 37.3552 72.4366C40.613 73.3563 44.155 72.7878 44.155 72.7878C44.155 72.7878 39.8445 71.6674 36.9208 70.8815C32.3263 69.6442 27.0636 67.3868 23.8057 63.7248C18.8771 58.1734 19.9296 45.1642 23.2209 39.9304C24.3069 38.1747 25.5766 36.5527 27.0302 35.0979L27.4144 34.7134L27.1304 34.2452C26.9466 33.9442 26.7963 32.5229 27.8321 31.4861C28.9849 30.3156 32.6605 28.0248 34.6653 27.0884C36.2024 26.3527 38.0067 26.4363 39.477 27.3225L39.7109 27.4563L39.9615 27.4061C42.6513 26.8711 48.5155 26.4363 53.5945 27.4563C58.8071 28.493 63.6355 31.3691 65.1057 34.2953C66.6093 37.2884 66.8767 40.4655 66.8767 40.4989L66.9101 41.0173L67.4113 41.1176C69.3827 41.5691 71.304 42.2212 73.1585 43.0573C76.5835 44.5789 78.0203 47.3045 78.6218 49.3111C79.3903 51.8861 79.3903 56.1166 78.6218 58.7252C77.8198 61.4507 77.2017 63.173 74.8292 63.5576L73.8101 63.7583L74.2111 64.076C74.2111 64.0927 73.8937 65.6812 72.8578 66.1829C71.6048 66.7681 68.28 67.554 67.1774 67.8048L67.0103 67.8383C66.5425 67.9553 65.9076 68.2563 65.0222 68.6911C63.836 69.2596 62.1987 70.0455 60.411 70.5973C58.757 71.0655 57.0696 71.4333 55.3654 71.6507C53.1768 71.9517 48.5489 72.8212 48.5489 72.8212C48.5489 72.8212 53.2771 73.3396 55.5325 73.0219C57.3202 72.7878 59.0744 72.4199 60.812 71.9183C62.6999 71.3497 64.3873 70.5304 65.6236 69.9452C66.3587 69.5773 67.0103 69.2763 67.3277 69.1927L67.4948 69.1593C69.4663 68.7078 72.2229 68.0222 73.4593 67.437C74.6956 66.8517 75.2469 65.514 75.4474 64.795C78.2375 64.1596 79.1063 61.9356 79.9416 59.1265C80.7937 56.2504 80.7937 51.7691 79.9416 48.9265C78.9893 45.716 76.7171 43.1242 73.7099 41.7865Z" fill="#2D0106"/>
<path d="M62.0983 63.2565C60.5612 62.8719 59.0743 62.3033 57.6542 61.5676C57.1362 61.3001 56.6016 61.0492 56.067 60.8653L56.0002 60.8486H55.9333C53.2268 60.5643 51.5561 58.5912 51.4892 58.5076C50.9713 57.8722 50.3532 57.521 48.7827 57.6046C48.2313 57.6381 47.7468 57.6548 47.3125 57.6883C45.7587 57.8053 44.2049 57.8387 42.6512 57.7719C39.9446 57.6883 35.7845 55.7486 34.7153 53.4912L33.6794 53.9761C35.0494 56.8522 39.8778 58.8253 42.601 58.9256C44.1882 58.9758 45.7921 58.9591 47.3793 58.842C47.8137 58.8086 48.2982 58.7919 48.8495 58.7584C50.1527 58.6915 50.3699 58.9591 50.6038 59.2433C50.8042 59.4942 52.6587 61.6345 55.7496 62.0024C56.2174 62.1863 56.6852 62.3869 57.1362 62.6378C58.6065 63.4237 60.1769 64.0089 61.7975 64.4102C63.769 64.9119 66.6426 65.1292 69.3157 65.1292C71.5211 65.1292 73.5928 64.9955 74.9293 64.7781L74.7456 63.641C71.9722 64.0424 65.4898 64.1427 62.0983 63.2565Z" fill="#2D0106"/>
<path d="M26.2783 34.1776L27.0803 34.9969C28.634 33.4586 30.6723 31.4688 30.6723 31.4688C30.6723 31.4688 27.9156 32.5724 26.2783 34.1776Z" fill="#2D0106"/>
<path d="M33.8468 53.4907C32.4601 55.9655 34.0139 57.4704 34.0139 57.4704C33.7967 56.5173 33.9136 55.0793 34.6153 53.9924C35.1499 53.173 35.9686 52.638 37.0378 52.4373C37.0211 52.4373 34.9327 51.5678 33.8468 53.4907Z" fill="#2D0106"/>
<path d="M33.8298 29.6129C33.8298 29.6129 36.1521 28.4759 40.0282 27.3723L39.7943 26.252C36.0185 27.5228 33.8298 29.6129 33.8298 29.6129Z" fill="#2D0106"/>
<path d="M59.9263 35.9502C59.9263 35.9502 60.1268 38.7427 62.6495 39.863C64.5541 40.6991 67.1437 41.0669 67.4278 41.1004L67.6617 39.7459C66.6759 39.5787 64.621 39.144 63.134 38.5754C61.6471 38.0069 60.3607 36.6859 59.9263 35.9502Z" fill="#2D0106"/>
<path d="M73.3088 38.7765C72.841 39.1109 71.5546 40.064 71.07 40.4319C70.1512 41.1174 69.6833 41.5522 69.6833 42.0538C69.6833 42.5555 70.2514 43.726 71.5211 44.4283C72.7742 45.1138 74.4449 44.8296 74.9461 44.1273C75.4473 43.425 74.9461 41.385 74.5785 39.8132C74.2277 38.2246 73.7599 38.4587 73.3088 38.7765Z" fill="#FF9971"/>
<g opacity="0.4">
<path d="M70.1512 42.7559L73.7098 39.4785L74.495 43.9933L75.0798 43.1572L73.9604 38.6592L69.6833 42.0536L70.1512 42.7559Z" fill="white"/>
</g>
<g opacity="0.2">
<path d="M70.9365 43.6252C70.9365 43.6252 72.791 41.9698 73.6264 39.6455C73.593 40.7826 73.2922 43.157 72.7075 44.478C72.1896 44.478 70.9365 43.6252 70.9365 43.6252Z" fill="#2D0106"/>
</g>
<path d="M75.7315 42.9404C75.6981 42.121 75.4809 41.0676 75.1969 39.8469L75.1635 39.663C74.9463 38.6932 74.6456 38.1915 74.1778 38.0243C73.6598 37.8237 73.2088 38.1581 72.9916 38.3086C72.624 38.5761 71.7218 39.245 71.1204 39.6797L70.7528 39.964C70.5356 40.1145 70.3518 40.265 70.1681 40.4155C69.9676 40.5827 69.7671 40.7666 69.6 40.9505C69.5833 40.984 69.5499 41.0007 69.5332 41.0341C69.3995 41.1846 69.2993 41.3686 69.2325 41.5525C69.1823 41.703 69.1489 41.8702 69.1489 42.0207C69.1489 42.1545 69.1656 42.2882 69.199 42.422C69.3828 43.1578 70.0511 44.2112 71.2874 44.8968C71.8722 45.2145 72.5238 45.365 73.1753 45.365C73.6933 45.365 74.1945 45.2646 74.6623 45.064C74.9797 44.9302 75.247 44.7128 75.4475 44.4453L75.4642 44.4286C75.5478 44.2948 75.6146 44.161 75.6647 44.0105C75.6981 43.9269 75.7148 43.8433 75.7315 43.7597C75.7315 43.4922 75.7482 43.2246 75.7315 42.9404ZM72.8078 44.2279C72.4569 44.1945 72.1061 44.0941 71.8054 43.9102C71.5548 43.7764 71.3376 43.6092 71.1371 43.4253C70.9533 43.2581 70.7862 43.0741 70.6526 42.8735C70.569 42.7564 70.4855 42.6227 70.4187 42.5056C70.3351 42.3551 70.285 42.2046 70.2683 42.0374C70.2683 41.9873 70.285 41.9538 70.3017 41.9037C70.402 41.7197 70.5356 41.5692 70.7027 41.4355L70.8029 41.3518C70.9867 41.2014 71.2039 41.0341 71.4211 40.8836L71.4545 40.8669L71.8054 40.6161C72.3901 40.1814 73.2923 39.5125 73.6598 39.245C73.7267 39.1948 73.7601 39.1781 73.7935 39.1614C73.9105 39.4122 73.994 39.663 74.0441 39.9305L74.0775 40.1145C74.2112 40.6663 74.3783 41.4689 74.4952 42.1712C74.5453 42.4555 74.5787 42.723 74.5954 43.0073C74.5954 43.1076 74.5954 43.1912 74.5954 43.2748C74.5954 43.442 74.5787 43.6092 74.5119 43.743C74.5119 43.7597 74.4952 43.7597 74.4952 43.7764C74.4952 43.7932 74.4785 43.7932 74.4618 43.8099C74.2947 43.9938 73.9105 44.161 73.4259 44.2112C73.2088 44.2446 73.0083 44.2446 72.8078 44.2279Z" fill="#2D0106"/>
<path d="M4.25819 35.4654C4.30831 36.3015 5.36086 36.2179 6.6306 36.2513C7.90035 36.3015 11.9936 36.9536 16.822 38.6257C21.6503 40.2979 23.7387 42.5051 23.7387 42.5051L26.2782 38.4418C22.7196 37.0372 17.2229 34.6461 11.3754 34.2447C5.52793 33.8434 4.20807 34.6293 4.25819 35.4654Z" fill="#123854"/>
<g opacity="0.4">
<path d="M5.56142 34.3955C5.56142 34.3955 4.65923 35.0811 4.94325 35.4323C6.84787 35.1814 14.6668 35.1814 26.2783 38.4254C22.753 37.0208 17.3065 34.6631 11.5092 34.245C9.521 34.128 7.53286 34.1782 5.56142 34.3955Z" fill="white"/>
</g>
<path d="M4.00766 34.4125C3.70693 34.6967 3.55657 35.098 3.57328 35.4993C3.64011 36.8705 5.0435 36.9039 6.17959 36.9374L6.61397 36.9541C7.78347 36.9875 11.7598 37.6229 16.6048 39.2951C21.2828 40.917 23.7221 42.5056 23.7388 42.5223C23.5049 41.3518 22.7364 40.3652 21.6671 39.8636C20.1635 39.1613 18.6097 38.5426 17.0392 38.0075C12.0605 36.2852 7.88372 35.6331 6.64739 35.5997L6.1963 35.5829C5.76191 35.5662 5.11033 35.5662 4.92655 35.4492C4.92655 35.4325 5.39435 34.5462 11.3087 34.9475C17.908 35.399 23.956 37.5561 26.2616 38.459C26.2616 38.459 26.2616 37.021 24.1397 36.2351C21.0823 35.1984 16.3876 33.9275 11.4089 33.5764C5.94569 33.1751 4.559 33.8607 4.00766 34.4125Z" fill="#2D0106"/>
<path d="M44.6649 45.1734C46.5528 45.0562 47.9601 42.9736 47.8081 40.5218C47.6562 38.0699 46.0025 36.1774 44.1145 36.2946C42.2265 36.4118 40.8192 38.4944 40.9712 40.9463C41.1232 43.3981 42.7769 45.2906 44.6649 45.1734Z" fill="#2D0106"/>
<path d="M45.6753 38.8765C45.2242 38.9099 44.89 39.3781 44.9234 39.9299C44.9569 40.4817 45.3578 40.8997 45.8089 40.883C46.26 40.8663 46.5942 40.3814 46.5607 39.8296C46.5273 39.2778 46.1264 38.8597 45.6753 38.8765Z" fill="white"/>
<path d="M63.5185 34.3952C62.0483 34.529 60.9456 36.0005 60.7451 37.9067C61.38 38.4585 62.0984 38.91 62.8836 39.2277C64.2202 39.7461 65.941 40.1306 66.9936 40.3313C67.1272 39.7293 67.1607 39.1274 67.1105 38.5254C66.8933 36.0841 65.2895 34.228 63.5185 34.3952Z" fill="#2D0106"/>
<path d="M65.1055 37.1875C64.6879 37.2209 64.4038 37.6891 64.454 38.2242C64.5041 38.7593 64.8716 39.1606 65.2893 39.1272C65.707 39.0937 65.991 38.6255 65.9409 38.0904C65.8741 37.5554 65.5065 37.1541 65.1055 37.1875Z" fill="white"/>
<path d="M77.0679 47.5049C76.6836 47.5049 76.3662 48.157 76.3662 48.9596C76.3662 49.7623 76.6836 50.4144 77.0679 50.4144C77.4522 50.4144 77.7696 49.7623 77.7696 48.9596C77.7696 48.157 77.4522 47.5049 77.0679 47.5049Z" fill="#2D0106"/>
<path d="M67.7119 47.2373C67.1606 47.2373 66.7095 47.9396 66.7095 48.8258C66.7095 49.6953 67.1606 50.4144 67.7119 50.4144C68.2632 50.4144 68.7143 49.7121 68.7143 48.8258C68.731 47.9563 68.2799 47.2373 67.7119 47.2373Z" fill="#2D0106"/>
<path d="M74.8625 64.1594C73.7097 64.3266 72.5569 64.4269 71.3875 64.4604C71.5712 64.7781 71.7884 65.1794 72.156 65.8483C72.7073 66.885 72.6405 67.5873 73.125 67.3699C74.4616 66.584 75.2301 65.1794 75.6311 63.9922C75.3805 64.0591 75.1299 64.126 74.8625 64.1594Z" fill="white"/>
<g opacity="0.2">
<path d="M72.3398 65.3963C72.4568 65.3963 73.0582 65.1121 73.1585 66.3327C73.2921 66.015 73.4091 65.6973 73.5093 65.3629C73.9103 65.3629 74.2945 65.3127 74.6788 65.2625C75.2301 65.1622 75.1132 64.1924 75.1132 64.1924L71.6882 64.577L72.3398 65.3963Z" fill="#2D0106"/>
</g>
<path d="M75.4472 63.4408C75.2467 63.5076 75.0295 63.5578 74.829 63.5912H74.7789C74.545 63.6247 74.2944 63.6581 74.0104 63.6916L73.8099 63.7083C73.1082 63.7752 72.2728 63.8421 71.3874 63.8755L71.1033 63.8922H71.0866L70.5687 63.909H70.4351L70.5687 64.143L70.9196 64.7283C70.9697 64.8119 71.0198 64.9122 71.0866 65.0293C71.2203 65.2801 71.4041 65.6145 71.6714 66.0994C71.7549 66.2499 71.805 66.3837 71.8719 66.5175C71.9387 66.7014 72.0055 66.8519 72.0557 67.0024C72.0724 67.0526 72.0891 67.1027 72.1058 67.1529C72.1058 67.1529 72.1058 67.1529 72.1058 67.1696C72.1726 67.4037 72.2896 67.6044 72.4566 67.7716C72.5235 67.8385 72.607 67.8719 72.6738 67.9221C72.7741 67.9555 72.8743 67.9889 72.9745 67.9889C73.1082 67.9889 73.2419 67.9555 73.3588 67.9053L73.4089 67.8719C74.8457 67.0358 75.631 65.5978 76.0152 64.5945C76.0821 64.444 76.1322 64.2935 76.1656 64.1765L76.316 63.725L76.5165 63.123L75.4472 63.4408ZM72.3397 64.9958C72.9077 64.9624 73.4591 64.9122 73.9436 64.8621C74.2109 64.8286 74.4615 64.7952 74.6954 64.7785C74.6118 64.9624 74.4949 65.1463 74.3946 65.3135C74.0772 65.8486 73.6428 66.3168 73.1416 66.6847C73.1249 66.668 73.1249 66.6345 73.1249 66.6178C73.0748 66.4673 73.008 66.3001 72.9244 66.1162C72.8576 65.949 72.7741 65.7817 72.6738 65.5811L72.5569 65.3637C72.4733 65.2299 72.4065 65.1129 72.3397 64.9958Z" fill="#2D0106"/>
<path d="M64.3372 64.2432C66.459 67.3533 66.1582 68.3232 67.2108 67.6041C68.1631 66.952 69.1154 65.5809 69.7169 64.5107C67.9125 64.5274 66.1248 64.4438 64.3372 64.2432Z" fill="white"/>
<g opacity="0.2">
<path d="M65.4733 65.4298C66.5259 65.6973 67.6119 65.7809 68.6978 65.7141C68.9484 65.6973 69.1823 64.7777 69.1823 64.7777L65.0557 64.46L65.4733 65.4298Z" fill="#2D0106"/>
</g>
<path d="M70.5521 63.9256H69.9507H69.7001C67.9291 63.9423 66.1582 63.8587 64.4039 63.6748L63.5686 63.5912L63.1509 63.541L63.4683 64.0092L63.8693 64.5945C63.9194 64.6613 63.9695 64.745 64.0197 64.8118C64.5209 65.5476 64.972 66.3168 65.3896 67.1027C65.657 67.6043 65.8574 67.9722 66.0913 68.1895C66.2083 68.2899 66.3419 68.3735 66.509 68.4069C66.5758 68.4236 66.6427 68.4236 66.7262 68.4236C67.0436 68.4236 67.3277 68.2564 67.5616 68.0892C67.7788 67.9387 67.9959 67.7548 68.1964 67.5709C69.0318 66.7682 69.7168 65.6981 70.0676 65.1128C70.1345 64.9958 70.2013 64.8954 70.2347 64.8118L70.5856 64.1932L70.7192 63.959L70.5521 63.9256ZM65.4732 64.9289L65.7071 64.9456C66.7763 65.0292 67.8122 65.0627 68.6976 65.0794C68.5473 65.2968 68.3969 65.5141 68.2466 65.7315C67.8289 66.3 67.3444 66.8184 66.8933 67.1361C66.8432 67.1695 66.8097 67.203 66.7596 67.2197C66.6594 67.0859 66.5257 66.8184 66.3754 66.5509C66.2417 66.2833 66.0412 65.9322 65.8073 65.5309C65.7071 65.3302 65.5901 65.1295 65.4732 64.9289Z" fill="#2D0106"/>
<path d="M57.6543 62.2031C57.788 62.7048 57.955 63.4572 58.1221 64.5107C58.4061 66.233 58.4228 67.1694 59.9265 66.5005C61.2129 65.932 62.1485 64.8451 62.7667 63.9923C62.4827 63.9421 62.2153 63.8753 61.9647 63.8084C60.4778 63.4405 59.0243 62.9054 57.6543 62.2031Z" fill="white"/>
<g opacity="0.2">
<path d="M58.2891 63.541C58.2891 63.541 59.3751 63.9925 59.6257 64.4607C59.8763 64.9122 59.5087 65.7315 59.5087 65.7315C60.1436 65.4473 60.7618 65.1296 61.3632 64.7784C62.0315 64.3436 62.2153 64.0092 62.2153 64.0092L58.0886 62.7217L58.2891 63.541Z" fill="#2D0106"/>
</g>
<path d="M63.5686 63.574L62.9671 63.457H62.9337L62.8669 63.4402L62.6664 63.3901H62.6497L62.4659 63.3566L62.3657 63.3399L62.1819 63.2897L62.0984 63.273C61.9981 63.2396 61.8812 63.2229 61.7809 63.1894L61.6807 63.156C61.5805 63.1225 61.4802 63.1058 61.38 63.0724L61.3131 63.0556L61.0959 62.9888L60.979 62.9553L60.8453 62.9219L60.6114 62.8383L60.5279 62.8215L60.3775 62.7714L60.294 62.7379L60.2105 62.7045L60.0434 62.6376L59.7928 62.554L59.6424 62.5038L59.5589 62.4704L59.4754 62.437L59.2582 62.3534H59.2415C59.1078 62.3032 58.9741 62.2363 58.8405 62.1861L58.7569 62.1527L58.5899 62.0691L58.4061 61.9855L58.3226 61.9353L58.239 61.8852L58.1221 61.835L57.8882 61.7179L57.6543 61.6009L57.4538 61.5006L57.2533 61.4002H57.2366L56.7688 61.1494V61.1661L57.0194 62.1025L57.0862 62.3701C57.1029 62.437 57.1196 62.5206 57.1531 62.6209C57.2533 63.0556 57.4037 63.7078 57.554 64.6274L57.6042 64.9953C57.7211 65.7311 57.8213 66.3163 58.072 66.7343C58.2891 67.1022 58.6901 67.3196 59.1245 67.3196C59.4754 67.3029 59.8262 67.2192 60.1436 67.0688C61.1795 66.6173 62.1151 65.8314 63.0006 64.6776C63.0674 64.5773 63.1509 64.4937 63.2178 64.3933L63.4684 64.0422L63.7357 63.6576L63.5686 63.574ZM59.0911 66.1324C58.9574 66.032 58.8405 65.313 58.7569 64.7779L58.6901 64.4101C58.64 64.1593 58.6066 63.9084 58.5565 63.6576C58.523 63.5071 58.5063 63.3566 58.4729 63.2229C58.6567 63.3065 58.8739 63.3901 59.0911 63.4737L59.1245 63.4904L59.208 63.5238L59.3083 63.5573L59.3918 63.5907L59.4586 63.6242C59.5923 63.6743 59.7427 63.7245 59.8763 63.7747L59.9599 63.8081H59.9766L60.1938 63.875L60.411 63.9419L60.6281 64.0088L60.7785 64.0589L60.9623 64.1091L61.1127 64.1593L61.2296 64.1927C61.3131 64.2094 61.3967 64.2429 61.4969 64.2596L61.7141 64.3097L61.7642 64.3265C61.6306 64.477 61.5136 64.6107 61.38 64.7445C60.8955 65.2461 60.3274 65.6642 59.6925 65.9484C59.2247 66.1825 59.0911 66.1324 59.0911 66.1324Z" fill="#2D0106"/>
<path d="M54.2293 55.949C53.1266 56.6512 51.0549 58.8417 51.0549 58.8417C51.3055 59.1594 53.0765 61.0991 55.8833 61.4001C55.8833 61.4001 55.9668 59.728 55.8833 57.9722C55.8165 56.2165 55.332 55.2467 54.2293 55.949Z" fill="white"/>
<g opacity="0.2">
<path d="M52.7256 59.879C52.7256 59.879 54.0454 58.8757 54.7304 57.8223C54.814 58.6583 54.4297 60.4141 54.3462 60.7318C53.8283 60.5646 52.7256 59.879 52.7256 59.879Z" fill="#2D0106"/>
</g>
<path d="M56.4848 58.5907C56.4848 58.3733 56.468 58.1727 56.468 57.9386C56.4012 56.4504 56.0838 55.5976 55.4489 55.2799C55.1482 55.1127 54.6303 55.0291 53.9453 55.4638C53.3772 55.8651 52.8426 56.2999 52.3414 56.7848C51.8569 57.2363 51.3891 57.7045 51.0716 58.0222C50.8377 58.2563 50.6874 58.4068 50.6707 58.4402L50.3198 58.8081L50.5704 59.1258L50.6373 59.1927L50.654 59.2261L50.6707 59.2429L50.7041 59.293C50.7375 59.3265 50.7709 59.3599 50.8043 59.4101L50.821 59.4435L50.8712 59.4937L50.938 59.5606L51.0215 59.6442L51.0716 59.6943L51.1385 59.7612C51.2053 59.8281 51.2888 59.9117 51.3891 59.9786L51.4559 60.0288L51.5227 60.0789L51.5729 60.1291L51.6564 60.196L51.7232 60.2461L51.7399 60.2629L51.8068 60.313L51.8402 60.3465L51.9738 60.4468C52.0239 60.4802 52.0741 60.5137 52.1242 60.5471L52.2077 60.5973L52.2913 60.6474C52.3414 60.6809 52.4082 60.7311 52.475 60.7645L52.5586 60.8147L52.6588 60.8648L52.7591 60.915C52.8259 60.9484 52.8927 60.9819 52.9595 61.032L53.0598 61.0822L53.16 61.1324L53.2436 61.1825L53.3772 61.2494L53.4775 61.2996L53.561 61.333L53.6278 61.3665H53.6445L53.7448 61.3999L53.8283 61.4333H53.845L53.9453 61.4668L54.0455 61.5002L54.1959 61.5504L54.2961 61.5838H54.3128L54.3964 61.6006H54.4131L54.4632 61.6173C54.4966 61.634 54.53 61.634 54.5634 61.6507H54.5801L54.6637 61.6674L54.7138 61.6842L54.814 61.7176H54.8307L54.9143 61.7343H54.931L54.9811 61.7511L55.0312 61.7678L55.0981 61.7845L55.1983 61.8012H55.2317L55.332 61.8179H55.3487H55.3654H55.3821L55.499 61.8347L55.5993 61.8514H55.616H55.6661L55.7496 61.8681H55.7831H55.8499L56.4513 61.935L56.468 61.6507L56.4848 61.3163C56.4848 61.2996 56.4848 61.1491 56.5015 60.8983C56.4848 60.497 56.5015 59.594 56.4848 58.5907ZM54.8642 60.614L54.7639 60.5806L54.647 60.5471L54.5467 60.5137L54.4298 60.4802H54.4131L54.3797 60.4635L54.3128 60.4301L54.1792 60.3799L54.129 60.3632C54.0956 60.3465 54.0622 60.3297 54.0455 60.3297L53.9453 60.2796C53.7448 60.196 53.561 60.0956 53.3939 59.9953L53.2436 59.9117C53.1767 59.8783 53.1099 59.8448 53.0598 59.7947C53.0264 59.7779 52.993 59.7445 52.9595 59.7278L52.9261 59.711L52.9094 59.6943L52.8426 59.6442C52.7591 59.5773 52.6588 59.5104 52.592 59.4602L52.5586 59.4268L52.5252 59.3933L52.4918 59.3599H52.475C52.4416 59.3432 52.4249 59.3265 52.3915 59.293L52.2746 59.1927L52.1075 59.0422L52.024 58.9586C51.9738 58.9251 51.9404 58.875 51.8903 58.8415C52.308 58.4235 52.993 57.7379 53.6278 57.1694C53.9286 56.9019 54.246 56.6511 54.5801 56.417C54.7806 56.2832 54.9143 56.2665 54.9477 56.2832C54.9477 56.2832 55.2985 56.4838 55.3654 57.9888C55.4155 59.0589 55.3988 60.0956 55.3821 60.7311H55.3654L55.2651 60.7143L55.1816 60.6976L55.1315 60.6809C54.9978 60.6642 54.931 60.6474 54.8642 60.614Z" fill="#2D0106"/>
<path d="M43.1023 58.3402C43.6369 59.2766 44.1047 60.2297 44.489 61.233C45.1072 62.8048 45.8423 63.39 46.5106 62.6877C47.112 62.0523 48.482 59.8953 49.2839 58.1562C49.1503 58.1562 48.9999 58.1563 48.8328 58.173C46.4771 58.2733 45.4413 58.3903 43.1023 58.3402Z" fill="white"/>
<g opacity="0.2">
<path d="M44.7229 58.5908L45.9425 61.8849C45.9425 61.8849 45.9759 59.3934 46.6275 58.8584C45.9592 58.7413 44.7229 58.5908 44.7229 58.5908Z" fill="#2D0106"/>
</g>
<path d="M49.2842 57.5547H49.0169H48.9166H48.7997H48.6994H48.5992H48.4822H48.3987L48.1648 57.5714H48.1481H48.0311L47.8641 57.5881H47.8139H47.697L47.4631 57.6048H47.3294H47.2292H47.1289L46.9285 57.6216H46.8783H46.8616H46.8115L46.6444 57.6383H46.4941H46.3604L45.7088 57.6717H45.6086H45.4248L45.0406 57.6885H44.7732H44.0047H43.6873H43.5369H43.303H43.1861H43.1025H42.9856H42.8853L42.1001 57.6717L42.2338 57.8891L42.618 58.558C42.6681 58.6416 42.7183 58.7252 42.7684 58.8255C43.2195 59.6616 43.6037 60.5144 43.9546 61.4006C44.4391 62.6547 45.0238 63.357 45.7088 63.4908C45.7757 63.5075 45.8592 63.5075 45.926 63.5075C46.3103 63.4908 46.6779 63.3235 46.9285 63.0393C47.5132 62.4039 48.7829 60.4475 49.635 58.7252L49.6517 58.7085C49.7018 58.5914 49.7687 58.4744 49.8188 58.3573L49.2842 57.5547ZM45.926 62.4039C45.7924 62.3704 45.4248 62.0527 45.0238 61.016C44.7398 60.297 44.4224 59.6114 44.0715 58.9258H44.4558H44.8568H44.9737H45.1742H45.3747H45.5752H45.7423H45.8592H45.9762L46.1933 58.9091H46.2268H46.2769L46.5108 58.8924H46.5776H46.6444L46.7948 58.8757H46.9285H46.9619L47.1289 58.8589L47.4464 58.8422L47.7137 58.8255H47.7972H47.8975L48.1314 58.8088L48.3152 58.7921H48.382C47.58 60.3304 46.5442 61.8855 46.1265 62.3203C46.0263 62.3537 45.9594 62.4039 45.926 62.4039Z" fill="#2D0106"/>
<path d="M38.9087 53.7083C38.0566 54.4607 36.954 55.5643 36.436 56.0994C37.9397 57.1194 39.6271 57.8217 41.3981 58.1729C41.3145 56.3837 41.0138 54.1598 40.8968 53.4407C40.7465 52.6548 40.0448 52.6883 38.9087 53.7083Z" fill="white"/>
<g opacity="0.2">
<path d="M38.157 56.7017L39.7107 54.4443C39.7107 54.4443 39.0926 56.9024 40.0115 57.5545C39.0759 57.7384 38.157 56.7017 38.157 56.7017Z" fill="#2D0106"/>
</g>
<path d="M41.9998 58.8424L41.9664 58.1401C41.9664 58.0733 41.9664 57.9896 41.9497 57.9228C41.9497 57.8559 41.933 57.7555 41.933 57.6887C41.9163 57.4044 41.8829 57.1034 41.8662 56.8024C41.7325 55.3644 41.5487 53.9264 41.4485 53.3578C41.3316 52.7057 40.9473 52.4716 40.7301 52.388C40.1621 52.1874 39.4436 52.4716 38.5415 53.291C38.057 53.709 37.5056 54.2441 37.0044 54.729C36.7705 54.9464 36.57 55.1637 36.3695 55.3477C36.2359 55.4814 36.1189 55.5985 36.0187 55.6988L35.7013 56.0165L35.5509 56.167L35.5342 56.1837L36.0855 56.5683C37.656 57.6218 39.4102 58.3742 41.2647 58.7421L41.9831 58.8759L41.9998 58.8424ZM40.3124 53.4749C40.3124 53.4916 40.3291 53.5083 40.3291 53.5418C40.4127 54.0601 40.5797 55.2641 40.6967 56.5516C40.7301 56.8526 40.7468 57.1536 40.7802 57.4546C40.4127 57.3542 40.0451 57.2372 39.6775 57.1201C39.2097 56.9529 38.7419 56.7523 38.2909 56.5349C37.9567 56.3677 37.6393 56.2005 37.3385 56.0165C37.5223 55.8326 37.7228 55.6319 37.94 55.4313C38.3911 54.9965 38.8756 54.5283 39.2933 54.1605C39.878 53.6254 40.1955 53.4916 40.3124 53.4749Z" fill="#2D0106"/>
<path d="M5.42773 107.217H8.78587L12.144 109.156V124.122L8.78587 126.062H5.42773V107.217ZM7.63307 109.391V123.855H8.20112L9.95536 122.835V110.394L8.20112 109.374H7.63307V109.391Z" fill="white"/>
<path d="M13.1465 107.217H19.8795V115.226L18.4426 116.062L19.8795 116.898V126.078H17.6908V118.169L15.3518 116.815V126.078H13.1632L13.1465 107.217ZM17.6741 109.391H15.3351V114.273L16.2373 114.792L17.6741 113.955V109.391Z" fill="white"/>
<path d="M20.8484 107.217H27.5814V126.078H25.3927V118.169L23.0537 116.815V126.078H20.8651L20.8484 107.217ZM25.3927 109.391H23.0537V114.273L25.3927 115.628V109.391Z" fill="white"/>
<path d="M28.5671 107.217H35.3001V112.919L33.1115 111.648V109.391H30.7725V123.855H33.1115V118.52L32.1926 118.002V115.46L36.219 117.801V120.343L35.3001 119.808V126.078H28.5671V107.217Z" fill="white"/>
<path d="M43.9545 107.217V126.078H37.2383V107.217H43.9545ZM41.7492 123.871V109.391H39.4269V123.855H41.7492V123.871Z" fill="white"/>
<path d="M49.4678 112.35L47.1288 110.996V126.062H44.9402V107.217L49.4678 109.842V107.217H51.6565V111.096L52.5921 111.631V114.173L51.6565 113.638V126.078H49.4678V112.35Z" fill="white"/>
<path d="M57.4539 107.217H64.1868V115.226L62.75 116.062L64.1868 116.898V126.078H61.9982V118.169L59.6592 116.815V126.078H57.4706L57.4539 107.217ZM61.9815 109.391H59.6425V114.273L60.5447 114.792L61.9815 113.955V109.391Z" fill="#F96262"/>
<path d="M65.1558 107.217H71.8887V126.078H69.7001V118.169L67.3611 116.815V126.078H65.1725L65.1558 107.217ZM69.7001 109.391H67.3611V114.273L69.7001 115.628V109.391Z" fill="#F96262"/>
<path d="M72.8745 107.217H79.6075V112.919L77.4189 111.648V109.391H75.0799V123.855H77.4189V121.614L79.6075 120.343V126.045H72.8745V107.217Z" fill="#F96262"/>
<path d="M80.5764 126.062V107.217H87.3094V111.648L85.1208 112.919V109.391H82.7818V114.29L85.1208 115.644V118.186L82.7818 116.832V123.871H85.1208V121.631L87.3094 120.36V126.062H80.5764Z" fill="#F96262"/>
</g>
<defs>
<clipPath id="clip0_801_12331">
<rect width="96" height="131" fill="white"/>
</clipPath>
</defs>
</svg>
