<svg width="220" height="72" viewBox="0 0 220 72" fill="none" xmlns="http://www.w3.org/2000/svg">
<path d="M34.9999 70.1566C53.4256 70.1566 68.3626 55.2196 68.3626 36.7939C68.3626 18.3682 53.4256 3.43121 34.9999 3.43121C16.5742 3.43121 1.63721 18.3682 1.63721 36.7939C1.63721 55.2196 16.5742 70.1566 34.9999 70.1566Z" fill="#F96262"/>
<path opacity="0.5" d="M29.1789 11.5862C29.5232 10.4368 29.0923 9.29237 28.2165 9.03011C27.3408 8.76784 26.3518 9.48702 26.0076 10.6364C25.6633 11.7859 26.0942 12.9303 26.97 13.1925C27.8457 13.4548 28.8347 12.7356 29.1789 11.5862Z" fill="#FFB8C2"/>
<path opacity="0.5" d="M47.2829 9.53175C47.6272 8.38233 47.1963 7.23793 46.3205 6.97566C45.4448 6.7134 44.4558 7.43258 44.1116 8.582C43.7673 9.73142 44.1982 10.8758 45.074 11.1381C45.9497 11.4004 46.9387 10.6812 47.2829 9.53175Z" fill="#FFB8C2"/>
<path opacity="0.5" d="M36.5803 8.27962C36.9245 7.13019 36.4936 5.98579 35.6179 5.72353C34.7421 5.46126 33.7531 6.18044 33.4089 7.32986C33.0647 8.47928 33.4956 9.62368 34.3713 9.88595C35.2471 10.1482 36.2361 9.42904 36.5803 8.27962Z" fill="#FFB8C2"/>
<path opacity="0.5" d="M20.1755 13.7216C20.5197 12.5722 20.0888 11.4278 19.2131 11.1655C18.3373 10.9033 17.3484 11.6225 17.0041 12.7719C16.6599 13.9213 17.0908 15.0657 17.9665 15.328C18.8423 15.5902 19.8313 14.8711 20.1755 13.7216Z" fill="#FFB8C2"/>
<path opacity="0.5" d="M12.0572 14.1737C12.4014 13.0243 11.9706 11.8799 11.0948 11.6176C10.2191 11.3554 9.23008 12.0745 8.88585 13.224C8.54162 14.3734 8.97251 15.5178 9.84826 15.7801C10.724 16.0423 11.713 15.3231 12.0572 14.1737Z" fill="#FFB8C2"/>
<path opacity="0.5" d="M41.4859 15.3245C41.8302 14.1751 41.3993 13.0307 40.5235 12.7684C39.6478 12.5061 38.6588 13.2253 38.3146 14.3747C37.9703 15.5241 38.4012 16.6685 39.277 16.9308C40.1527 17.1931 41.1417 16.4739 41.4859 15.3245Z" fill="#FFB8C2"/>
<path opacity="0.5" d="M43.8117 6.03023C44.156 4.88081 43.7251 3.7364 42.8493 3.47414C41.9736 3.21187 40.9846 3.93105 40.6404 5.08047C40.2961 6.22989 40.727 7.37429 41.6028 7.63656C42.4785 7.89883 43.4675 7.17965 43.8117 6.03023Z" fill="#FFB8C2"/>
<path opacity="0.5" d="M55.5703 9.89162C55.9145 8.74219 55.4836 7.59779 54.6079 7.33553C53.7321 7.07326 52.7431 7.79244 52.3989 8.94186C52.0547 10.0913 52.4856 11.2357 53.3613 11.4979C54.2371 11.7602 55.2261 11.041 55.5703 9.89162Z" fill="#FFB8C2"/>
<path opacity="0.5" d="M22.0538 7.57014C22.398 6.42072 21.9671 5.27632 21.0914 5.01405C20.2156 4.75179 19.2267 5.47097 18.8824 6.62039C18.5382 7.76981 18.9691 8.91421 19.8448 9.17648C20.7206 9.43874 21.7096 8.71956 22.0538 7.57014Z" fill="#FFB8C2"/>
<path opacity="0.5" d="M33.2774 3.0309C33.6217 1.88148 33.1908 0.737076 32.315 0.474808C31.4393 0.212541 30.4503 0.931721 30.1061 2.08114C29.7618 3.23056 30.1927 4.37496 31.0685 4.63723C31.9442 4.8995 32.9332 4.18032 33.2774 3.0309Z" fill="#FFB8C2"/>
<path opacity="0.5" d="M29.1828 28.2077C29.5271 27.0583 29.0962 25.9139 28.2204 25.6516C27.3447 25.3894 26.3557 26.1085 26.0115 27.258C25.6672 28.4074 26.0981 29.5518 26.9739 29.8141C27.8496 30.0763 28.8386 29.3571 29.1828 28.2077Z" fill="#FFB8C2"/>
<path opacity="0.5" d="M47.2876 26.1541C47.6318 25.0047 47.2009 23.8603 46.3252 23.598C45.4494 23.3358 44.4604 24.055 44.1162 25.2044C43.772 26.3538 44.2029 27.4982 45.0786 27.7605C45.9544 28.0227 46.9433 27.3035 47.2876 26.1541Z" fill="#FFB8C2"/>
<path opacity="0.5" d="M36.5849 24.902C36.9292 23.7526 36.4983 22.6082 35.6225 22.3459C34.7468 22.0836 33.7578 22.8028 33.4136 23.9522C33.0693 25.1017 33.5002 26.2461 34.376 26.5083C35.2517 26.7706 36.2407 26.0514 36.5849 24.902Z" fill="#FFB8C2"/>
<path opacity="0.5" d="M20.1794 30.3432C20.5236 29.1937 20.0928 28.0493 19.217 27.7871C18.3413 27.5248 17.3523 28.244 17.008 29.3934C16.6638 30.5428 17.0947 31.6872 17.9705 31.9495C18.8462 32.2118 19.8352 31.4926 20.1794 30.3432Z" fill="#FFB8C2"/>
<path opacity="0.5" d="M8.66672 23.971C9.01094 22.8216 8.58006 21.6772 7.70431 21.4149C6.82856 21.1527 5.83957 21.8718 5.49535 23.0213C5.15112 24.1707 5.58201 25.3151 6.45776 25.5774C7.3335 25.8396 8.32249 25.1204 8.66672 23.971Z" fill="#FFB8C2"/>
<path opacity="0.5" d="M3.79465 34.1184C4.13887 32.9689 3.70799 31.8245 2.83224 31.5623C1.95649 31.3 0.967504 32.0192 0.623277 33.1686C0.279051 34.318 0.709935 35.4624 1.58568 35.7247C2.46143 35.987 3.45042 35.2678 3.79465 34.1184Z" fill="#FFB8C2"/>
<path opacity="0.5" d="M7.6152 54.5711C7.95943 53.4216 7.52855 52.2772 6.6528 52.015C5.77705 51.7527 4.78806 52.4719 4.44383 53.6213C4.09961 54.7707 4.53049 55.9151 5.40624 56.1774C6.28199 56.4397 7.27098 55.7205 7.6152 54.5711Z" fill="#FFB8C2"/>
<path opacity="0.5" d="M32.5432 69.3366C32.8874 68.1872 32.4565 67.0428 31.5808 66.7805C30.705 66.5183 29.716 67.2374 29.3718 68.3869C29.0276 69.5363 29.4585 70.6807 30.3342 70.943C31.21 71.2052 32.199 70.486 32.5432 69.3366Z" fill="#FFB8C2"/>
<path opacity="0.5" d="M62.8534 52.8443C63.1976 51.6948 62.7667 50.5504 61.891 50.2882C61.0152 50.0259 60.0262 50.7451 59.682 51.8945C59.3378 53.0439 59.7687 54.1883 60.6444 54.4506C61.5202 54.7129 62.5091 53.9937 62.8534 52.8443Z" fill="#FFB8C2"/>
<path opacity="0.5" d="M51.1156 50.8688C51.4598 49.7194 51.0289 48.575 50.1532 48.3127C49.2774 48.0504 48.2884 48.7696 47.9442 49.919C47.6 51.0685 48.0309 52.2129 48.9066 52.4751C49.7824 52.7374 50.7713 52.0182 51.1156 50.8688Z" fill="#FFB8C2"/>
<path opacity="0.5" d="M62.6844 41.5184C63.0286 40.369 62.5978 39.2246 61.722 38.9623C60.8463 38.7 59.8573 39.4192 59.513 40.5686C59.1688 41.7181 59.5997 42.8625 60.4755 43.1247C61.3512 43.387 62.3402 42.6678 62.6844 41.5184Z" fill="#FFB8C2"/>
<path opacity="0.5" d="M12.0623 30.7973C12.4066 29.6478 11.9757 28.5034 11.0999 28.2412C10.2242 27.9789 9.2352 28.6981 8.89098 29.8475C8.54675 30.9969 8.97764 32.1413 9.85339 32.4036C10.7291 32.6659 11.7181 31.9467 12.0623 30.7973Z" fill="#FFB8C2"/>
<path opacity="0.5" d="M16.515 22.4499C16.8592 21.3005 16.4283 20.1561 15.5526 19.8938C14.6768 19.6315 13.6878 20.3507 13.3436 21.5001C12.9994 22.6496 13.4303 23.794 14.306 24.0562C15.1818 24.3185 16.1708 23.5993 16.515 22.4499Z" fill="#FFB8C2"/>
<path opacity="0.5" d="M41.4901 31.9471C41.8343 30.7977 41.4034 29.6533 40.5277 29.391C39.6519 29.1287 38.6629 29.8479 38.3187 30.9973C37.9745 32.1468 38.4054 33.2912 39.2811 33.5534C40.1569 33.8157 41.1459 33.0965 41.4901 31.9471Z" fill="#FFB8C2"/>
<path opacity="0.5" d="M43.8048 22.6495C44.149 21.5001 43.7181 20.3557 42.8424 20.0934C41.9666 19.8311 40.9776 20.5503 40.6334 21.6997C40.2892 22.8492 40.7201 23.9936 41.5958 24.2558C42.4716 24.5181 43.4606 23.7989 43.8048 22.6495Z" fill="#FFB8C2"/>
<path opacity="0.5" d="M55.5772 26.5059C55.9215 25.3565 55.4906 24.2121 54.6148 23.9498C53.7391 23.6876 52.7501 24.4068 52.4059 25.5562C52.0616 26.7056 52.4925 27.85 53.3683 28.1123C54.244 28.3745 55.233 27.6554 55.5772 26.5059Z" fill="#FFB8C2"/>
<path opacity="0.5" d="M22.1659 24.2263C22.5129 23.0777 22.0803 21.9309 21.1997 21.6649C20.3192 21.3989 19.324 22.1143 18.977 23.2629C18.63 24.4115 19.0626 25.5582 19.9432 25.8243C20.8238 26.0903 21.8189 25.3748 22.1659 24.2263Z" fill="#FFB8C2"/>
<path opacity="0.5" d="M33.2722 19.6504C33.6164 18.501 33.1855 17.3566 32.3098 17.0943C31.434 16.832 30.445 17.5512 30.1008 18.7006C29.7566 19.8501 30.1875 20.9945 31.0632 21.2567C31.939 21.519 32.928 20.7998 33.2722 19.6504Z" fill="#FFB8C2"/>
<path opacity="0.5" d="M29.1866 44.8308C29.5308 43.6813 29.1 42.5369 28.2242 42.2747C27.3485 42.0124 26.3595 42.7316 26.0152 43.881C25.671 45.0304 26.1019 46.1748 26.9777 46.4371C27.8534 46.6994 28.8424 45.9802 29.1866 44.8308Z" fill="#FFB8C2"/>
<path opacity="0.5" d="M12.791 38.3875C13.1352 37.238 12.7043 36.0936 11.8286 35.8314C10.9528 35.5691 9.96384 36.2883 9.61962 37.4377C9.27539 38.5871 9.70627 39.7315 10.582 39.9938C11.4578 40.2561 12.4468 39.5369 12.791 38.3875Z" fill="#FFB8C2"/>
<path opacity="0.5" d="M5.43173 42.4426C5.77596 41.2932 5.34507 40.1488 4.46932 39.8866C3.59357 39.6243 2.60459 40.3435 2.26036 41.4929C1.91614 42.6423 2.34702 43.7867 3.22277 44.049C4.09852 44.3112 5.08751 43.5921 5.43173 42.4426Z" fill="#FFB8C2"/>
<path opacity="0.5" d="M15.7558 56.5303C16.1001 55.3809 15.6692 54.2365 14.7934 53.9743C13.9177 53.712 12.9287 54.4312 12.5845 55.5806C12.2402 56.73 12.6711 57.8744 13.5469 58.1367C14.4226 58.3989 15.4116 57.6798 15.7558 56.5303Z" fill="#FFB8C2"/>
<path opacity="0.5" d="M47.282 42.7739C47.6262 41.6245 47.1953 40.4801 46.3195 40.2178C45.4438 39.9555 44.4548 40.6747 44.1106 41.8241C43.7664 42.9735 44.1972 44.1179 45.073 44.3802C45.9487 44.6425 46.9377 43.9233 47.282 42.7739Z" fill="#FFB8C2"/>
<path opacity="0.5" d="M36.5893 41.5247C36.9336 40.3753 36.5027 39.2309 35.6269 38.9686C34.7512 38.7063 33.7622 39.4255 33.418 40.5749C33.0737 41.7243 33.5046 42.8687 34.3804 43.131C35.2561 43.3933 36.2451 42.6741 36.5893 41.5247Z" fill="#FFB8C2"/>
<path opacity="0.5" d="M20.1747 46.9638C20.5189 45.8143 20.088 44.6699 19.2122 44.4077C18.3365 44.1454 17.3475 44.8646 17.0033 46.014C16.6591 47.1634 17.0899 48.3078 17.9657 48.5701C18.8414 48.8324 19.8304 48.1132 20.1747 46.9638Z" fill="#FFB8C2"/>
<path opacity="0.5" d="M12.0663 47.4188C12.4105 46.2694 11.9796 45.125 11.1038 44.8627C10.2281 44.6004 9.23911 45.3196 8.89488 46.469C8.55066 47.6184 8.98154 48.7628 9.85729 49.0251C10.733 49.2874 11.722 48.5682 12.0663 47.4188Z" fill="#FFB8C2"/>
<path opacity="0.5" d="M41.4947 48.5695C41.8389 47.4201 41.4081 46.2757 40.5323 46.0134C39.6566 45.7512 38.6676 46.4704 38.3234 47.6198C37.9791 48.7692 38.41 49.9136 39.2858 50.1759C40.1615 50.4381 41.1505 49.719 41.4947 48.5695Z" fill="#FFB8C2"/>
<path opacity="0.5" d="M43.8097 39.273C44.1539 38.1236 43.723 36.9792 42.8473 36.7169C41.9715 36.4547 40.9825 37.1738 40.6383 38.3233C40.2941 39.4727 40.7249 40.6171 41.6007 40.8794C42.4764 41.1416 43.4654 40.4224 43.8097 39.273Z" fill="#FFB8C2"/>
<path opacity="0.5" d="M50.8029 35.1311C51.1472 33.9816 50.7163 32.8372 49.8405 32.575C48.9648 32.3127 47.9758 33.0319 47.6316 34.1813C47.2874 35.3307 47.7182 36.4751 48.594 36.7374C49.4697 36.9997 50.4587 36.2805 50.8029 35.1311Z" fill="#FFB8C2"/>
<path opacity="0.5" d="M58.1821 34.1121C58.5263 32.9627 58.0954 31.8183 57.2197 31.556C56.3439 31.2937 55.355 32.0129 55.0107 33.1623C54.6665 34.3117 55.0974 35.4561 55.9731 35.7184C56.8489 35.9807 57.8379 35.2615 58.1821 34.1121Z" fill="#FFB8C2"/>
<path opacity="0.5" d="M65.3121 28.1842C65.6563 27.0348 65.2254 25.8904 64.3497 25.6281C63.4739 25.3659 62.485 26.085 62.1407 27.2345C61.7965 28.3839 62.2274 29.5283 63.1031 29.7906C63.9789 30.0528 64.9679 29.3336 65.3121 28.1842Z" fill="#FFB8C2"/>
<path opacity="0.5" d="M50.9284 18.4218C51.2727 17.2723 50.8418 16.1279 49.966 15.8657C49.0903 15.6034 48.1013 16.3226 47.7571 17.472C47.4128 18.6214 47.8437 19.7658 48.7195 20.0281C49.5952 20.2904 50.5842 19.5712 50.9284 18.4218Z" fill="#FFB8C2"/>
<path opacity="0.5" d="M58.448 19.4758C58.7922 18.3264 58.3613 17.182 57.4856 16.9198C56.6098 16.6575 55.6208 17.3767 55.2766 18.5261C54.9324 19.6755 55.3633 20.8199 56.239 21.0822C57.1148 21.3444 58.1037 20.6253 58.448 19.4758Z" fill="#FFB8C2"/>
<path opacity="0.5" d="M63.1967 18.9475C63.541 17.798 63.1101 16.6536 62.2343 16.3914C61.3586 16.1291 60.3696 16.8483 60.0254 17.9977C59.6812 19.1471 60.112 20.2915 60.9878 20.5538C61.8635 20.8161 62.8525 20.0969 63.1967 18.9475Z" fill="#FFB8C2"/>
<path opacity="0.5" d="M55.5782 43.1373C55.9224 41.9879 55.4916 40.8435 54.6158 40.5813C53.7401 40.319 52.7511 41.0382 52.4068 42.1876C52.0626 43.337 52.4935 44.4814 53.3693 44.7437C54.245 45.0059 55.234 44.2868 55.5782 43.1373Z" fill="#FFB8C2"/>
<path opacity="0.5" d="M22.0526 40.8139C22.3968 39.6644 21.9659 38.52 21.0902 38.2578C20.2144 37.9955 19.2254 38.7147 18.8812 39.8641C18.537 41.0135 18.9679 42.1579 19.8436 42.4202C20.7194 42.6825 21.7084 41.9633 22.0526 40.8139Z" fill="#FFB8C2"/>
<path opacity="0.5" d="M33.2755 36.2738C33.6197 35.1243 33.1888 33.9799 32.3131 33.7177C31.4373 33.4554 30.4483 34.1746 30.1041 35.324C29.7599 36.4734 30.1908 37.6178 31.0665 37.8801C31.9423 38.1424 32.9313 37.4232 33.2755 36.2738Z" fill="#FFB8C2"/>
<path opacity="0.5" d="M29.3987 61.5838C29.7457 60.4352 29.3131 59.2885 28.4325 59.0224C27.5519 58.7564 26.5568 59.4719 26.2098 60.6204C25.8628 61.769 26.2954 62.9158 27.176 63.1818C28.0565 63.4478 29.0517 62.7324 29.3987 61.5838Z" fill="#FFB8C2"/>
<path opacity="0.5" d="M49.0016 57.8112C49.3458 56.6617 48.9149 55.5174 48.0391 55.2551C47.1634 54.9928 46.1744 55.712 45.8302 56.8614C45.486 58.0108 45.9168 59.1552 46.7926 59.4175C47.6683 59.6798 48.6573 58.9606 49.0016 57.8112Z" fill="#FFB8C2"/>
<path opacity="0.5" d="M36.583 58.1449C36.9272 56.9954 36.4963 55.851 35.6206 55.5888C34.7448 55.3265 33.7558 56.0457 33.4116 57.1951C33.0674 58.3445 33.4983 59.4889 34.374 59.7512C35.2498 60.0135 36.2388 59.2943 36.583 58.1449Z" fill="#FFB8C2"/>
<path opacity="0.5" d="M20.1792 63.5862C20.5234 62.4368 20.0925 61.2924 19.2168 61.0301C18.341 60.7678 17.352 61.487 17.0078 62.6364C16.6636 63.7859 17.0945 64.9303 17.9702 65.1925C18.846 65.4548 19.8349 64.7356 20.1792 63.5862Z" fill="#FFB8C2"/>
<path opacity="0.5" d="M12.0612 64.0394C12.4055 62.89 11.9746 61.7456 11.0988 61.4833C10.2231 61.221 9.23411 61.9402 8.88988 63.0896C8.54565 64.239 8.97654 65.3834 9.85229 65.6457C10.728 65.908 11.717 65.1888 12.0612 64.0394Z" fill="#FFB8C2"/>
<path opacity="0.5" d="M41.489 65.1908C41.8332 64.0414 41.4023 62.897 40.5266 62.6347C39.6508 62.3725 38.6618 63.0916 38.3176 64.2411C37.9734 65.3905 38.4043 66.5349 39.28 66.7971C40.1558 67.0594 41.1448 66.3402 41.489 65.1908Z" fill="#FFB8C2"/>
<path opacity="0.5" d="M43.8037 55.8917C44.1479 54.7423 43.717 53.5979 42.8413 53.3356C41.9655 53.0733 40.9765 53.7925 40.6323 54.9419C40.2881 56.0913 40.719 57.2357 41.5947 57.498C42.4705 57.7603 43.4595 57.0411 43.8037 55.8917Z" fill="#FFB8C2"/>
<path opacity="0.5" d="M55.5763 59.7481C55.9205 58.5987 55.4896 57.4543 54.6139 57.192C53.7381 56.9298 52.7491 57.6489 52.4049 58.7984C52.0607 59.9478 52.4916 61.0922 53.3673 61.3545C54.2431 61.6167 55.232 60.8975 55.5763 59.7481Z" fill="#FFB8C2"/>
<path opacity="0.5" d="M22.0467 57.4325C22.3909 56.2831 21.9601 55.1387 21.0843 54.8764C20.2086 54.6142 19.2196 55.3333 18.8754 56.4828C18.5311 57.6322 18.962 58.7766 19.8378 59.0388C20.7135 59.3011 21.7025 58.5819 22.0467 57.4325Z" fill="#FFB8C2"/>
<path opacity="0.5" d="M26.2761 52.2648C26.6203 51.1154 26.1894 49.971 25.3137 49.7088C24.4379 49.4465 23.4489 50.1657 23.1047 51.3151C22.7605 52.4645 23.1914 53.6089 24.0671 53.8712C24.9429 54.1334 25.9319 53.4143 26.2761 52.2648Z" fill="#FFB8C2"/>
<path opacity="0.5" d="M26.5361 33.7001C26.8803 32.5507 26.4494 31.4063 25.5737 31.144C24.6979 30.8817 23.709 31.6009 23.3647 32.7503C23.0205 33.8998 23.4514 35.0442 24.3271 35.3064C25.2029 35.5687 26.1919 34.8495 26.5361 33.7001Z" fill="#FFB8C2"/>
<path opacity="0.5" d="M27.7187 18.5247C28.0629 17.3753 27.6321 16.2309 26.7563 15.9686C25.8806 15.7064 24.8916 16.4256 24.5473 17.575C24.2031 18.7244 24.634 19.8688 25.5098 20.1311C26.3855 20.3933 27.3745 19.6742 27.7187 18.5247Z" fill="#FFB8C2"/>
<path opacity="0.5" d="M33.2801 52.8961C33.6244 51.7467 33.1935 50.6023 32.3177 50.34C31.442 50.0778 30.453 50.797 30.1088 51.9464C29.7645 53.0958 30.1954 54.2402 31.0712 54.5025C31.9469 54.7647 32.9359 54.0456 33.2801 52.8961Z" fill="#FFB8C2"/>
<path d="M61.1316 66.9703V66.7117C61.1316 64.953 61.1316 63.2047 61.1212 61.446C61.1212 61.3219 61.0695 61.2081 60.9867 61.115C60.5212 60.6391 60.035 60.1736 59.5798 59.6874C59.3936 59.4908 59.1971 59.4391 58.9384 59.5012V61.5495H55.9591V59.0253H58.4729V46.8596L58.4315 46.8182C58.1522 47.1079 57.8729 47.4079 57.5832 47.6975C56.7143 48.5665 55.8453 49.4355 54.9763 50.3045C54.8418 50.4286 54.7797 50.5941 54.7901 50.77C54.7901 55.1459 54.7901 59.5219 54.7901 63.8978V64.1254H53.2694V65.6565H51.1797V63.7013H52.8038V58.1046C52.7314 58.1667 52.6797 58.2081 52.628 58.2598C51.3555 59.5322 50.0728 60.815 48.8003 62.0874C48.7176 62.1702 48.6762 62.284 48.6762 62.3978C48.6658 63.2254 48.6658 64.0633 48.6658 64.8909V65.1703H46.9899V66.9599H45.3244V64.7358H46.5244V56.8529C46.3382 57.0598 46.1106 57.1736 46.121 57.5046C46.1416 58.3839 46.1313 59.2839 46.1313 60.1736C46.1313 60.2253 46.121 60.2874 46.121 60.3598H45.1589V61.5495H43.8968V66.6082H42.3761V66.3289C42.3761 62.6875 42.3761 59.0563 42.3761 55.4149C42.3864 55.2804 42.3347 55.1459 42.2312 55.0632C41.9933 54.8356 41.7657 54.5976 41.5278 54.3804C41.445 54.3287 41.3519 54.2769 41.2588 54.2459V55.777H40.4933V63.3909H39.2519V60.4426H37.2242V63.2357H35.6001V59.9771H36.7587V59.677C36.7587 57.6184 36.7587 55.5597 36.7587 53.4907C36.7691 53.3562 36.7173 53.2218 36.6139 53.139C36.0966 52.6321 35.5897 52.1148 35.0725 51.6079C35.0104 51.5459 34.938 51.4838 34.8449 51.3907V66.3806H33.5724V55.239C33.4793 55.3321 33.4173 55.3839 33.3655 55.4356C32.9828 55.8184 32.6104 56.2011 32.2172 56.5839C32.1138 56.677 32.0621 56.8011 32.0724 56.9356C32.0724 59.0977 32.0724 61.2702 32.0724 63.4426V63.7013H30.9138V66.6082H27.7999V63.2461H30.4586V51.0803H29.662V48.9182H28.6792C28.6792 48.3493 28.6482 47.8113 28.6896 47.2734C28.7206 46.8596 28.5861 46.5596 28.2137 46.3527C28.2034 46.4147 28.2034 46.4665 28.193 46.5285C28.193 46.9113 28.2034 47.2941 28.1827 47.6768C28.1827 47.7803 28.1413 47.8734 28.0792 47.9561C27.6137 48.2872 27.4896 48.732 27.5413 49.2803C27.5827 49.7458 27.5516 50.2217 27.5413 50.6872C27.5413 50.6976 27.5309 50.7079 27.5206 50.7493H26.6723V61.115H25.3068V62.9047H23.755V60.6909H24.8309V54.2976C24.7688 54.3494 24.7171 54.3907 24.6757 54.4425C24.2205 54.8977 23.7654 55.3632 23.2998 55.8184C23.1964 55.9115 23.1343 56.0459 23.1447 56.1908C23.1447 59.5115 23.1447 62.8323 23.1447 66.1427V66.4323H21.4274V60.0598H19.8239C19.8239 59.9771 19.8136 59.9046 19.8136 59.8322C19.8136 58.7667 19.8136 57.7011 19.8136 56.6356C19.8136 56.5322 19.7825 56.4287 19.7205 56.346C18.9135 55.5287 18.0963 54.7114 17.279 53.9045C17.248 53.8838 17.2273 53.8631 17.1963 53.8425V63.2461H18.8929C18.9032 63.3392 18.9135 63.422 18.9135 63.4944C18.9135 64.3013 18.9135 65.1185 18.9135 65.9254C18.9135 66.1013 18.8618 66.153 18.686 66.153C18.0446 66.1427 17.4135 66.153 16.7411 66.153V63.7426H15.8307V66.6082H13.1824V63.2461H15.3652V62.9771C15.3652 57.1632 15.3652 51.339 15.3549 45.5147C15.3445 45.3906 15.2928 45.2664 15.21 45.163C15.0445 44.9561 14.8583 44.7595 14.6824 44.563L14.61 44.6147C14.61 44.9457 14.6204 45.2768 14.61 45.6078C14.5997 45.7113 14.5583 45.8044 14.4962 45.8871C14.2893 46.1251 13.9893 46.3113 13.8755 46.5699C13.7617 46.8389 13.8445 47.1699 13.8445 47.4803C13.8445 48.4941 13.8445 49.4975 13.8445 50.5321H13.2548V62.0461H12.1065V64.0323H10.0065V61.6012H11.6617V54.4735C11.6306 54.4942 11.5893 54.5149 11.5686 54.5356C10.6065 55.4977 9.6444 56.4494 8.69266 57.4115C8.62025 57.5046 8.57887 57.608 8.57887 57.7322C8.56852 60.5978 8.56852 63.4633 8.57887 66.3186V66.5875H4.46155V66.1634H8.0823C8.09265 66.0703 8.09265 65.9875 8.09265 65.9048C8.09265 63.1219 8.09265 60.3495 8.09265 57.5667C8.08231 57.4218 8.14438 57.2873 8.24783 57.1942C9.47888 55.9632 10.7099 54.7321 11.941 53.5011C11.9824 53.4597 12.0341 53.4183 12.1169 53.3459V61.5702H12.7996V50.0872H13.3996V49.8079C13.3996 48.7113 13.3996 47.6148 13.41 46.5285C13.4307 46.4044 13.4721 46.3009 13.5445 46.1975C13.5859 46.1354 13.6272 46.0837 13.6893 46.0423C14.1031 45.7527 14.2272 45.3595 14.1755 44.863C14.1341 44.4181 14.1652 43.963 14.1652 43.5078L14.2272 43.4767C14.4859 43.7561 14.7548 44.025 15.0135 44.3043C15.2307 44.5216 15.4376 44.7388 15.6652 44.9561C15.7687 45.0492 15.8307 45.1837 15.8204 45.3285C15.81 48.7941 15.81 52.2597 15.8204 55.7356C15.8204 58.1563 15.8204 60.5771 15.8204 63.0081C15.8204 63.0806 15.8307 63.1426 15.8307 63.2254H16.7101V52.7149C16.7928 52.7873 16.8445 52.8183 16.8756 52.8597C17.9618 53.9356 19.048 55.0218 20.1239 56.1184C20.1963 56.2011 20.2377 56.3046 20.2377 56.408C20.2481 57.3805 20.2377 58.3529 20.2377 59.3253V59.5736H21.8515V65.9565H22.6791V65.7082C22.6791 62.4702 22.6791 59.2219 22.6791 55.9839C22.6688 55.839 22.7309 55.6942 22.8447 55.5908C23.5998 54.8459 24.3447 54.1011 25.0895 53.3459C25.1412 53.2942 25.1826 53.2528 25.2757 53.17V60.6495H26.1861V50.2941H27.0861C27.0861 49.8493 27.1171 49.4251 27.0758 49.0217C27.024 48.5044 27.1482 48.101 27.5827 47.7906C27.6654 47.7079 27.7172 47.5837 27.7172 47.4596C27.7275 46.7872 27.7172 46.1251 27.7172 45.4526V45.2457L27.7792 45.2044C27.862 45.2975 27.9344 45.4009 28.0172 45.494C28.3275 45.8147 28.6586 46.1251 28.9586 46.4458C29.0413 46.5389 29.0827 46.6527 29.093 46.7768C29.1034 47.3251 29.1034 47.8837 29.1034 48.4527H30.0551V50.6148H30.8827V63.2357H31.5862V62.9771C31.5862 60.8978 31.5862 58.8288 31.5862 56.7494C31.5759 56.6149 31.6379 56.4908 31.731 56.3977C32.4655 55.6632 33.2 54.9287 33.9759 54.1528V65.9254H34.3587V50.2734C34.4518 50.3562 34.5035 50.4079 34.5552 50.4596C35.3828 51.2872 36.2001 52.1045 37.0277 52.9321C37.1311 53.0252 37.1829 53.1597 37.1829 53.3045C37.1829 55.4356 37.1829 57.5667 37.1829 59.6977V59.9564H39.6657V62.9357H39.9864V55.3321H40.7726V53.8218C41.0415 53.8218 41.2898 53.8114 41.5381 53.8218C41.5898 53.8218 41.6519 53.8838 41.6933 53.9149C42.0243 54.2459 42.3657 54.5666 42.6864 54.908C42.7485 54.9908 42.7899 55.1045 42.7795 55.208C42.7899 58.777 42.7899 62.3564 42.7795 65.9358V66.153H43.3795V61.115H44.652V59.915H45.614C45.614 59.8219 45.6244 59.7288 45.6244 59.646C45.6244 58.8391 45.6244 58.0425 45.6244 57.2356C45.6244 57.1425 45.6554 57.0494 45.7175 56.9667C46.1003 56.5632 46.4934 56.1804 46.9175 55.7459V64.7047H48.1589V55.1563H51.0245C51.0245 55.208 51.0348 55.2804 51.0348 55.3425C51.0348 56.5115 51.0348 57.6701 51.0348 58.8391C51.0245 58.9426 50.9831 59.0357 50.9107 59.1081C50.259 59.7702 49.6072 60.4219 48.9555 61.0736C48.9038 61.1357 48.8624 61.1978 48.821 61.2598L48.8727 61.3012C50.3003 59.8736 51.7176 58.4356 53.1452 57.008L53.1969 57.0287V57.246C53.1969 59.3046 53.1969 61.3633 53.1969 63.4323C53.1969 63.6185 53.2383 63.7013 53.4452 63.6806C53.7142 63.6599 53.9832 63.6806 54.2832 63.6806C54.2832 63.5875 54.2935 63.5047 54.2935 63.4219C54.2935 59.1081 54.2935 54.7839 54.2935 50.4596C54.2935 50.3562 54.3349 50.2631 54.397 50.1803C55.8453 48.7217 57.2936 47.2734 58.7522 45.8251C58.7833 45.794 58.8143 45.7733 58.8764 45.7113V58.9943C58.9074 59.0046 58.9488 59.015 58.9798 59.015C59.3626 58.9426 59.6212 59.1081 59.8798 59.3874C60.366 59.9046 60.873 60.4012 61.3799 60.8978C61.4833 60.9909 61.5454 61.1254 61.535 61.2702C61.5247 62.915 61.535 64.5702 61.535 66.2151V66.5048H65.4868V66.9496L61.1316 66.9703ZM48.6762 60.784C49.3279 60.1322 49.9383 59.5219 50.5486 58.9012C50.6003 58.8288 50.6314 58.746 50.6314 58.6529C50.6417 57.7115 50.6417 56.7804 50.6314 55.839C50.6314 55.7666 50.621 55.6942 50.621 55.6115H48.6762V60.784ZM28.2551 63.7013V66.153H30.4586V63.7013H28.2551ZM13.6479 63.7013V66.153H15.3652V63.7013H13.6479ZM58.4832 59.4908H56.4142V61.0943H58.4832V59.4908ZM17.1963 65.6565H18.4377V63.7116H17.1963V65.6565ZM11.6617 62.0667H10.472V63.5771H11.6617V62.0667ZM36.7484 62.7806V60.4219H36.0552V62.7806H36.7484ZM51.6245 64.1564V65.2116H52.7831V64.1461L51.6245 64.1564ZM46.5244 65.2116H45.7589V66.5151H46.5244V65.2116ZM24.2102 61.1254V62.4495H24.8309V61.1254H24.2102Z" fill="white"/>
<path d="M66.542 23.4695C59.197 6.0485 39.1277 -2.11372 21.7067 5.23125C19.1101 6.32782 16.6583 7.73474 14.4134 9.43133C13.7514 8.77959 13.1307 8.24165 12.572 8.552C12.0134 8.86235 12.1893 9.67961 12.2617 10.0417C12.3341 10.3727 12.4065 10.6934 12.4996 11.0038C11.9203 11.5107 11.3513 12.0486 10.7927 12.5969C8.59954 14.79 6.7064 17.2729 5.18568 19.9729C4.00635 20.1074 3.54083 20.3867 3.29255 20.635C3.06495 20.8522 2.94081 21.1522 2.9615 21.4626C2.99254 22.0936 3.40634 22.3523 3.91325 22.4661C3.75807 22.8074 3.6029 23.1385 3.45807 23.4902C-1.97307 36.3284 0.93388 51.1735 10.7927 61.022C11.2686 61.4978 11.7444 61.953 12.241 62.3875C12.3858 62.522 12.541 62.6461 12.6858 62.7806L12.7789 62.8634C12.9031 62.9668 13.0169 63.0703 13.141 63.1737C13.3686 63.3599 13.5858 63.5461 13.8238 63.722C15.3652 64.9427 17.0204 66.0289 18.748 66.96C18.9342 67.1566 19.1722 67.2807 19.4308 67.3221C20.1653 67.6945 20.9101 68.0462 21.6756 68.3669C25.6378 70.0428 29.8896 70.9532 34.2035 71.0463C34.4724 71.0566 34.7414 71.0566 35.0104 71.0566C38.2173 71.0566 41.4036 70.6118 44.4864 69.7325C44.6933 69.6704 44.8899 69.6187 45.0968 69.5463L45.4175 69.4531L45.6451 69.3807C45.8209 69.3187 46.0071 69.2566 46.183 69.1945C46.9072 68.9462 47.6313 68.6669 48.3451 68.3669C65.7454 60.9702 73.887 40.8802 66.542 23.4695ZM21.9032 7.05197C23.0205 10.6727 25.5861 11.9348 27.1275 12.7004C27.262 12.7624 27.3861 12.8245 27.4999 12.8866C27.862 13.0728 28.1827 13.3211 28.4413 13.6314C28.2034 13.6211 27.9758 13.6314 27.7378 13.6521C23.7757 11.0969 21.0343 11.2727 19.3273 11.3762C19.1204 11.3865 18.9342 11.3969 18.7687 11.4072C17.7445 11.4383 16.6169 11.0038 15.8307 10.5693C17.7135 9.18305 19.7515 8.00371 21.9032 7.05197ZM13.141 12.7624C13.8341 14.2521 14.7859 15.2763 16.0066 15.8452L16.079 15.8763C17.7963 16.6832 19.0997 17.2935 20.0204 18.5039C19.6584 19.2488 19.6273 20.0557 19.7929 20.6143C19.3894 21.0384 18.9859 21.4833 18.6032 21.9591C16.2755 21.1729 12.7169 20.2005 8.93058 19.9419C8.30988 19.9005 7.75125 19.8798 7.26503 19.8695C8.86851 17.2522 10.8444 14.8521 13.141 12.7624ZM2.49598 36.7939C2.49598 32.2731 3.43738 27.8144 5.2581 23.6764C6.67537 25.5385 7.80297 28.2489 5.88915 31.1248C4.92706 31.6421 4.62705 32.1593 4.81326 32.8318C4.87533 33.0594 5.03051 33.2456 5.23741 33.349C5.465 33.4628 5.71328 33.5145 5.96156 33.5042C6.07536 33.5042 6.18915 33.4938 6.30295 33.4835C7.47193 34.0318 8.54782 34.7559 9.48921 35.6456C10.6272 36.7215 11.0203 39.0595 11.1444 40.1871C10.9582 40.694 10.8754 41.2733 11.3203 41.5733C11.4444 41.6561 11.5789 41.6974 11.7237 41.6974C12.0134 41.6974 12.3444 41.5319 12.6341 41.2319C13.1824 41.1802 13.7203 41.1492 14.2686 41.1595C14.8169 41.1802 15.7066 41.563 16.648 42.3699C16.9066 42.794 17.2066 43.1871 17.5273 43.5596C17.9928 44.0768 18.4997 44.563 19.048 45.0079L19.0687 45.0285V45.0182C21.6653 47.1493 25.0999 48.5665 28.224 49.3838C29.1344 51.1631 29.331 52.9011 28.8241 54.546C28.1206 56.8219 26.1654 58.415 24.5826 59.1495C22.3377 60.1944 18.4997 60.9288 15.9652 61.4151C15.2824 61.5495 14.6928 61.6633 14.2272 61.7564C7.06848 55.7977 2.49598 46.8286 2.49598 36.7939ZM46.3071 67.26C46.5244 62.522 45.7382 58.1978 45.3864 56.5529C44.9209 54.3701 44.2278 51.4735 43.783 49.6735C44.6726 49.5183 45.552 49.3114 46.4209 49.0528C47.8589 48.6183 49.1417 47.9976 50.0727 47.5527C50.6417 47.2838 51.1279 47.0458 51.3659 46.9838L51.5003 46.9527C52.6693 46.6838 54.2107 46.3113 55.2763 45.9389C55.328 45.9803 55.3797 46.0217 55.4418 46.0424C55.5142 46.0734 55.597 46.0837 55.6694 46.0837C55.7729 46.0837 55.8763 46.063 55.9591 46.0113L56.0004 45.9906C57.097 45.3492 57.6867 44.263 57.9763 43.4975C59.7453 42.8871 60.366 41.294 60.9454 39.3181C61.5971 37.1353 61.5971 33.7318 60.9454 31.58C60.4178 29.7593 59.2901 28.1765 57.7591 27.0696C57.7281 26.4489 57.5625 25.6523 57.3453 24.7213L57.3143 24.5868C57.1487 23.8419 56.9211 23.4695 56.5694 23.335C56.1763 23.1902 55.8246 23.4281 55.659 23.5523C55.3797 23.7592 54.6866 24.2661 54.2418 24.5971L53.9521 24.804C53.7969 24.9178 53.6418 25.0316 53.5073 25.1454C52.8555 24.9385 52.3383 24.804 52.0073 24.7213C51.9038 23.904 51.5624 21.9385 50.59 20.0143C49.3279 17.4798 45.4278 15.1211 41.1139 14.2625L40.8036 14.2004C40.2553 13.2383 39.5105 12.5245 38.2277 12.2141C35.3725 9.01752 31.5345 8.552 29.1448 8.26234C28.8758 8.2313 28.6172 8.20027 28.3792 8.16923C26.5999 7.92095 24.924 6.783 24.1274 6.12092C27.6033 4.88986 31.2758 4.25881 34.969 4.25881C52.8866 4.25881 67.4627 18.8349 67.4627 36.7525C67.4938 50.739 58.6694 62.6565 46.3071 67.26Z" fill="#2D0106"/>
<path d="M45.8002 67.4877C45.7691 68.1187 45.7174 68.7498 45.645 69.3808L45.4277 69.4532C45.3243 69.4843 45.2105 69.5257 45.1071 69.5463C44.9002 69.6084 44.7036 69.6705 44.4967 69.7222C41.4139 70.6119 38.2276 71.0567 35.0207 71.0567C34.7517 71.0567 34.4827 71.0567 34.2137 71.0464C34.8965 70.1153 35.362 69.4636 35.362 69.4636C35.4034 69.4222 35.4448 69.3705 35.4862 69.3188C36.2207 68.4084 37.6069 65.8842 38.0828 64.7256C38.5793 63.4945 40.1828 61.3531 42.4587 61.3531C43.2553 61.3531 43.9174 61.5083 44.4346 61.7772C44.7243 61.9221 44.9829 62.129 45.2002 62.3669C45.3346 62.5221 45.4484 62.6876 45.5415 62.8738C45.676 63.1324 45.7691 63.4117 45.8105 63.7014C45.8622 64.9738 45.8622 66.2359 45.8002 67.4877Z" fill="#1B597F"/>
<path d="M45.8002 63.7117C45.7485 63.422 45.6658 63.1427 45.5313 62.8841C45.4382 62.6979 45.3244 62.5324 45.1899 62.3772C44.9726 62.1289 44.714 61.9323 44.4244 61.7875C43.9071 61.5185 43.2554 61.3634 42.4485 61.3634C40.1829 61.3634 38.5794 63.4944 38.0725 64.7358C37.5966 65.9048 36.2104 68.429 35.4759 69.329C35.4345 69.3808 35.3828 69.4325 35.3518 69.4739C35.3518 69.4739 34.8862 70.1256 34.2035 71.0567C29.8999 70.9635 25.6481 70.0532 21.6756 68.3773C20.9205 68.0566 20.1653 67.7049 19.4411 67.3324C19.3894 67.3221 19.348 67.3118 19.2963 67.3014C19.0894 67.2393 18.9032 67.1255 18.7584 66.9704C17.0204 66.0393 15.3755 64.9531 13.8341 63.7324C13.6065 63.5565 13.3789 63.3703 13.1513 63.1841C13.0272 63.0806 12.9134 62.9772 12.7893 62.8737L12.6962 62.791C13.0996 62.6461 13.441 62.5427 13.7307 62.4599C13.9789 62.3875 14.3203 62.3151 14.7548 62.222C15.3341 62.1082 16.048 61.9737 16.8445 61.8185C17.0928 61.7668 17.3411 61.7254 17.6101 61.6737H17.6307C20.0411 61.1875 22.9377 60.5358 24.8205 59.6668C25.6688 59.2737 26.455 58.7461 27.1378 58.115C27.8516 57.4736 28.4413 56.7081 28.8861 55.8598C29.4344 54.8046 29.693 53.6356 29.631 52.446C29.5689 51.4632 29.331 50.4907 28.9068 49.6011C28.8241 49.4252 28.7413 49.2493 28.6482 49.0735L28.5965 48.9804C28.5344 48.8562 28.462 48.7321 28.3896 48.608L29.1758 48.5873L29.5792 48.5769L42.8933 48.1942C42.8933 48.1942 42.945 48.4217 43.0485 48.8045C43.0898 48.9493 43.1312 49.1252 43.1726 49.3114C43.1829 49.3321 43.1829 49.3631 43.1933 49.3838C43.2243 49.5183 43.2657 49.6631 43.2967 49.8183C43.545 50.8218 43.8657 52.177 44.1864 53.5529V53.5632C44.2795 53.9977 44.3933 54.4425 44.4864 54.877C44.6313 55.5184 44.7657 56.1391 44.8899 56.7081C45.3761 59.0047 45.6761 61.353 45.8002 63.7117Z" fill="#123854"/>
<g opacity="0.4">
<path d="M20.9721 61.4566C19.7307 61.9428 18.479 62.3566 17.1962 62.7083C16.8238 62.8014 16.3789 62.9256 15.872 63.0704C15.2617 63.2463 14.5789 63.4635 13.8444 63.7221C13.6168 63.5463 13.3892 63.3601 13.1616 63.1738C13.0375 63.0704 12.9237 62.9669 12.7996 62.8635C13.5444 62.6359 14.2272 62.4394 14.8479 62.2738C15.6134 62.0669 16.2858 61.9118 16.8445 61.798C17.1238 61.7359 17.3824 61.6945 17.61 61.6531H17.6307C18.541 61.4876 19.0169 61.4462 19.0169 61.4462H20.9721V61.4566Z" fill="white"/>
</g>
<g opacity="0.4">
<path d="M29.7034 53.5426L30.1379 53.0254L31.1207 52.8599C31.1207 52.8599 31.6379 56.8324 27.2827 59.8531C26.9206 59.3772 26.4965 58.7772 26.4965 58.7772C26.4965 58.7772 29.8689 55.4254 29.7034 53.5426Z" fill="white"/>
</g>
<g opacity="0.4">
<path d="M45.5105 67.5909C45.4898 68.253 45.4484 68.8841 45.4174 69.453C45.314 69.4841 45.2002 69.5255 45.0967 69.5461C44.8898 69.6082 44.6933 69.6703 44.4864 69.722C44.5381 69.122 44.5691 68.5116 44.5898 67.8702C44.6312 66.5771 44.6208 65.1909 44.5588 63.6598C44.5277 63.0081 44.4864 62.3874 44.4243 61.777C43.8967 56.439 42.2518 52.901 42.2518 52.901L43.5346 53.0769L44.176 53.532V53.5424C44.1967 53.6148 44.3105 54.07 44.476 54.8562C44.7036 55.9631 45.0346 57.7218 45.314 60.0494C45.4174 60.9184 45.4898 61.8805 45.5209 62.8736C45.5829 64.4564 45.5726 66.1012 45.5105 67.5909Z" fill="white"/>
</g>
<path d="M42.8828 48.1837L29.5688 48.5665C29.8998 48.6699 30.2102 48.7734 30.5205 48.8665L30.7067 48.9286L30.9964 49.0217L31.0895 49.0527L42.4794 48.732C42.4897 48.7837 42.5001 48.8251 42.5208 48.8872C42.6966 48.8562 42.8621 48.8355 43.038 48.8044C42.9449 48.4113 42.8828 48.1837 42.8828 48.1837ZM45.3967 56.5942C44.9311 54.4114 44.238 51.5148 43.8035 49.7251L43.7001 49.2906L43.6794 49.2182C43.638 49.032 43.5966 48.8562 43.5553 48.7113C43.4622 48.3079 43.4001 48.0699 43.3897 48.0596L43.2966 47.6561L28.1619 48.0803L27.4791 48.101V48.1113L27.8722 48.7837L27.9239 48.8665C28.0377 49.0527 28.1412 49.2389 28.2343 49.4251C29.1446 51.2045 29.3412 52.9424 28.8343 54.5873C28.1308 56.8632 26.1756 58.4563 24.5928 59.1908C22.348 60.2357 18.51 60.9702 15.9754 61.4667C15.2927 61.6012 14.703 61.715 14.2375 61.8081C13.9788 61.8598 13.7616 61.9116 13.5857 61.9633C13.2547 62.0564 12.8099 62.2012 12.2512 62.4081C12.3961 62.5426 12.5409 62.6668 12.6961 62.8012L12.7892 62.884C12.9133 62.9875 13.0271 63.0909 13.1512 63.1944C13.4306 63.1012 13.6685 63.0288 13.865 62.9771C14.1651 62.8944 14.672 62.7806 15.2927 62.6668L16.172 62.5012C17.5479 62.2323 19.2858 61.9012 20.9721 61.4771C22.4721 61.1047 23.9204 60.6598 25.0273 60.1529C25.6273 59.8736 26.2067 59.5322 26.7446 59.1288C28.2136 58.0218 29.3309 56.5322 29.8378 54.908C30.024 54.308 30.1274 53.6769 30.1481 53.0459C30.1585 52.8183 30.1481 52.5907 30.1378 52.3631C30.0757 51.4631 29.8688 50.5838 29.5274 49.7458C29.4446 49.5493 29.3619 49.3527 29.2584 49.1458L29.2377 49.1044H29.3515L30.9447 49.0631H31.0895L42.4794 48.7424C42.4897 48.7941 42.5001 48.8355 42.5208 48.8975L42.6449 49.4044C42.6863 49.5596 42.7277 49.7251 42.769 49.9113C42.9449 50.6252 43.1621 51.5355 43.3897 52.4976L43.5346 53.1183C43.8242 54.3804 44.1346 55.7046 44.3725 56.8322C44.7553 58.6736 45.0243 60.5357 45.1794 62.4081C45.3243 64.1668 45.3553 65.9358 45.2518 67.6944C45.2105 68.3151 45.1587 68.9462 45.076 69.5772C45.1794 69.5462 45.2932 69.5048 45.3967 69.4841L45.6139 69.4117C45.7898 69.3496 45.976 69.2876 46.1519 69.2358C46.2243 68.5945 46.2657 67.9634 46.2967 67.3324C46.545 62.553 45.7484 58.2391 45.3967 56.5942Z" fill="#2D0106"/>
<g opacity="0.2">
<path d="M33.2827 53.4183C32.693 53.2632 32.2171 53.7494 32.062 54.2356C31.8654 54.8563 31.9792 55.5494 32.5171 55.6839C33.0551 55.8184 33.5723 55.6218 33.8206 54.9287C34.0585 54.2563 33.862 53.5735 33.2827 53.4183Z" fill="#2D0106"/>
</g>
<g opacity="0.2">
<path d="M30.2929 60.6082C30.117 60.8255 29.9308 61.291 30.2929 61.8496C30.655 62.3979 31.3895 62.5014 31.6584 62.1497C31.9274 61.7979 31.7826 61.1979 31.3377 60.8151C30.8929 60.4324 30.4895 60.3807 30.2929 60.6082Z" fill="#2D0106"/>
</g>
<g opacity="0.2">
<path d="M21.0859 66.1944C21.0652 66.2772 21.0445 66.36 21.0135 66.4324C20.7445 67.0427 20.1031 67.4152 19.4411 67.3324C19.3893 67.3221 19.348 67.3117 19.2962 67.3014C19.0893 67.2393 18.9031 67.1255 18.7583 66.9703C18.4066 66.5876 18.2824 66.0496 18.4272 65.5427C18.4893 65.3255 18.5824 65.1186 18.7169 64.9427C19.0376 64.4772 19.5755 64.1254 20.2169 64.2496C21.0238 64.3944 21.2411 65.491 21.0859 66.1944Z" fill="#2D0106"/>
</g>
<path d="M18.7893 11.9659C17.0927 12.0176 15.241 10.9624 14.6306 10.4142C14.0306 9.86587 12.3237 7.85894 12.7789 9.95898C13.234 12.059 14.0927 14.4177 16.2341 15.4108C18.3652 16.4143 19.9687 17.1488 20.9721 19.0833L28.5964 14.9142C23.6411 11.2624 20.4963 11.9142 18.7893 11.9659Z" fill="#FF9971"/>
<g opacity="0.4">
<path d="M13.0375 9.11072L13.2858 9.85556C13.2858 9.85556 14.1547 12.2349 17.0617 12.7315C19.9686 13.228 21.9652 12.5556 23.848 13.5694C25.7308 14.5832 25.9481 14.8315 25.9481 14.8315L27.324 14.0556C27.324 14.0556 23.6618 11.8728 20.8583 11.8935C18.0548 11.9246 15.8099 11.3246 14.4237 10.2176L13.0375 9.11072Z" fill="white"/>
</g>
<g opacity="0.2">
<path d="M14.2789 11.6555C14.6514 12.7107 15.2617 13.9728 17.2893 14.697C19.317 15.4211 20.579 16.4039 21.5411 17.5936L23.3412 16.1556C23.3412 16.1556 22.4205 15.3487 20.217 14.4694C18.0445 13.6004 15.9548 13.9211 14.2789 11.6555Z" fill="#2D0106"/>
</g>
<path d="M29.4654 14.9142L29.4137 14.8728L28.9275 14.5108L28.8965 14.4901C28.7827 14.4073 28.6792 14.3349 28.5758 14.2521L28.4827 14.1901C28.224 14.0142 27.9758 13.8383 27.7378 13.6832C23.7757 11.1279 21.0342 11.3038 19.3273 11.4073C19.1204 11.4176 18.9342 11.4279 18.7687 11.4383C17.7445 11.4693 16.6169 11.0348 15.8307 10.6003C15.5307 10.4348 15.241 10.2486 14.9824 10.021C14.8996 9.93826 14.7858 9.83481 14.6617 9.71067L14.4134 9.47273C13.7513 8.82099 13.1306 8.28305 12.572 8.5934C12.0134 8.89341 12.1892 9.72101 12.2617 10.0727C12.3341 10.4038 12.4065 10.7245 12.4996 11.0348C12.6651 11.6452 12.8824 12.2349 13.141 12.8142C13.8238 14.3039 14.7858 15.328 16.0066 15.897L16.079 15.928C17.7859 16.7349 19.0997 17.3453 20.0204 18.5557C20.1446 18.7212 20.2584 18.897 20.3618 19.0729C20.3929 19.1246 20.4239 19.166 20.4446 19.2281C20.4653 19.2591 20.4756 19.2902 20.4963 19.3212L20.7342 19.7867L21.7998 19.2281L26.1447 16.8487L28.5965 15.5142L29.1034 15.2349L29.5585 14.9866L29.4654 14.9142ZM21.8101 18.0384L21.1687 18.3901C21.1067 18.297 21.0446 18.1936 20.9722 18.1005C20.8791 17.9557 20.7653 17.8108 20.6515 17.6867C20.4135 17.4074 20.1549 17.1487 19.8756 16.9108C19.7411 16.797 19.6066 16.6936 19.4618 16.5901C18.6239 15.9798 17.6307 15.5142 16.5135 14.997L16.4411 14.9659C16.0893 14.8004 15.7686 14.5935 15.4686 14.3349C15.3031 14.1901 15.1479 14.0349 15.0031 13.8694C14.5583 13.3418 14.1962 12.7418 13.9376 12.1004C13.6996 11.521 13.5031 10.9107 13.3582 10.3003C13.3272 10.1555 13.2962 10.0107 13.2651 9.86584C13.2651 9.8555 13.2651 9.8555 13.2651 9.84515C13.3582 9.93826 13.472 10.0314 13.5755 10.1245C13.71 10.2486 13.8238 10.3727 13.9065 10.4555C14.041 10.59 14.1651 10.7141 14.2583 10.7969C14.4652 10.9831 14.6824 11.1383 14.9203 11.2831C15.3031 11.5314 15.7169 11.7383 16.1307 11.9142C16.3066 11.9866 16.4928 12.059 16.6893 12.1314C17.3618 12.3693 18.0652 12.4935 18.779 12.4831C18.9652 12.4831 19.1618 12.4624 19.3687 12.4521L19.4721 12.4418C19.7515 12.4211 20.0618 12.4107 20.3929 12.4004C21.8101 12.39 23.755 12.6073 26.2895 14.0452C26.455 14.1383 26.6206 14.2314 26.7757 14.3349L26.8585 14.3866L26.9619 14.4487C27.1275 14.5418 27.2826 14.6556 27.4482 14.7694L27.562 14.8418L21.7584 18.0177L21.8101 18.0384Z" fill="#2D0106"/>
<path d="M28.3482 8.75883C25.7929 8.4071 23.5481 6.40016 23.2894 6.05878C23.0412 5.71739 21.8929 4.85875 22.3377 6.71051C23.4343 10.6106 26.3102 11.7278 27.7378 12.4623C29.693 13.4658 29.6413 15.5141 29.6413 15.5141L38.7553 13.7658C35.7035 9.26573 30.893 9.11056 28.3482 8.75883Z" fill="#FF9971"/>
<g opacity="0.4">
<path d="M22.6067 5.71753C22.6067 5.71753 23.0308 7.16583 23.0515 7.20721C23.9515 7.87964 24.7585 8.81069 27.4688 9.44174C30.1792 10.0728 32.031 10.1142 33.9966 11.1073C35.9621 12.1108 36.2932 12.6487 36.2932 12.6487L37.5035 12.4521C37.5035 12.4521 35.5069 10.3728 32.931 9.65898C30.3448 8.94518 28.1206 8.97621 26.6102 8.28309C25.0998 7.58998 22.6067 5.71753 22.6067 5.71753Z" fill="white"/>
</g>
<g opacity="0.2">
<path d="M23.8584 8.04498C24.5308 9.25535 25.5446 10.2278 26.7757 10.8485C28.3999 11.6864 30.262 12.3175 30.4896 14.4692C30.8309 14.3554 32.5068 12.9382 32.5068 12.9382C32.5068 12.9382 31.793 11.5416 28.5964 10.7347C25.3998 9.92778 23.8584 8.04498 23.8584 8.04498Z" fill="#2D0106"/>
</g>
<path d="M39.6035 14.0867L39.1897 13.4764C39.0966 13.3315 38.9932 13.1867 38.8897 13.0522C38.6932 12.7832 38.4863 12.5246 38.269 12.2867C35.4138 9.09006 31.5758 8.62454 29.1861 8.33488C28.9171 8.30384 28.6585 8.27281 28.4206 8.24177C26.6412 8.00384 24.9653 6.85554 24.1688 6.18311C24.0033 6.04863 23.8481 5.9038 23.7136 5.74862C23.486 5.42792 22.7929 4.82791 22.1929 5.09688C21.4894 5.41758 21.7377 6.44174 21.8308 6.8245V6.84519C21.8515 6.92795 21.8825 7.01071 21.9032 7.08313C23.0205 10.7039 25.586 11.966 27.1275 12.7315C27.2619 12.7936 27.3861 12.8557 27.4999 12.9177C28.0585 13.197 28.524 13.6522 28.8033 14.2212C28.8137 14.2419 28.824 14.2626 28.8344 14.2833C28.8758 14.3557 28.9068 14.4384 28.9275 14.5109C28.9585 14.604 28.9896 14.6971 29.0206 14.7902C29.0413 14.8729 29.062 14.9453 29.0723 15.0178C29.0827 15.0902 29.093 15.1626 29.1034 15.2247C29.1137 15.3178 29.124 15.4109 29.124 15.504V15.6385V15.7316V15.7936L29.1137 16.1557L31.2862 15.7419L33.9965 15.2247L35.6104 14.9143L36.6656 14.7074H36.6863L37.9483 14.4591L39.4898 14.1695L39.6139 14.1488L39.6035 14.0867ZM29.8172 13.9315C29.4551 13.0936 28.8033 12.4108 27.9861 12.0074C27.8619 11.9453 27.7378 11.8832 27.593 11.8108L27.5206 11.7694C27.3654 11.697 27.1999 11.6142 27.0343 11.5211C26.2585 11.1384 25.5447 10.6522 24.9136 10.0728C24.7895 9.95904 24.6757 9.8349 24.5515 9.71076C23.8895 8.98661 23.3722 8.12797 23.0412 7.19692V7.18658C23.0412 7.18658 23.0412 7.18658 23.0412 7.17623C22.9791 7.01071 22.9274 6.84519 22.8756 6.66933C22.8653 6.63829 22.855 6.59691 22.8446 6.56588C22.8239 6.49346 22.8136 6.42105 22.8032 6.35898C22.7929 6.3176 22.7929 6.28656 22.7825 6.25553C22.8136 6.28656 22.8446 6.3176 22.8653 6.34863C22.9274 6.43139 22.9998 6.51415 23.0825 6.58657C23.7964 7.26934 24.6033 7.83831 25.4722 8.30384L25.4826 8.31419C26.3102 8.75902 27.2619 9.13144 28.2654 9.26593L28.493 9.29696C28.6689 9.31765 28.8551 9.33834 29.0413 9.36938L29.2999 9.40041C30.5723 9.55559 32.1034 9.76249 33.6448 10.3625C33.9448 10.4763 34.2448 10.6108 34.5448 10.7556C35.2793 11.1177 35.9621 11.5625 36.5725 12.0901C36.7276 12.2246 36.8828 12.3694 37.038 12.5143L37.1518 12.6281C37.3276 12.8143 37.5035 13.0005 37.6794 13.2074C37.7311 13.2695 37.7725 13.3315 37.8346 13.3936L35.538 13.8384H35.5276L31.6689 14.5833L31.0275 14.7074H31.0172L30.9344 14.7178L30.5723 14.7902L30.5413 14.8005L30.0861 14.8833C30.0758 14.8005 30.0551 14.7178 30.0344 14.635L30.0241 14.6143V14.604L30.0137 14.5626C29.9827 14.3557 29.9103 14.1384 29.8172 13.9315Z" fill="#2D0106"/>
<path d="M19.2239 17.1694L19.7204 17.3142C19.9066 16.6625 20.5273 15.6901 21.4481 14.8314C22.0377 14.2728 23.4446 13.2073 23.4446 13.2073C23.4446 13.2073 21.8825 13.6004 20.9515 14.5832C20.1135 15.4728 19.4411 16.4142 19.2239 17.1694Z" fill="#2D0106"/>
<path d="M17.9928 14.2314C17.9928 14.2314 19.7101 12.5452 21.086 12.1521L20.9308 11.6555C19.7411 12.0176 18.2928 13.4038 17.9928 14.2314Z" fill="#2D0106"/>
<path d="M14.9824 14.8313L15.4996 14.7486C15.4996 14.7279 15.241 13.052 17.0721 11.883L16.7927 11.4382C14.6617 12.7934 14.972 14.7486 14.9824 14.8313Z" fill="#2D0106"/>
<path d="M30.1791 12.628C30.9239 12.0797 31.7308 11.6142 32.5791 11.2521C33.386 10.9107 34.2654 10.7348 35.1447 10.7348V10.2176C34.1929 10.2176 33.2516 10.4038 32.3722 10.7762C31.4722 11.1486 30.6963 11.79 30.1791 12.628Z" fill="#2D0106"/>
<path d="M26.9723 12.2039L27.4895 12.2142C27.5413 9.87623 29.7551 9.2245 29.8482 9.19346L29.7034 8.6969C29.6827 8.6969 27.024 9.48312 26.9723 12.2039Z" fill="#2D0106"/>
<path d="M24.3964 10.6108L24.9033 10.4763C24.8619 9.44179 25.524 8.28314 25.524 8.28314C25.524 8.28314 24.3964 9.25557 24.3964 10.6108Z" fill="#2D0106"/>
<path d="M35.9828 12.6382C32.9827 12.7934 31.0482 14.252 30.1896 15.2141H40.7208C39.9863 13.5072 38.9932 12.483 35.9828 12.6382Z" fill="#F7941E"/>
<g opacity="0.4">
<path d="M35.9828 12.6382C32.9827 12.7934 31.0482 14.252 30.1896 15.2141H40.7208C39.9863 13.5072 38.9932 12.483 35.9828 12.6382Z" fill="white"/>
</g>
<path d="M31.0378 14.7177L31.1102 14.7073L31.2654 14.6866L31.6275 14.6349L31.6792 14.5935L31.0378 14.7177ZM31.0378 14.7177L31.1102 14.7073L31.2654 14.6866L31.6275 14.6349L31.6792 14.5935L31.0378 14.7177ZM31.0378 14.7177L31.1102 14.7073L31.2654 14.6866L31.6275 14.6349L31.6792 14.5935L31.0378 14.7177ZM31.0378 14.7177L31.1102 14.7073L31.2654 14.6866L31.6275 14.6349L31.6792 14.5935L31.0378 14.7177ZM31.0378 14.7177L31.1102 14.7073L31.2654 14.6866L31.6275 14.6349L31.6792 14.5935L31.0378 14.7177ZM31.0378 14.7177L31.1102 14.7073L31.2654 14.6866L31.6275 14.6349L31.6792 14.5935L31.0378 14.7177ZM31.0378 14.7177L31.1102 14.7073L31.2654 14.6866L31.6275 14.6349L31.6792 14.5935L31.0378 14.7177ZM31.0378 14.7177L31.1102 14.7073L31.2654 14.6866L31.6275 14.6349L31.6792 14.5935L31.0378 14.7177ZM31.0378 14.7177L31.1102 14.7073L31.2654 14.6866L31.6275 14.6349L31.6792 14.5935L31.0378 14.7177ZM41.3932 15.4625L41.3104 15.2763L41.1966 15.0177C41.1759 14.9763 41.1552 14.9246 41.1346 14.8832C41.0415 14.6763 40.9483 14.4797 40.8449 14.2935C40.2966 13.3314 39.5518 12.628 38.2586 12.2969C37.9793 12.2245 37.6897 12.1831 37.4 12.1521C37.3172 12.1418 37.2345 12.1314 37.1517 12.1314C36.9759 12.1211 36.7897 12.1107 36.5931 12.1107C36.3965 12.1107 36.1793 12.1107 35.9517 12.1314C35.8689 12.1314 35.7862 12.1418 35.7034 12.1521C34.5965 12.2349 33.5103 12.5038 32.4965 12.9487C31.762 13.2797 31.0792 13.7039 30.4688 14.2211C30.4585 14.2314 30.4482 14.2314 30.4482 14.2418C30.293 14.3763 30.1688 14.4901 30.0654 14.6039C30.055 14.6142 30.055 14.6142 30.0447 14.6246L30.024 14.6452L30.0137 14.6556C29.9206 14.7487 29.8481 14.8211 29.7964 14.8832L29.6826 15.0177L29.5999 15.1108L29.1136 15.6591L29.0309 15.7522H41.507L41.3932 15.4625ZM31.5551 14.697C31.5654 14.6866 31.5758 14.6866 31.5861 14.6763C31.5965 14.6659 31.6171 14.6556 31.6378 14.6349L31.6896 14.5935C32.0206 14.3659 32.362 14.159 32.7137 13.9935C33.7482 13.497 34.8655 13.2073 36.0138 13.1556C36.5724 13.1142 37.1414 13.1349 37.7 13.2176C37.9897 13.259 38.269 13.3418 38.538 13.4556C38.869 13.5901 39.169 13.797 39.4173 14.0659C39.4483 14.097 39.469 14.128 39.5 14.159C39.6345 14.3142 39.7483 14.4797 39.8621 14.6452L39.8828 14.6866L31.5551 14.697ZM31.0378 14.7177L31.1102 14.7073L31.2654 14.6866L31.6275 14.6349L31.6792 14.5935L31.0378 14.7177ZM31.0378 14.7177L31.1102 14.7073L31.2654 14.6866L31.6275 14.6349L31.6792 14.5935L31.0378 14.7177ZM31.0378 14.7177L31.1102 14.7073L31.2654 14.6866L31.6275 14.6349L31.6792 14.5935L31.0378 14.7177ZM31.0378 14.7177L31.1102 14.7073L31.2654 14.6866L31.6275 14.6349L31.6792 14.5935L31.0378 14.7177ZM31.0378 14.7177L31.1102 14.7073L31.2654 14.6866L31.6275 14.6349L31.6792 14.5935L31.0378 14.7177ZM31.0378 14.7177L31.1102 14.7073L31.2654 14.6866L31.6275 14.6349L31.6792 14.5935L31.0378 14.7177ZM31.0378 14.7177L31.1102 14.7073L31.2654 14.6866L31.6275 14.6349L31.6792 14.5935L31.0378 14.7177ZM31.0378 14.7177L31.1102 14.7073L31.2654 14.6866L31.6275 14.6349L31.6792 14.5935L31.0378 14.7177ZM31.0378 14.7177L31.1102 14.7073L31.2654 14.6866L31.6275 14.6349L31.6792 14.5935L31.0378 14.7177Z" fill="#2D0106"/>
<path d="M4.48218 22.0315C5.82703 23.3557 9.49951 27.473 5.95117 31.9834C5.98221 32.3662 6.38566 32.9869 6.38566 32.9869C7.66844 33.5559 8.83743 34.3421 9.86159 35.3042C11.5582 36.9077 11.7237 40.8388 11.7237 40.8388C11.7237 40.8388 13.3272 40.6422 14.2893 40.6733C15.2617 40.7043 16.7721 41.5526 18.0962 43.1043C17.8273 41.9353 14.7548 34.0938 18.6962 24.8143C18.7893 24.6385 8.54777 20.3763 4.48218 22.0315Z" fill="#FF9971"/>
<g opacity="0.2">
<path d="M6.78906 22.3317C6.78906 22.3317 10.3891 26.8007 7.99943 30.7008C7.60632 31.2698 8.33047 32.5008 8.33047 32.5008C8.33047 32.5008 12.034 33.9077 12.603 38.232C12.603 38.8216 13.772 39.5251 13.772 39.5251C13.772 39.5251 15.1168 39.2354 16.1823 40.4975C15.7272 39.0803 14.2271 30.856 16.9893 25.6317C15.2927 24.7214 6.78906 22.3317 6.78906 22.3317Z" fill="#2D0106"/>
</g>
<path d="M19.0686 24.442C19.0065 24.3799 18.7582 24.2454 18.3858 24.0696C18.241 24.0075 18.0858 23.9351 17.8996 23.8523C17.7444 23.7903 17.5893 23.7179 17.4134 23.6454C15.7478 22.973 14.0409 22.4144 12.3133 21.9592C10.3684 21.4523 8.29942 21.0902 6.56146 21.1419C5.98214 21.1523 5.40282 21.2247 4.83384 21.3695C4.68901 21.4109 4.54418 21.4523 4.40969 21.504L4.389 21.5144L4.2959 21.5557L3.65451 21.8144L3.5614 21.8557L4.00624 22.3006L4.12003 22.4144L4.25452 22.5489C4.62694 22.9213 4.96833 23.3144 5.27868 23.7282C6.69594 25.5903 7.82355 28.3007 5.90972 31.1766C5.79593 31.3421 5.68213 31.5077 5.54765 31.6732L5.42351 31.8387L5.4442 32.0456C5.4442 32.0766 5.45454 32.1077 5.45454 32.1387C5.52696 32.449 5.64075 32.7491 5.80627 33.018C5.87869 33.1422 5.93041 33.2353 5.96145 33.2767L6.05455 33.4111L6.20973 33.4732C6.20973 33.4732 6.25111 33.4939 6.33387 33.5249C7.50286 34.0732 8.57874 34.7974 9.52013 35.687C10.6581 36.7629 11.0512 39.1009 11.1753 40.2285C11.2167 40.6113 11.2271 40.8596 11.2271 40.8699L11.2478 41.4389L11.8064 41.3665C11.8167 41.3665 12.1788 41.3251 12.6547 41.2734C13.203 41.2216 13.7409 41.1906 14.2892 41.2009C14.8375 41.2216 15.7271 41.6044 16.6685 42.4113C17.041 42.732 17.3927 43.0837 17.7134 43.4562L19.0686 45.0493L19.0893 45.07V45.0596L18.8927 44.201L18.6858 43.2699L18.6238 42.9906C18.5927 42.8561 18.541 42.6803 18.4582 42.4217C18.3755 42.132 18.2617 41.7596 18.1479 41.3251C17.6927 39.6699 17.4134 37.9733 17.2892 36.256C17.0513 32.7491 17.5686 29.2214 18.8203 25.942C18.9341 25.642 19.0582 25.3317 19.1927 25.0213C19.2651 24.8351 19.2134 24.5972 19.0686 24.442ZM17.5582 26.3765C17.4444 26.7076 17.341 27.0386 17.2375 27.3696C16.9996 28.1559 16.8134 28.9421 16.6582 29.7387C16.5134 30.5145 16.3996 31.3008 16.3168 32.087C16.3065 32.1904 16.2961 32.2939 16.2858 32.4077V32.418C16.2444 32.8835 16.2237 33.3491 16.203 33.8146C16.1823 34.5491 16.1927 35.2939 16.2341 36.0388C16.2651 36.6595 16.3272 37.2491 16.3892 37.8078C16.5134 38.8009 16.6789 39.6802 16.8444 40.4458C16.9168 40.7871 16.9996 41.1078 17.072 41.3975C16.8858 41.2527 16.6892 41.1078 16.503 40.9837C16.2651 40.8285 16.0168 40.6837 15.7582 40.5595C15.3133 40.332 14.8168 40.1871 14.3202 40.1561C14.2375 40.1561 14.1547 40.1561 14.0719 40.1561C13.9581 40.1561 13.834 40.1561 13.7099 40.1664C13.4512 40.1768 13.1926 40.1871 12.934 40.2078C12.6754 40.2285 12.4167 40.2492 12.2098 40.2699C12.1892 40.0423 12.1581 39.7733 12.1167 39.4526C12.0754 39.2147 12.034 38.9457 11.9719 38.6664C11.7029 37.3836 11.196 35.8422 10.2236 34.9215C9.49944 34.2387 8.70288 33.6491 7.84424 33.1422C7.60631 32.9973 7.38906 32.8835 7.20285 32.7904C7.01664 32.6973 6.85112 32.6146 6.74767 32.5732C6.71663 32.5215 6.6856 32.4594 6.65456 32.3973C6.60284 32.3042 6.56146 32.2008 6.52008 32.1077C6.55111 32.0663 6.58215 32.0249 6.61318 31.9835C6.78905 31.7352 6.95457 31.4766 7.0994 31.218C7.22354 31.0007 7.32699 30.7732 7.43044 30.5456C8.50632 28.0214 7.93735 25.2593 5.76489 22.6627L5.72351 22.6213C5.63041 22.5178 5.5373 22.404 5.4442 22.3006C5.62006 22.2695 5.79593 22.2385 5.98214 22.2178C6.11662 22.2075 6.25111 22.1971 6.38559 22.1868C7.927 22.104 9.83049 22.4247 11.6719 22.8902H11.6822C13.4306 23.3351 15.1478 23.8937 16.8341 24.5455C17.0099 24.6075 17.1755 24.6799 17.3203 24.742C17.5065 24.8144 17.6617 24.8868 17.8065 24.9489C17.8893 24.9903 17.972 25.0213 18.0444 25.0524C17.9617 25.2593 17.8789 25.4765 17.7962 25.6938C17.7341 25.8696 17.6617 26.0455 17.5996 26.2317L17.5582 26.3765Z" fill="#2D0106"/>
<path d="M5.32015 32.7387C5.41326 33.1008 6.18914 33.1422 7.38916 32.7387C8.58918 32.3353 13.8651 31.5697 15.9962 31.5697L16.1824 29.0352C12.3755 29.5835 10.3892 30.1008 7.79261 30.9697C5.19601 31.8387 5.22705 32.3663 5.32015 32.7387Z" fill="#123854"/>
<path d="M16.4305 28.4661L16.1098 28.5179L16.0167 28.5282L15.9236 28.5385H15.9029L15.365 28.6213C12.2408 29.0972 10.3787 29.573 8.25797 30.2662C8.05107 30.3282 7.85452 30.4006 7.63727 30.4731L7.44072 30.5455C7.19244 30.6282 6.96485 30.711 6.75794 30.8041C6.47863 30.9179 6.19931 31.042 5.93034 31.1765C4.96826 31.6834 4.65791 32.2007 4.84412 32.8835C4.90619 33.111 5.06136 33.2973 5.26826 33.4007C5.49585 33.5145 5.74413 33.5662 5.99241 33.5559C6.10621 33.5559 6.22 33.5455 6.3338 33.5352C6.61311 33.5042 6.88209 33.4421 7.15106 33.3697C7.28554 33.3283 7.42003 33.2869 7.56486 33.2455C7.63727 33.2248 7.73038 33.1938 7.84417 33.1628C8.14418 33.0904 8.57867 32.9972 9.09592 32.9041C10.6994 32.6145 13.0891 32.2834 14.8167 32.1593C14.9926 32.149 15.1684 32.1386 15.334 32.1283H15.365H15.4167C15.5719 32.1179 15.7064 32.1179 15.8512 32.1179H16.4926L16.6271 30.2558L16.6581 29.7799L16.7512 28.4661H16.4305ZM14.9202 31.0938C12.8822 31.2282 9.76835 31.6731 8.1028 32.0248C7.81314 32.0869 7.51313 32.1593 7.23382 32.2421C7.01657 32.3145 6.83036 32.3662 6.66484 32.4076C6.48897 32.449 6.31311 32.48 6.1269 32.5007C6.03379 32.511 5.93034 32.511 5.83724 32.5007C5.89931 32.4283 5.96138 32.3559 6.04414 32.3041C6.23035 32.18 6.41656 32.0765 6.62346 31.9834C7.05795 31.7869 7.49244 31.6214 7.94762 31.4765L7.97866 31.4662C10.2235 30.7213 12.0443 30.2144 15.1478 29.7282C15.3029 29.7075 15.4685 29.6765 15.634 29.6558L15.6029 30.0489L15.5616 30.5765L15.5305 30.98L15.5202 31.0731H15.4995H15.4374C15.2822 31.0627 15.1064 31.0731 14.9202 31.0938Z" fill="#2D0106"/>
<path d="M11.9514 39.7423C11.0307 41.5113 11.8376 41.4078 12.3031 40.8802C12.7686 40.3423 14.8376 38.2112 16.0066 37.4457L15.8101 34.8801C14.5997 35.9457 12.8617 37.9733 11.9514 39.7423Z" fill="#123854"/>
<path d="M16.234 33.7835L16.1926 33.8145L16.1823 33.8249L15.7581 34.2077L15.4478 34.4766L15.3753 34.5387C15.334 34.5801 15.2822 34.6215 15.2409 34.6628L15.1891 34.7146C15.0443 34.849 14.8891 35.0042 14.734 35.1594C13.9374 35.9767 13.2029 36.8663 12.5408 37.7974C12.3339 38.087 12.1477 38.3664 11.9718 38.656C11.827 38.8836 11.6925 39.1215 11.5684 39.3388L11.496 39.4836C11.3718 39.7215 11.258 39.9595 11.1649 40.2078C10.9891 40.7147 10.896 41.294 11.3408 41.594C11.4649 41.6768 11.5994 41.7181 11.7442 41.7181C12.0339 41.7181 12.3649 41.5526 12.6546 41.2526L12.7063 41.2009C12.7994 41.0871 12.965 40.9112 13.1822 40.694C13.3374 40.5285 13.5236 40.3423 13.7201 40.1457C13.9167 39.9491 14.1546 39.7215 14.3822 39.494C14.6615 39.225 14.9409 38.9664 15.2202 38.7181C15.3753 38.5836 15.5202 38.4595 15.665 38.3353L15.6754 38.325L15.7374 38.2732C15.8719 38.1595 16.0064 38.056 16.1305 37.9732C16.1823 37.9319 16.2443 37.8905 16.2961 37.8594L16.3167 37.8388L16.3995 37.787L16.5547 37.6939L16.234 33.7835ZM15.4581 37.187L15.396 37.2387C15.2616 37.3319 15.1271 37.4456 14.9822 37.5698C14.4236 38.025 13.8029 38.6146 13.2546 39.1526C12.9339 39.4629 12.6443 39.7629 12.4063 40.0112C12.4063 40.0009 12.4167 40.0009 12.4167 39.9905C12.5925 39.6491 12.7994 39.3078 13.027 38.956C13.5753 38.1284 14.1857 37.3318 14.8478 36.5974C14.9822 36.4422 15.1167 36.2973 15.2512 36.1525L15.3236 36.0801L15.365 36.0284L15.4581 37.187Z" fill="#2D0106"/>
<path d="M56.0418 26.7282C54.6038 26.0764 53.1038 25.5799 51.5728 25.2282C51.5728 25.2282 51.3762 22.7247 50.1762 20.3246C48.9658 17.9246 45.1071 15.6487 41.0622 14.8521C37.0173 14.0555 32.5276 14.4176 30.4999 14.8211C29.2379 14.0659 27.6758 13.9935 26.3516 14.6245C24.8516 15.328 21.986 17.097 21.0136 18.0591C20.0515 19.0211 20.1446 20.366 20.4135 20.8005C19.2756 21.9384 18.2825 23.2005 17.4445 24.5661C14.9721 28.5075 13.9065 38.7181 17.9411 43.2492C21.9756 47.7803 29.9827 49.6528 33.7897 49.7872H37.1311C40.4725 49.7872 43.9588 49.301 46.2864 48.5976C48.6141 47.8941 50.5176 46.6941 51.2624 46.5182C52.0176 46.3423 54.7694 45.7216 55.8142 45.2147C56.8694 44.7182 57.128 43.2388 57.128 43.2388C59.2281 42.9078 59.8281 41.3767 60.4695 39.2353C61.1109 37.0939 61.0695 33.7938 60.4695 31.7972C59.8798 29.8007 58.5039 27.8351 56.0418 26.7282Z" fill="#1B597F"/>
<g opacity="0.4">
<path d="M25.855 36.9078C25.855 36.9078 25.6999 37.4871 26.0826 38.1595C25.3171 37.6216 24.7274 36.6491 25.1412 35.4905C25.555 34.3422 26.9413 33.3698 28.3792 34.3318C27.293 34.3318 25.8861 35.1801 25.855 36.9078Z" fill="white"/>
</g>
<g opacity="0.4">
<path d="M46.4415 23.0765L45.7794 21.8248C45.7587 22.8179 45.8105 24.38 48.3553 25.6007C50.9002 26.8111 52.0589 26.2214 54.6658 27.3904C57.2728 28.5594 58.2555 29.8835 58.9797 31.4456C59.7038 33.0077 60.4901 35.5733 59.9831 39.0906C60.7383 38.1802 61.3797 33.7422 60.4797 31.7974C59.5797 29.8525 58.6693 28.6421 57.3555 27.6801C56.0417 26.7283 53.683 25.7766 51.1588 25.1455C48.6347 24.5248 46.4415 23.0765 46.4415 23.0765Z" fill="white"/>
</g>
<g opacity="0.4">
<path d="M21.717 19.766C21.717 19.766 21.4067 18.9281 23.5584 17.5936C25.7102 16.2591 27.6654 14.997 28.6171 15.5246C28.0895 15.8349 25.9585 17.0246 25.9585 17.0246C25.9585 17.0246 30.0861 15.7832 36.2518 15.9591C42.4174 16.1349 47.5796 17.9556 49.2658 21.3799C50.3106 21.9488 50.7969 21.8247 50.7969 21.8247C50.7969 21.8247 49.3072 17.1798 43.5347 15.7418C37.7621 14.3039 31.762 14.5108 30.4896 14.8211C29.393 14.4383 28.193 13.4763 24.6447 15.5246C21.0963 17.5729 20.217 18.2763 20.4446 20.2729C20.8894 20.1591 21.3136 19.9936 21.717 19.766Z" fill="white"/>
</g>
<g opacity="0.4">
<path d="M4.4822 20.6558C4.4822 20.6558 3.79943 21.1834 4.00633 21.442C5.45463 21.2454 11.3927 21.2454 20.217 23.7179L20.0825 23.2213C20.0825 23.2213 21.6756 20.573 23.5584 18.4316C22.2963 19.3006 18.9445 22.7455 18.9445 22.7455C18.9445 22.7455 12.2099 19.7764 4.4822 20.6558Z" fill="white"/>
</g>
<g opacity="0.4">
<path d="M15.6961 38.5113L16.5133 39.5251C16.5133 39.5251 15.2512 32.1801 17.5271 27.4938L16.4202 27.0179C16.4202 27.0179 14.2374 33.8974 15.6961 38.5113Z" fill="white"/>
</g>
<g opacity="0.2">
<path d="M16.7204 33.7835C16.5342 37.7043 17.0824 41.6147 21.1377 44.6561C25.1929 47.6976 33.7896 49.7769 33.7896 49.7769L28.6171 48.9597L29.3413 52.4873C31.4931 52.0528 33.6965 51.8666 35.8897 51.939C39.8932 52.0632 43.576 52.4873 43.576 52.4873L42.7381 49.4355C42.7381 49.4355 45.9657 48.9803 47.6623 48.1114C49.3589 47.232 55.2763 45.4423 55.2763 45.4423L55.8039 45.6803C55.8039 45.6803 57.2728 44.801 57.1384 43.2492L54.4797 43.0423C54.4797 43.0423 59.0315 44.3044 59.7867 36.8353C59.2591 37.7663 57.2935 40.0112 52.4417 40.5181C48.4382 40.9423 44.7657 39.9388 42.2829 38.5629C39.7898 37.187 38.4346 37.3732 34.5552 37.7663C30.6758 38.1595 26.2481 35.6249 28.3689 34.3525C28.3689 34.3525 26.424 34.2283 26.0723 35.6146C25.8654 36.4525 25.8654 37.3319 26.0723 38.1698C26.0723 38.1698 26.393 36.1422 27.6654 37.2698C28.9378 38.3974 34.0276 38.7077 34.0276 38.7077L37.9484 39.1422C37.9484 39.1422 38.8794 39.1319 39.0449 39.5457C39.2104 39.9491 40.3484 40.6009 41.7036 40.9526C43.0588 41.3043 44.0519 41.7699 43.845 42.163L44.6726 45.0803C44.6726 45.0803 40.607 46.5596 34.8242 46.6217C29.0516 46.6734 23.3308 44.8423 20.2066 41.1595C17.0824 37.4767 16.8859 34.8594 16.7204 33.7835Z" fill="#2D0106"/>
</g>
<path d="M56.2487 26.2523C54.8935 25.6419 53.4866 25.1557 52.0383 24.804C51.9348 23.9867 51.5934 22.0212 50.6313 20.097C49.3692 17.5728 45.4692 15.2038 41.1553 14.3452C36.9759 13.5176 32.5379 13.921 30.5827 14.2728C29.1965 13.5176 27.5412 13.4658 26.1136 14.1486C24.6446 14.8314 21.6963 16.6211 20.6308 17.6866C19.7101 18.6073 19.5652 19.8798 19.7825 20.666C18.7273 21.7729 17.7859 22.9833 16.979 24.2764C14.5686 28.1247 13.172 38.6767 17.5273 43.5802C20.2584 46.6527 24.7171 48.5458 28.5964 49.5079C31.0689 50.2114 33.7586 49.7769 33.7586 49.7769C33.7586 49.7769 30.4792 48.9286 28.2654 48.3286C24.7688 47.3872 20.7756 45.6699 18.3031 42.8871C14.5582 38.6767 15.3548 28.7972 17.8583 24.8247C18.6756 23.4902 19.648 22.2591 20.7549 21.1522L21.0446 20.8625L20.8273 20.5108C20.6825 20.2729 20.5687 19.2073 21.3549 18.4108C22.2343 17.5314 25.0171 15.7831 26.5378 15.0693C27.7068 14.521 29.0827 14.5831 30.1999 15.2452L30.3758 15.3486L30.5723 15.3073C32.6207 14.9038 37.069 14.5728 40.9277 15.3383C44.8795 16.1245 48.5623 18.3073 49.6693 20.5315C50.8072 22.8074 51.0141 25.2178 51.0141 25.2385L51.0451 25.6316L51.4279 25.704C52.9279 26.0454 54.3866 26.5419 55.7935 27.173C58.4004 28.3316 59.4867 30.3903 59.9419 31.9214C60.5315 33.8766 60.5315 37.0835 59.9419 39.0594C59.3315 41.1284 58.8556 42.4319 57.0556 42.7216L56.2797 42.8767L56.5901 43.1147C56.5901 43.125 56.3521 44.3354 55.5556 44.7182C54.6142 45.1733 52.0693 45.763 51.2417 45.9492L51.1072 45.9802C50.7555 46.063 50.2693 46.3009 49.5968 46.6216C48.6968 47.0561 47.4554 47.6561 46.1002 48.0699C44.8485 48.432 43.5657 48.701 42.2726 48.8665C40.607 49.1044 37.0897 49.7458 37.0897 49.7458C37.0897 49.7458 40.6794 50.1286 42.3864 49.8907C43.7416 49.7148 45.0761 49.4355 46.3899 49.0527C47.8278 48.6182 49.1106 47.9975 50.0417 47.5527C50.6106 47.2837 51.0969 47.0458 51.3348 46.9837L51.4693 46.9527C52.959 46.6113 55.059 46.094 56.0004 45.6492C56.9418 45.2044 57.3556 44.1906 57.5211 43.6526C59.6418 43.1664 60.3039 41.4802 60.935 39.3491C61.5867 37.1663 61.5867 33.7731 60.935 31.611C60.2729 29.242 58.5453 27.2661 56.2487 26.2523Z" fill="#2D0106"/>
<path d="M47.4347 42.556C46.2657 42.2664 45.1277 41.8319 44.0622 41.2732C43.6691 41.0663 43.2656 40.8801 42.8518 40.7353L42.8104 40.7146H42.7587C40.7001 40.4974 39.4276 38.9973 39.3759 38.9353C38.9724 38.449 38.5173 38.1801 37.3276 38.2525C36.9034 38.2732 36.5414 38.2939 36.2103 38.3146C35.031 38.3973 33.8413 38.4284 32.662 38.387C30.6033 38.3146 27.4481 36.8559 26.6308 35.1283L25.8446 35.5007C26.8791 37.6939 30.5516 39.1835 32.6309 39.256C33.8413 39.2973 35.0517 39.2766 36.262 39.1835C36.5931 39.1629 36.9552 39.1422 37.3793 39.1215C38.3724 39.0697 38.5379 39.2766 38.7138 39.4939C38.869 39.6801 40.2759 41.3146 42.6242 41.5836C42.9863 41.7181 43.338 41.8836 43.6794 42.0595C44.807 42.6491 45.9967 43.1043 47.2278 43.4147C48.7174 43.7974 50.9002 43.9526 52.9486 43.9526C54.6245 43.9526 56.1969 43.8491 57.2211 43.6836L57.0866 42.825C54.9451 43.156 50.0106 43.2284 47.4347 42.556Z" fill="#2D0106"/>
<path d="M20.2169 20.4902L20.8273 21.1109C22.0066 19.9523 23.5584 18.4316 23.5584 18.4316C23.5584 18.4316 21.4583 19.2592 20.2169 20.4902Z" fill="#2D0106"/>
<path d="M25.9687 35.149C24.9135 37.0214 26.0929 38.1697 26.0929 38.1697C25.9377 37.4559 26.0101 36.3593 26.5584 35.5317C26.9619 34.911 27.5826 34.5076 28.3895 34.3524C28.3791 34.3421 26.786 33.6903 25.9687 35.149Z" fill="#2D0106"/>
<path d="M25.9584 17.0245C25.9584 17.0245 27.7274 16.1555 30.6654 15.3176L30.4895 14.4693C27.6136 15.4314 25.9584 17.0245 25.9584 17.0245Z" fill="#2D0106"/>
<path d="M45.7794 21.8248C45.7794 21.8248 45.9242 23.9455 47.8484 24.7938C49.2967 25.4352 51.2623 25.7042 51.4795 25.7352L51.6554 24.711C50.9105 24.5869 49.3381 24.2558 48.2208 23.8214C47.1036 23.3869 46.1105 22.3834 45.7794 21.8248Z" fill="#2D0106"/>
<path d="M55.9485 23.9765C55.5968 24.2248 54.6244 24.9489 54.2416 25.2282C53.5381 25.7455 53.1864 26.0765 53.1864 26.4489C53.1864 26.8214 53.6209 27.711 54.583 28.249C55.5347 28.7766 56.8072 28.549 57.1899 28.0214C57.5623 27.4938 57.1899 25.942 56.9106 24.742C56.652 23.5523 56.3002 23.7282 55.9485 23.9765Z" fill="#FF9971"/>
<g opacity="0.4">
<path d="M53.5486 26.9867L56.259 24.5039L56.8487 27.9281L57.2935 27.2971L56.4452 23.8832L53.1969 26.4591L53.5486 26.9867Z" fill="white"/>
</g>
<g opacity="0.2">
<path d="M54.1486 27.649C54.1486 27.649 55.5555 26.3869 56.1865 24.6385C56.1658 25.5075 55.9279 27.3076 55.4934 28.3007C55.1003 28.3007 54.1486 27.649 54.1486 27.649Z" fill="#2D0106"/>
</g>
<path d="M57.7901 27.1317C57.7591 26.511 57.5936 25.7145 57.3763 24.7834L57.3453 24.6489C57.1798 23.9041 56.9522 23.5317 56.6005 23.3972C56.2073 23.242 55.8556 23.4903 55.6901 23.6144C55.4108 23.8213 54.7177 24.3179 54.2728 24.6593L53.9832 24.8662C53.828 24.98 53.6728 25.0938 53.5383 25.2076C53.3832 25.3317 53.2383 25.4662 53.1038 25.6214C53.0831 25.6421 53.0728 25.6628 53.0521 25.6834C52.959 25.7972 52.8763 25.9317 52.8245 26.0766C52.7831 26.1904 52.7625 26.3145 52.7625 26.4386C52.7625 26.5421 52.7831 26.6455 52.8038 26.7386C52.9487 27.2973 53.4556 28.1042 54.3866 28.6111C54.8315 28.849 55.3177 28.9732 55.8246 28.9732C56.2177 28.9835 56.6005 28.9007 56.9522 28.7352C57.1901 28.6318 57.397 28.4663 57.5522 28.2594C57.5522 28.249 57.5625 28.249 57.5625 28.2387C57.6246 28.1456 57.6763 28.0421 57.7074 27.9283C57.7281 27.8662 57.7384 27.7938 57.7591 27.7318C57.7901 27.5559 57.8005 27.349 57.7901 27.1317ZM55.5763 28.1145C55.3073 28.0835 55.0487 28.0111 54.8108 27.8766C54.6246 27.7731 54.4487 27.649 54.2935 27.5145C54.159 27.3904 54.0245 27.2455 53.9211 27.0904C53.859 26.9973 53.797 26.9042 53.7452 26.8111C53.6832 26.6973 53.6418 26.5835 53.6314 26.4593C53.6314 26.4283 53.6418 26.3869 53.6521 26.3662C53.7349 26.2317 53.8383 26.1179 53.9625 26.0145L54.0452 25.9421C54.1901 25.8283 54.3452 25.7041 54.5108 25.58L54.5315 25.5593L54.7901 25.3628C55.2453 25.0317 55.9177 24.5248 56.197 24.3282C56.2384 24.2972 56.2798 24.2765 56.3004 24.2558C56.3936 24.442 56.4556 24.6386 56.497 24.8455L56.528 24.98C56.6211 25.4041 56.766 26.0041 56.8487 26.5421C56.8798 26.749 56.9108 26.9662 56.9212 27.1835C56.9212 27.2559 56.9315 27.3283 56.9212 27.3904C56.9315 27.5145 56.9005 27.6387 56.8487 27.7524C56.8487 27.7628 56.8384 27.7628 56.8384 27.7731C56.828 27.7835 56.828 27.7938 56.8177 27.7938C56.6936 27.9387 56.3936 28.0628 56.0211 28.1042C55.8763 28.1249 55.7211 28.1249 55.5763 28.1145Z" fill="#2D0106"/>
<path d="M3.48897 21.4627C3.52001 22.0937 4.32692 22.0317 5.28901 22.0627C6.26144 22.0937 9.36494 22.6006 13.0271 23.8627C16.6892 25.1248 18.2824 26.8111 18.2824 26.8111L20.2169 23.7282C17.5168 22.6627 13.3271 20.842 8.89942 20.542C4.4614 20.2316 3.45794 20.8213 3.48897 21.4627Z" fill="#123854"/>
<g opacity="0.4">
<path d="M4.4822 20.6557C4.4822 20.6557 3.79943 21.1833 4.00633 21.442C5.45463 21.2454 11.3927 21.2454 20.217 23.7179C17.5376 22.6627 13.3996 20.8626 9.00298 20.5419C7.4926 20.4488 5.98223 20.4902 4.4822 20.6557Z" fill="white"/>
</g>
<path d="M3.30275 20.666C3.07516 20.8832 2.95102 21.1832 2.97171 21.4936C3.02344 22.5384 4.08898 22.5591 4.94761 22.5798L5.27865 22.5901C6.16833 22.6212 9.18907 23.097 12.8719 24.3591C16.4202 25.5902 18.272 26.7902 18.2927 26.8006C18.1168 25.9212 17.5375 25.166 16.7202 24.7833C15.572 24.2453 14.403 23.7798 13.2133 23.366C9.42701 22.0625 6.26143 21.566 5.32003 21.5349L4.97865 21.5246C4.64761 21.5143 4.16139 21.5039 4.01656 21.4315C4.01656 21.4211 4.36829 20.7487 8.86838 21.0487C13.8754 21.3901 18.4789 23.0246 20.2272 23.7177C20.2272 23.7177 20.2272 22.6315 18.6134 22.0212C16.2858 21.2349 12.7271 20.2625 8.94079 20.0039C4.7614 19.7246 3.71656 20.2418 3.30275 20.666Z" fill="#2D0106"/>
<path d="M34.196 28.8326C35.6331 28.7434 36.7045 27.1641 36.5892 25.3051C36.4739 23.446 35.2154 22.0113 33.7784 22.1004C32.3413 22.1896 31.2699 23.7689 31.3852 25.6279C31.5005 27.4869 32.759 28.9217 34.196 28.8326Z" fill="#2D0106"/>
<path d="M34.9586 24.0591C34.6172 24.0798 34.3586 24.4316 34.3896 24.8557C34.4103 25.2695 34.7103 25.5902 35.0517 25.5695C35.3931 25.5488 35.6517 25.1971 35.6207 24.773C35.6 24.3592 35.3 24.0281 34.9586 24.0591Z" fill="white"/>
<path d="M48.5209 20.6454C47.414 20.7385 46.5657 21.8661 46.4105 23.3144C46.8864 23.7385 47.4347 24.0799 48.0347 24.3179C49.0485 24.711 50.352 25.0006 51.1589 25.1558C51.2623 24.7006 51.283 24.2454 51.2416 23.7799C51.0761 21.9282 49.8554 20.5212 48.5209 20.6454Z" fill="#2D0106"/>
<path d="M49.7105 22.7662C49.4002 22.7972 49.1726 23.1489 49.214 23.5524C49.2553 23.9559 49.5347 24.2662 49.845 24.2352C50.1554 24.2041 50.383 23.8524 50.3416 23.449C50.3105 23.0455 50.0209 22.7351 49.7105 22.7662Z" fill="white"/>
<path d="M58.8142 30.5974C58.5245 30.5974 58.2762 31.0836 58.2762 31.6939C58.2762 32.3043 58.5142 32.7905 58.8142 32.7905C59.1038 32.7905 59.3521 32.3043 59.3521 31.6939C59.3418 31.0939 59.1038 30.5974 58.8142 30.5974Z" fill="#2D0106"/>
<path d="M51.7073 30.4006C51.2832 30.4006 50.9418 30.9386 50.9418 31.6007C50.9418 32.2627 51.2832 32.8007 51.7073 32.8007C52.1314 32.8007 52.4728 32.2627 52.4728 31.6007C52.4728 30.9386 52.1314 30.4006 51.7073 30.4006Z" fill="#2D0106"/>
<path d="M57.128 43.2492C56.259 43.3733 55.3693 43.4457 54.49 43.4768C54.6245 43.7147 54.79 44.025 55.0693 44.532C55.4831 45.3182 55.4314 45.8458 55.8038 45.6803C56.8176 45.0906 57.4073 44.0147 57.7073 43.1147C57.5211 43.1768 57.3349 43.2181 57.128 43.2492Z" fill="white"/>
<g opacity="0.2">
<path d="M55.2142 44.1905C55.297 44.1905 55.7625 43.9733 55.8349 44.894C55.9384 44.656 56.0315 44.4078 56.1039 44.1595C56.4039 44.1491 56.7039 44.1284 56.9936 44.0767C57.4074 44.0043 57.3246 43.2595 57.3246 43.2595L54.7177 43.5491L55.2142 44.1905Z" fill="#2D0106"/>
</g>
<path d="M57.5832 42.701C57.428 42.7527 57.2729 42.7838 57.1073 42.8148H57.066C56.8901 42.8458 56.6935 42.8665 56.4866 42.8872L56.3315 42.9079C55.7935 42.9596 55.1625 43.001 54.4901 43.0321L54.2832 43.0424H54.2625L53.8694 43.0631H53.7762L53.8694 43.239L54.128 43.6941C54.1694 43.7665 54.2107 43.839 54.2521 43.9217C54.3556 44.1183 54.4901 44.3666 54.697 44.739C54.759 44.8528 54.8004 44.9562 54.8418 45.0493C54.8935 45.1838 54.9349 45.308 54.9763 45.4114C54.9866 45.4528 55.0073 45.4838 55.0176 45.5252V45.5355C55.0694 45.7114 55.1625 45.8666 55.2866 45.9907C55.3383 46.0321 55.3901 46.0735 55.4625 46.0942C55.5349 46.1252 55.6177 46.1459 55.6901 46.1356C55.7935 46.1356 55.897 46.1149 55.9797 46.0631L56.0211 46.0425C57.1177 45.4011 57.7074 44.3148 57.997 43.5596C58.0384 43.4459 58.0798 43.3321 58.1108 43.239L58.2246 42.8976L58.3798 42.4424L57.5832 42.701ZM55.2142 43.8803C55.6487 43.8493 56.0625 43.8183 56.4246 43.7872C56.6315 43.7665 56.8177 43.7459 56.9936 43.7148C56.9211 43.8597 56.8487 43.9941 56.766 44.1286C56.5177 44.5321 56.197 44.8942 55.8142 45.1735C55.8039 45.1528 55.8039 45.1424 55.7935 45.1217C55.7521 45.0183 55.7108 44.8838 55.6487 44.739C55.597 44.6148 55.5349 44.4804 55.4625 44.3355L55.3797 44.17C55.3073 44.0562 55.2556 43.9631 55.2142 43.8803Z" fill="#2D0106"/>
<path d="M49.1416 43.3008C50.7554 45.6595 50.5278 46.394 51.3244 45.8457C52.0382 45.3492 52.7727 44.3147 53.2175 43.4974C51.852 43.5181 50.4968 43.456 49.1416 43.3008Z" fill="white"/>
<g opacity="0.2">
<path d="M50.0002 44.201C50.8071 44.3975 51.6347 44.47 52.452 44.4079C52.6486 44.3975 52.8141 43.7044 52.8141 43.7044L49.6692 43.4665L50.0002 44.201Z" fill="#2D0106"/>
</g>
<path d="M53.8487 43.0629H53.3935H53.2073C51.8624 43.0836 50.5176 43.0112 49.1831 42.8664L48.5417 42.7939L48.2313 42.7526L48.4693 43.1043L48.7693 43.5491C48.8106 43.6009 48.8417 43.6526 48.8831 43.7147C49.2555 44.2733 49.6072 44.8526 49.9176 45.4526C50.1245 45.8354 50.2693 46.1044 50.4555 46.2699C50.5486 46.3526 50.6521 46.4044 50.7659 46.4354C50.8176 46.4457 50.8693 46.4561 50.921 46.4561C51.159 46.4561 51.3762 46.3319 51.5521 46.2078C51.7176 46.0837 51.8831 45.9595 52.0279 45.8043C52.659 45.2043 53.1866 44.3871 53.4452 43.9319C53.4969 43.8388 53.5383 43.7664 53.5694 43.7043L53.828 43.2284L53.9211 43.0526L53.8487 43.0629ZM50.0003 43.8284L50.1865 43.8388C50.9934 43.9009 51.7797 43.9216 52.4521 43.9319C52.3383 44.0974 52.2245 44.2629 52.1107 44.4181C51.79 44.8526 51.4279 45.2457 51.0762 45.4836C51.0348 45.5147 51.0038 45.5354 50.9831 45.5457C50.9107 45.4423 50.7969 45.2354 50.6934 45.0388C50.59 44.8423 50.4452 44.5629 50.2589 44.2629C50.1762 44.1285 50.0934 43.9836 50.0003 43.8284Z" fill="#2D0106"/>
<path d="M44.052 41.7596C44.1451 42.1423 44.2796 42.7113 44.4141 43.5079C44.6313 44.8114 44.652 45.5148 45.7796 45.0183C46.7521 44.5941 47.4659 43.7665 47.9417 43.1148C47.7348 43.0734 47.5279 43.032 47.3314 42.9803C46.1934 42.701 45.0968 42.2872 44.052 41.7596Z" fill="white"/>
<g opacity="0.2">
<path d="M44.538 42.7733C44.538 42.7733 45.3656 43.125 45.5622 43.4664C45.7587 43.8078 45.4794 44.4388 45.4794 44.4388C45.9656 44.2216 46.4312 43.9837 46.8863 43.7147C47.3829 43.3836 47.5381 43.125 47.5381 43.125L44.3932 42.1526L44.538 42.7733Z" fill="#2D0106"/>
</g>
<path d="M48.552 42.8044L48.0968 42.7113H48.0761L48.0244 42.7009L47.8692 42.6699H47.8589L47.7244 42.6388L47.652 42.6182L47.5175 42.5871L47.4554 42.5664C47.3727 42.5457 47.2899 42.525 47.2175 42.5044L47.1451 42.4837C47.0727 42.463 46.9899 42.4423 46.9175 42.4216L46.8658 42.4113L46.7002 42.3595L46.6071 42.3285L46.514 42.2975L46.3382 42.2354L46.2761 42.2147L46.1623 42.1733L46.0899 42.1526L46.0278 42.1319L45.8933 42.0906L45.7071 42.0181L45.5933 41.9871L45.5209 41.9561L45.4588 41.9354L45.2933 41.863H45.283C45.1795 41.8216 45.0761 41.7699 44.983 41.7285L44.9209 41.6974L44.7968 41.6354L44.6623 41.5733L44.5899 41.5423L44.5278 41.5112L44.445 41.4699L44.2588 41.3768L44.0829 41.2836L43.9278 41.2112L43.7726 41.1388H43.7623L43.4105 40.9423V40.9526L43.5967 41.6561L43.6485 41.863C43.6588 41.9147 43.6795 41.9768 43.7002 42.0492C43.7829 42.3802 43.8864 42.8768 44.0002 43.5699L44.0416 43.8492C44.1347 44.4078 44.2071 44.8527 44.3933 45.163C44.5588 45.4423 44.8692 45.6079 45.1899 45.6079C45.4588 45.5975 45.7278 45.5251 45.9657 45.4113C46.752 45.0699 47.4554 44.4699 48.1382 43.5906C48.1899 43.5182 48.252 43.4458 48.3037 43.3733L48.4899 43.1147L48.6968 42.8251L48.552 42.8044ZM45.1485 44.7492C45.045 44.6768 44.9519 44.1285 44.8899 43.7251L44.8485 43.4458C44.8174 43.2492 44.7864 43.063 44.7554 42.8768C44.7347 42.763 44.714 42.6492 44.6933 42.5457C44.8381 42.6078 44.9933 42.6802 45.1588 42.7423L45.1899 42.7526L45.2623 42.7837L45.3347 42.8147L45.4071 42.8457L45.4588 42.8664C45.5623 42.9078 45.6657 42.9389 45.7795 42.9802L45.8416 43.0009H45.8519L46.0071 43.0526L46.1726 43.1044L46.3485 43.1561L46.4623 43.1871L46.5968 43.2285L46.7106 43.2595L46.8037 43.2802C46.8658 43.3009 46.9382 43.3216 47.0002 43.332L47.1658 43.3733L47.1968 43.3837C47.1037 43.4975 47.0002 43.6009 46.9071 43.7044C46.5451 44.0871 46.1106 44.3975 45.6347 44.6147C45.2519 44.7803 45.1485 44.7389 45.1485 44.7492Z" fill="#2D0106"/>
<path d="M41.4553 37.0111C40.6174 37.5491 39.0449 39.2146 39.0449 39.2146C39.2415 39.4526 40.576 40.9216 42.7174 41.1491C42.7174 41.1491 42.7795 39.8767 42.7174 38.5422C42.6657 37.2077 42.2933 36.4732 41.4553 37.0111Z" fill="white"/>
<g opacity="0.2">
<path d="M40.307 39.9905C40.307 39.9905 41.3001 39.2353 41.8277 38.4284C41.8898 39.0595 41.6001 40.394 41.5381 40.6422C41.1553 40.5181 40.307 39.9905 40.307 39.9905Z" fill="#2D0106"/>
</g>
<path d="M43.1726 39.0078C43.1726 38.8526 43.1623 38.6871 43.1519 38.5216C43.1002 37.394 42.8623 36.7526 42.3761 36.494C42.1485 36.3698 41.7554 36.2974 41.2278 36.6388C40.7933 36.9388 40.3898 37.2802 40.007 37.6423C39.6346 37.994 39.2829 38.3457 39.045 38.5837C38.8691 38.7595 38.7553 38.8733 38.745 38.9044L38.4863 39.1837L38.6829 39.4216L38.7243 39.4734L38.745 39.494L38.7553 39.5044L38.7863 39.5354C38.807 39.5561 38.8277 39.5871 38.8587 39.6182L38.8794 39.6389L38.9208 39.6803L38.9725 39.732L39.0346 39.794L39.076 39.8354L39.1277 39.8872C39.1794 39.9389 39.2415 40.0009 39.3139 40.0527L39.3657 40.0941L39.4174 40.1354L39.4588 40.1768L39.5208 40.2285L39.5622 40.2596L39.5726 40.2699L39.6243 40.3113L39.6553 40.332L39.7484 40.4044C39.7795 40.4354 39.8208 40.4561 39.8519 40.4768L39.9139 40.5182L39.976 40.5596C40.0174 40.5906 40.0588 40.6216 40.1105 40.6423L40.1829 40.6837L40.2553 40.7251L40.3277 40.7665C40.3795 40.7975 40.4208 40.8285 40.4829 40.8492L40.5553 40.8906L40.6381 40.932L40.7002 40.963L40.7933 41.0148L40.8657 41.0458L40.9278 41.0768L40.9898 41.0975H41.0002L41.0726 41.1286L41.1347 41.1596H41.145L41.2278 41.1906L41.3002 41.2217L41.414 41.263L41.4967 41.2941H41.5071L41.5691 41.3148H41.5795L41.6105 41.3251C41.6312 41.3355 41.6623 41.3458 41.6829 41.3458H41.6933L41.7554 41.3665L41.7967 41.3768L41.8692 41.3975H41.8898L41.9623 41.4182H41.9726L42.014 41.4286L42.0554 41.4389H42.0657L42.1071 41.4492L42.1795 41.4596L42.2105 41.4699L42.283 41.4803H42.2933H42.3036H42.314L42.4071 41.4906L42.4899 41.501H42.5002H42.5416L42.6036 41.5113H42.6347L42.6864 41.5217L43.1416 41.5734L43.1519 41.3665L43.1623 41.1182C43.1623 41.0975 43.1726 40.9837 43.1726 40.7975C43.1726 40.4665 43.183 39.7734 43.1726 39.0078ZM41.9416 40.5492L41.8692 40.5285L41.776 40.4975L41.6933 40.4665L41.6105 40.4354H41.6002H41.5795H41.5588L41.5071 40.4147L41.414 40.3734L41.3726 40.3527C41.3519 40.3423 41.3312 40.332 41.3002 40.3216L41.2278 40.2906C41.0829 40.2285 40.9381 40.1561 40.8036 40.0734L40.6898 40.0113C40.6381 39.9803 40.5967 39.9492 40.545 39.9285C40.514 39.9078 40.4933 39.8975 40.4622 39.8768L40.4415 39.8665L40.4208 39.8561L40.3691 39.8147C40.2967 39.763 40.2346 39.7216 40.1726 39.6699L40.1415 39.6492L40.1105 39.6285L40.0795 39.6078L40.0691 39.5975C40.0484 39.5768 40.0277 39.5665 40.007 39.5458L39.9243 39.4734L39.8001 39.3596L39.7277 39.2975C39.6967 39.2664 39.6657 39.2354 39.6346 39.2044C39.945 38.8837 40.4726 38.3664 40.9588 37.9319C41.1864 37.725 41.4243 37.5388 41.6829 37.363C41.8381 37.2699 41.9312 37.2492 41.9623 37.2699C41.9623 37.2699 42.2312 37.425 42.2726 38.563C42.3036 39.3699 42.3036 40.1561 42.2933 40.6423H42.283L42.2002 40.6216L42.1278 40.601L42.0864 40.5906C42.0347 40.5803 41.9933 40.5699 41.9416 40.5492Z" fill="#2D0106"/>
<path d="M32.993 38.8214C33.3965 39.5249 33.7482 40.2594 34.0482 41.0146C34.5138 42.2146 35.0827 42.6491 35.5896 42.1112C36.0448 41.6353 37.0793 39.9904 37.7 38.6663C37.5966 38.6663 37.4828 38.6663 37.3586 38.6766C35.569 38.7697 34.7827 38.8628 32.993 38.8214Z" fill="white"/>
<g opacity="0.2">
<path d="M34.2344 39.0181L35.1654 41.5216C35.1654 41.5216 35.1965 39.6388 35.693 39.225C35.1654 39.1319 34.2344 39.0181 34.2344 39.0181Z" fill="#2D0106"/>
</g>
<path d="M37.7 38.2319H37.4931H37.4207H37.3379H37.2551H37.1827H37.1H37.0379L36.862 38.2422H36.8517L36.7689 38.2526L36.6448 38.2629H36.593H36.5103L36.3241 38.2733L36.231 38.2836H36.1586H36.0758L35.9206 38.2939H35.8792H35.8689H35.8379L35.7034 38.3043L35.5999 38.3146H35.5068L35.0206 38.3353H34.9482H34.8137H34.8034L34.5137 38.3457H34.3068H33.6964H33.4585H33.3447H33.1585H33.0757H33.0137H32.9206H32.8378L32.2378 38.3353L32.3309 38.5008L32.6206 38.9974C32.6619 39.0595 32.693 39.1319 32.7344 39.2043C33.0757 39.8354 33.3757 40.4871 33.6344 41.1595C34.0068 42.1113 34.4516 42.6492 34.9585 42.7423C35.0103 42.7526 35.0723 42.763 35.1241 42.763C35.4137 42.7526 35.693 42.6285 35.8896 42.4009C36.3344 41.925 37.2965 40.4354 37.9379 39.1215L37.9482 39.1009C37.9896 39.0077 38.031 38.925 38.0724 38.8422L37.7 38.2319ZM35.1447 41.9044C35.0413 41.8837 34.762 41.6354 34.462 40.8595C34.2447 40.3216 34.0068 39.7836 33.7378 39.2664H34.0275H34.3275H34.4206H34.5758H34.7309H34.8758L35.0103 39.256H35.093H35.1758L35.331 39.2457H35.3516H35.3827L35.5585 39.2353H35.6103H35.662L35.7758 39.225L35.8689 39.2146H35.8896L36.0137 39.2043L36.2517 39.194L36.4586 39.1836H36.531H36.6034L36.7896 39.1733L36.9241 39.1629H36.9758C36.3655 40.3319 35.5896 41.5009 35.2689 41.8423C35.2172 41.8733 35.1654 41.9147 35.1447 41.9044Z" fill="#2D0106"/>
<path d="M29.817 35.3042C29.1756 35.8732 28.3273 36.7215 27.9342 37.1146C29.0722 37.8801 30.3549 38.4181 31.7101 38.6974C31.6481 37.3422 31.4205 35.656 31.3274 35.1077C31.2136 34.5077 30.686 34.5387 29.817 35.3042Z" fill="white"/>
<g opacity="0.2">
<path d="M29.2482 37.5906L30.4275 35.8733C30.4275 35.8733 29.962 37.7354 30.6551 38.232C29.9413 38.3664 29.2482 37.5906 29.2482 37.5906Z" fill="#2D0106"/>
</g>
<path d="M32.1552 39.2044L32.1345 38.6768C32.1345 38.6251 32.1345 38.5631 32.1241 38.5113C32.1241 38.4596 32.1138 38.3872 32.1138 38.3251C32.1034 38.1079 32.0827 37.8803 32.0621 37.6527C31.969 36.5561 31.8138 35.4699 31.7414 35.0354C31.6586 34.5388 31.3586 34.363 31.1931 34.3009C30.7586 34.1457 30.2103 34.3733 29.5275 34.9837C29.1654 35.3044 28.7413 35.7078 28.3585 36.0802C28.1827 36.2458 28.0275 36.4113 27.8827 36.5561C27.7896 36.6492 27.6965 36.7423 27.624 36.8147L27.3861 37.0527L27.2723 37.1665L27.262 37.1768L27.6861 37.4665C28.8758 38.2734 30.2103 38.832 31.6172 39.1113L32.1552 39.2148V39.2044ZM30.8724 35.1285C30.8724 35.1389 30.8827 35.1595 30.8827 35.1802C30.9448 35.563 31.0793 36.494 31.1724 37.4561C31.1931 37.6837 31.2138 37.9217 31.2345 38.1389C30.9551 38.0665 30.6758 37.9837 30.3965 37.8803C30.0344 37.7561 29.693 37.601 29.3413 37.4354C29.093 37.3113 28.8448 37.1768 28.6172 37.0423C28.7516 36.9079 28.9068 36.7527 29.0723 36.5975C29.4137 36.2665 29.7861 35.9147 30.1068 35.6354C30.5517 35.2423 30.7896 35.1492 30.8724 35.1285Z" fill="#2D0106"/>
<path d="M79.7319 20.6454H85.4941L91.2563 23.9765V49.5908L85.4941 52.9219H79.7319V20.6454ZM83.4975 24.3799V49.1459H84.4803L87.501 47.408V26.1179L84.4906 24.3799H83.4975Z" fill="#1B597F"/>
<path d="M92.9425 20.6454H104.467V34.3732L102.005 35.7905L104.467 37.2078V52.9115H100.701V39.3802L96.7081 37.0629V52.9115H92.9425V20.6454ZM100.701 24.3799H96.7081V32.718L98.2392 33.618L100.701 32.2008V24.3799Z" fill="#1B597F"/>
<path d="M106.153 20.6454H117.688V52.9219H113.922V39.3802L109.919 37.0629V52.9115H106.153V20.6454ZM113.912 24.3799H109.908V32.718L113.912 35.0353V24.3799Z" fill="#1B597F"/>
<path d="M119.364 20.6454H130.888V30.4007L127.122 28.2283V24.3799H123.129V49.1459H127.122V40.0216L125.56 39.1216V34.7767L132.45 38.7699V43.1148L130.888 42.1837V52.9012H119.364V20.6454Z" fill="#1B597F"/>
<path d="M145.723 20.6454V52.9219H134.188V20.6454H145.723ZM141.957 49.1459V24.3799H137.954V49.1459H141.957Z" fill="#1B597F"/>
<path d="M155.168 29.449L151.175 27.1317V52.9115H147.409V20.6351L155.168 25.1248V20.6351H158.934V27.2662L160.527 28.1973V32.5422L158.934 31.6111V52.9012H155.168V29.449Z" fill="#1B597F"/>
<path d="M168.844 20.6454H180.379V34.3732L177.916 35.7905L180.379 37.2078V52.9115H176.613V39.3802L172.62 37.0629V52.9115H168.854V20.6454H168.844ZM176.603 24.3799H172.609V32.718L174.141 33.618L176.603 32.2008V24.3799Z" fill="#F96262"/>
<path d="M182.055 20.6454H193.589V52.9219H189.824V39.3802L185.83 37.0629V52.9115H182.065V20.6454H182.055ZM189.813 24.3799H185.82V32.718L189.813 35.0353V24.3799Z" fill="#F96262"/>
<path d="M195.265 20.6454H206.8V30.4007L203.034 28.2283V24.3799H199.041V49.1459H203.034V45.3183L206.8 43.1458V52.9115H195.265V20.6454Z" fill="#F96262"/>
<path d="M208.476 52.9115V20.6351H220V28.2283L216.235 30.4008V24.3696H212.241V32.7387L216.235 35.056V39.4009L212.241 37.0837V49.1356H216.235V45.3079L220 43.1355V52.9012L208.476 52.9115Z" fill="#F96262"/>
</svg>
